G04 #@! TF.GenerationSoftware,KiCad,Pcbnew,9.0.0*
G04 #@! TF.CreationDate,2025-03-25T02:12:26-05:00*
G04 #@! TF.ProjectId,freeMacro_rev_1,66726565-4d61-4637-926f-5f7265765f31,rev?*
G04 #@! TF.SameCoordinates,Original*
G04 #@! TF.FileFunction,Soldermask,Top*
G04 #@! TF.FilePolarity,Negative*
%FSLAX46Y46*%
G04 Gerber Fmt 4.6, Leading zero omitted, Abs format (unit mm)*
G04 Created by KiCad (PCBNEW 9.0.0) date 2025-03-25 02:12:26*
%MOMM*%
%LPD*%
G01*
G04 APERTURE LIST*
G04 Aperture macros list*
%AMRoundRect*
0 Rectangle with rounded corners*
0 $1 Rounding radius*
0 $2 $3 $4 $5 $6 $7 $8 $9 X,Y pos of 4 corners*
0 Add a 4 corners polygon primitive as box body*
4,1,4,$2,$3,$4,$5,$6,$7,$8,$9,$2,$3,0*
0 Add four circle primitives for the rounded corners*
1,1,$1+$1,$2,$3*
1,1,$1+$1,$4,$5*
1,1,$1+$1,$6,$7*
1,1,$1+$1,$8,$9*
0 Add four rect primitives between the rounded corners*
20,1,$1+$1,$2,$3,$4,$5,0*
20,1,$1+$1,$4,$5,$6,$7,0*
20,1,$1+$1,$6,$7,$8,$9,0*
20,1,$1+$1,$8,$9,$2,$3,0*%
G04 Aperture macros list end*
%ADD10RoundRect,0.237500X-0.237500X0.250000X-0.237500X-0.250000X0.237500X-0.250000X0.237500X0.250000X0*%
%ADD11C,4.000000*%
%ADD12C,2.200000*%
%ADD13RoundRect,0.237500X0.237500X-0.250000X0.237500X0.250000X-0.237500X0.250000X-0.237500X-0.250000X0*%
%ADD14R,1.800000X1.800000*%
%ADD15C,1.800000*%
%ADD16RoundRect,0.150000X-0.587500X-0.150000X0.587500X-0.150000X0.587500X0.150000X-0.587500X0.150000X0*%
%ADD17R,1.600000X1.600000*%
%ADD18O,1.600000X1.600000*%
%ADD19RoundRect,0.150000X-0.150000X0.875000X-0.150000X-0.875000X0.150000X-0.875000X0.150000X0.875000X0*%
%ADD20RoundRect,0.237500X-0.300000X-0.237500X0.300000X-0.237500X0.300000X0.237500X-0.300000X0.237500X0*%
G04 APERTURE END LIST*
D10*
X157100000Y-136987500D03*
X157100000Y-138812500D03*
D11*
X98250000Y-70000000D03*
D12*
X100790000Y-64920000D03*
X94440000Y-67460000D03*
D13*
X155500000Y-100312500D03*
X155500000Y-98487500D03*
D11*
X136750000Y-70000000D03*
D12*
X139290000Y-64920000D03*
X132940000Y-67460000D03*
D14*
X157300000Y-74800000D03*
D15*
X154760000Y-74800000D03*
D11*
X156000000Y-70000000D03*
D12*
X158540000Y-64920000D03*
X152190000Y-67460000D03*
D14*
X138000000Y-74800000D03*
D15*
X135460000Y-74800000D03*
D11*
X136750000Y-89250000D03*
D12*
X139290000Y-84170000D03*
X132940000Y-86710000D03*
D16*
X160125000Y-117750000D03*
X160125000Y-119650000D03*
X162000000Y-118700000D03*
D11*
X98260000Y-127730000D03*
D12*
X100800000Y-122650000D03*
X94450000Y-125190000D03*
D17*
X86240000Y-140540000D03*
D18*
X86240000Y-138000000D03*
X86240000Y-135460000D03*
X86240000Y-132920000D03*
X86240000Y-130380000D03*
X86240000Y-127840000D03*
X86240000Y-125300000D03*
X86240000Y-122760000D03*
X86240000Y-120220000D03*
X86240000Y-117680000D03*
X86240000Y-115140000D03*
X86240000Y-112600000D03*
X71000000Y-112600000D03*
X71000000Y-115140000D03*
X71000000Y-117680000D03*
X71000000Y-120220000D03*
X71000000Y-122760000D03*
X71000000Y-125300000D03*
X71000000Y-127840000D03*
X71000000Y-130380000D03*
X71000000Y-132920000D03*
X71000000Y-135460000D03*
X71000000Y-138000000D03*
X71000000Y-140540000D03*
D14*
X99500000Y-113300000D03*
D15*
X96960000Y-113300000D03*
D14*
X157300000Y-132600000D03*
D15*
X154760000Y-132600000D03*
D10*
X137900000Y-136987500D03*
X137900000Y-138812500D03*
D16*
X121625000Y-117650000D03*
X121625000Y-119550000D03*
X123500000Y-118600000D03*
D10*
X99200000Y-136887500D03*
X99200000Y-138712500D03*
D13*
X155500000Y-119612500D03*
X155500000Y-117787500D03*
X90300000Y-127000000D03*
X90300000Y-125175000D03*
D16*
X102425000Y-98450000D03*
X102425000Y-100350000D03*
X104300000Y-99400000D03*
D13*
X148100000Y-69325000D03*
X148100000Y-67500000D03*
D11*
X98250000Y-108500000D03*
D12*
X100790000Y-103420000D03*
X94440000Y-105960000D03*
D16*
X140962500Y-98450000D03*
X140962500Y-100350000D03*
X142837500Y-99400000D03*
X121662500Y-136950000D03*
X121662500Y-138850000D03*
X123537500Y-137900000D03*
D19*
X86350000Y-93700000D03*
X85080000Y-93700000D03*
X83810000Y-93700000D03*
X82540000Y-93700000D03*
X81270000Y-93700000D03*
X80000000Y-93700000D03*
X78730000Y-93700000D03*
X77460000Y-93700000D03*
X76190000Y-93700000D03*
X74920000Y-93700000D03*
X73650000Y-93700000D03*
X72380000Y-93700000D03*
X72380000Y-103000000D03*
X73650000Y-103000000D03*
X74920000Y-103000000D03*
X76190000Y-103000000D03*
X77460000Y-103000000D03*
X78730000Y-103000000D03*
X80000000Y-103000000D03*
X81270000Y-103000000D03*
X82540000Y-103000000D03*
X83810000Y-103000000D03*
X85080000Y-103000000D03*
X86350000Y-103000000D03*
D20*
X87837500Y-65400000D03*
X89562500Y-65400000D03*
D14*
X157300000Y-94100000D03*
D15*
X154760000Y-94100000D03*
D11*
X98250000Y-89250000D03*
D12*
X100790000Y-84170000D03*
X94440000Y-86710000D03*
D13*
X128900000Y-88512500D03*
X128900000Y-86687500D03*
D10*
X137900000Y-98487500D03*
X137900000Y-100312500D03*
X118600000Y-117687500D03*
X118600000Y-119512500D03*
D11*
X117500000Y-70000000D03*
D12*
X120040000Y-64920000D03*
X113690000Y-67460000D03*
D11*
X156000000Y-89250000D03*
D12*
X158540000Y-84170000D03*
X152190000Y-86710000D03*
D14*
X99500000Y-94100000D03*
D15*
X96960000Y-94100000D03*
D10*
X157100000Y-117787500D03*
X157100000Y-119612500D03*
D16*
X121625000Y-98450000D03*
X121625000Y-100350000D03*
X123500000Y-99400000D03*
X160162500Y-79150000D03*
X160162500Y-81050000D03*
X162037500Y-80100000D03*
X140962500Y-136950000D03*
X140962500Y-138850000D03*
X142837500Y-137900000D03*
D10*
X118600000Y-79187500D03*
X118600000Y-81012500D03*
D13*
X117000000Y-138812500D03*
X117000000Y-136987500D03*
X109600000Y-107812500D03*
X109600000Y-105987500D03*
D14*
X99500000Y-74800000D03*
D15*
X96960000Y-74800000D03*
D16*
X140925000Y-79150000D03*
X140925000Y-81050000D03*
X142800000Y-80100000D03*
D13*
X117000000Y-100312500D03*
X117000000Y-98487500D03*
D16*
X160162500Y-136950000D03*
X160162500Y-138850000D03*
X162037500Y-137900000D03*
D13*
X148100000Y-88525000D03*
X148100000Y-86700000D03*
D10*
X99400000Y-98487500D03*
X99400000Y-100312500D03*
D14*
X137900000Y-94100000D03*
D15*
X135360000Y-94100000D03*
D10*
X99300000Y-117687500D03*
X99300000Y-119512500D03*
D13*
X155500000Y-80912500D03*
X155500000Y-79087500D03*
X90400000Y-107725000D03*
X90400000Y-105900000D03*
D11*
X117510000Y-108490000D03*
D12*
X120050000Y-103410000D03*
X113700000Y-105950000D03*
D10*
X137800000Y-117687500D03*
X137800000Y-119512500D03*
D11*
X156010000Y-108480000D03*
D12*
X158550000Y-103400000D03*
X152200000Y-105940000D03*
D13*
X109600000Y-69312500D03*
X109600000Y-67487500D03*
D10*
X99300000Y-79187500D03*
X99300000Y-81012500D03*
D13*
X109600000Y-88512500D03*
X109600000Y-86687500D03*
D16*
X102362500Y-117650000D03*
X102362500Y-119550000D03*
X104237500Y-118600000D03*
D11*
X117510000Y-127740000D03*
D12*
X120050000Y-122660000D03*
X113700000Y-125200000D03*
D13*
X136300000Y-138812500D03*
X136300000Y-136987500D03*
X90300000Y-88512500D03*
X90300000Y-86687500D03*
D16*
X121625000Y-79150000D03*
X121625000Y-81050000D03*
X123500000Y-80100000D03*
D13*
X90300000Y-69312500D03*
X90300000Y-67487500D03*
X128800000Y-69325000D03*
X128800000Y-67500000D03*
X128900000Y-107812500D03*
X128900000Y-105987500D03*
D14*
X118775000Y-113300000D03*
D15*
X116235000Y-113300000D03*
D13*
X155500000Y-138812500D03*
X155500000Y-136987500D03*
D19*
X85885000Y-58750000D03*
X84615000Y-58750000D03*
X83345000Y-58750000D03*
X82075000Y-58750000D03*
X80805000Y-58750000D03*
X79535000Y-58750000D03*
X78265000Y-58750000D03*
X76995000Y-58750000D03*
X75725000Y-58750000D03*
X74455000Y-58750000D03*
X73185000Y-58750000D03*
X71915000Y-58750000D03*
X71915000Y-68050000D03*
X73185000Y-68050000D03*
X74455000Y-68050000D03*
X75725000Y-68050000D03*
X76995000Y-68050000D03*
X78265000Y-68050000D03*
X79535000Y-68050000D03*
X80805000Y-68050000D03*
X82075000Y-68050000D03*
X83345000Y-68050000D03*
X84615000Y-68050000D03*
X85885000Y-68050000D03*
D13*
X148100000Y-127025000D03*
X148100000Y-125200000D03*
D11*
X117500000Y-89250000D03*
D12*
X120040000Y-84170000D03*
X113690000Y-86710000D03*
D10*
X157100000Y-98487500D03*
X157100000Y-100312500D03*
D13*
X97700000Y-81012500D03*
X97700000Y-79187500D03*
D11*
X136750000Y-108490000D03*
D12*
X139290000Y-103410000D03*
X132940000Y-105950000D03*
D13*
X97600000Y-138712500D03*
X97600000Y-136887500D03*
D20*
X88337500Y-103000000D03*
X90062500Y-103000000D03*
D13*
X128800000Y-127012500D03*
X128800000Y-125187500D03*
X97700000Y-119512500D03*
X97700000Y-117687500D03*
D16*
X102325000Y-136850000D03*
X102325000Y-138750000D03*
X104200000Y-137800000D03*
D10*
X118600000Y-98487500D03*
X118600000Y-100312500D03*
D13*
X117000000Y-119512500D03*
X117000000Y-117687500D03*
X97800000Y-100312500D03*
X97800000Y-98487500D03*
X148100000Y-107725000D03*
X148100000Y-105900000D03*
X136200000Y-119512500D03*
X136200000Y-117687500D03*
D14*
X118775000Y-94100000D03*
D15*
X116235000Y-94100000D03*
D14*
X99575000Y-132600000D03*
D15*
X97035000Y-132600000D03*
D13*
X117000000Y-81012500D03*
X117000000Y-79187500D03*
D16*
X140825000Y-117650000D03*
X140825000Y-119550000D03*
X142700000Y-118600000D03*
D13*
X136300000Y-100312500D03*
X136300000Y-98487500D03*
D14*
X138075000Y-113300000D03*
D15*
X135535000Y-113300000D03*
D10*
X118600000Y-136987500D03*
X118600000Y-138812500D03*
X137900000Y-79187500D03*
X137900000Y-81012500D03*
D16*
X102362500Y-79150000D03*
X102362500Y-81050000D03*
X104237500Y-80100000D03*
D14*
X157275000Y-113300000D03*
D15*
X154735000Y-113300000D03*
D10*
X157100000Y-79087500D03*
X157100000Y-80912500D03*
D14*
X118740000Y-132600000D03*
D15*
X116200000Y-132600000D03*
D14*
X137575000Y-132600000D03*
D15*
X135035000Y-132600000D03*
D13*
X136300000Y-81012500D03*
X136300000Y-79187500D03*
D16*
X160125000Y-98450000D03*
X160125000Y-100350000D03*
X162000000Y-99400000D03*
D13*
X109600000Y-127000000D03*
X109600000Y-125175000D03*
D11*
X136760000Y-127740000D03*
D12*
X139300000Y-122660000D03*
X132950000Y-125200000D03*
D14*
X118775000Y-74800000D03*
D15*
X116235000Y-74800000D03*
D11*
X156000000Y-127750000D03*
D12*
X158540000Y-122670000D03*
X152190000Y-125210000D03*
M02*
