%TF.GenerationSoftware,KiCad,Pcbnew,9.0.0*%
%TF.CreationDate,2025-03-25T02:12:50-05:00*%
%TF.ProjectId,freeMacro_rev_1,66726565-4d61-4637-926f-5f7265765f31,rev?*%
%TF.SameCoordinates,Original*%
%TF.FileFunction,Drillmap*%
%TF.FilePolarity,Positive*%
%FSLAX45Y45*%
G04 Gerber Fmt 4.5, Leading zero omitted, Abs format (unit mm)*
G04 Created by KiCad (PCBNEW 9.0.0) date 2025-03-25 02:12:50*
%MOMM*%
%LPD*%
G01*
G04 APERTURE LIST*
%ADD10C,0.050000*%
%ADD11C,0.200000*%
%ADD12C,0.400000*%
G04 APERTURE END LIST*
D10*
X6900000Y-5300000D02*
X16900000Y-5300000D01*
X16900000Y-14500000D01*
X6900000Y-14500000D01*
X6900000Y-5300000D01*
D11*
D12*
X9625000Y-6800000D02*
X10025000Y-7200000D01*
X10025000Y-6800000D02*
X9625000Y-7200000D01*
X9625000Y-8725000D02*
X10025000Y-9125000D01*
X10025000Y-8725000D02*
X9625000Y-9125000D01*
X9625000Y-10650000D02*
X10025000Y-11050000D01*
X10025000Y-10650000D02*
X9625000Y-11050000D01*
X9626000Y-12573000D02*
X10026000Y-12973000D01*
X10026000Y-12573000D02*
X9626000Y-12973000D01*
X11550000Y-6800000D02*
X11950000Y-7200000D01*
X11950000Y-6800000D02*
X11550000Y-7200000D01*
X11550000Y-8725000D02*
X11950000Y-9125000D01*
X11950000Y-8725000D02*
X11550000Y-9125000D01*
X11551000Y-10649000D02*
X11951000Y-11049000D01*
X11951000Y-10649000D02*
X11551000Y-11049000D01*
X11551000Y-12574000D02*
X11951000Y-12974000D01*
X11951000Y-12574000D02*
X11551000Y-12974000D01*
X13475000Y-6800000D02*
X13875000Y-7200000D01*
X13875000Y-6800000D02*
X13475000Y-7200000D01*
X13475000Y-8725000D02*
X13875000Y-9125000D01*
X13875000Y-8725000D02*
X13475000Y-9125000D01*
X13475000Y-10649000D02*
X13875000Y-11049000D01*
X13875000Y-10649000D02*
X13475000Y-11049000D01*
X13476000Y-12574000D02*
X13876000Y-12974000D01*
X13876000Y-12574000D02*
X13476000Y-12974000D01*
X15400000Y-6800000D02*
X15800000Y-7200000D01*
X15800000Y-6800000D02*
X15400000Y-7200000D01*
X15400000Y-8725000D02*
X15800000Y-9125000D01*
X15800000Y-8725000D02*
X15400000Y-9125000D01*
X15400000Y-12575000D02*
X15800000Y-12975000D01*
X15800000Y-12575000D02*
X15400000Y-12975000D01*
X15401000Y-10648000D02*
X15801000Y-11048000D01*
X15801000Y-10648000D02*
X15401000Y-11048000D01*
D11*
X7158277Y-14813984D02*
X7158277Y-14613984D01*
X7158277Y-14613984D02*
X7205896Y-14613984D01*
X7205896Y-14613984D02*
X7234467Y-14623508D01*
X7234467Y-14623508D02*
X7253515Y-14642555D01*
X7253515Y-14642555D02*
X7263039Y-14661603D01*
X7263039Y-14661603D02*
X7272562Y-14699698D01*
X7272562Y-14699698D02*
X7272562Y-14728269D01*
X7272562Y-14728269D02*
X7263039Y-14766365D01*
X7263039Y-14766365D02*
X7253515Y-14785412D01*
X7253515Y-14785412D02*
X7234467Y-14804460D01*
X7234467Y-14804460D02*
X7205896Y-14813984D01*
X7205896Y-14813984D02*
X7158277Y-14813984D01*
X7358277Y-14813984D02*
X7358277Y-14680650D01*
X7358277Y-14718746D02*
X7367801Y-14699698D01*
X7367801Y-14699698D02*
X7377324Y-14690174D01*
X7377324Y-14690174D02*
X7396372Y-14680650D01*
X7396372Y-14680650D02*
X7415420Y-14680650D01*
X7482086Y-14813984D02*
X7482086Y-14680650D01*
X7482086Y-14613984D02*
X7472562Y-14623508D01*
X7472562Y-14623508D02*
X7482086Y-14633031D01*
X7482086Y-14633031D02*
X7491610Y-14623508D01*
X7491610Y-14623508D02*
X7482086Y-14613984D01*
X7482086Y-14613984D02*
X7482086Y-14633031D01*
X7605896Y-14813984D02*
X7586848Y-14804460D01*
X7586848Y-14804460D02*
X7577324Y-14785412D01*
X7577324Y-14785412D02*
X7577324Y-14613984D01*
X7710658Y-14813984D02*
X7691610Y-14804460D01*
X7691610Y-14804460D02*
X7682086Y-14785412D01*
X7682086Y-14785412D02*
X7682086Y-14613984D01*
X7939229Y-14813984D02*
X7939229Y-14613984D01*
X7939229Y-14613984D02*
X8005896Y-14756841D01*
X8005896Y-14756841D02*
X8072562Y-14613984D01*
X8072562Y-14613984D02*
X8072562Y-14813984D01*
X8253515Y-14813984D02*
X8253515Y-14709222D01*
X8253515Y-14709222D02*
X8243991Y-14690174D01*
X8243991Y-14690174D02*
X8224943Y-14680650D01*
X8224943Y-14680650D02*
X8186848Y-14680650D01*
X8186848Y-14680650D02*
X8167801Y-14690174D01*
X8253515Y-14804460D02*
X8234467Y-14813984D01*
X8234467Y-14813984D02*
X8186848Y-14813984D01*
X8186848Y-14813984D02*
X8167801Y-14804460D01*
X8167801Y-14804460D02*
X8158277Y-14785412D01*
X8158277Y-14785412D02*
X8158277Y-14766365D01*
X8158277Y-14766365D02*
X8167801Y-14747317D01*
X8167801Y-14747317D02*
X8186848Y-14737793D01*
X8186848Y-14737793D02*
X8234467Y-14737793D01*
X8234467Y-14737793D02*
X8253515Y-14728269D01*
X8348753Y-14680650D02*
X8348753Y-14880650D01*
X8348753Y-14690174D02*
X8367801Y-14680650D01*
X8367801Y-14680650D02*
X8405896Y-14680650D01*
X8405896Y-14680650D02*
X8424944Y-14690174D01*
X8424944Y-14690174D02*
X8434467Y-14699698D01*
X8434467Y-14699698D02*
X8443991Y-14718746D01*
X8443991Y-14718746D02*
X8443991Y-14775888D01*
X8443991Y-14775888D02*
X8434467Y-14794936D01*
X8434467Y-14794936D02*
X8424944Y-14804460D01*
X8424944Y-14804460D02*
X8405896Y-14813984D01*
X8405896Y-14813984D02*
X8367801Y-14813984D01*
X8367801Y-14813984D02*
X8348753Y-14804460D01*
X8529705Y-14794936D02*
X8539229Y-14804460D01*
X8539229Y-14804460D02*
X8529705Y-14813984D01*
X8529705Y-14813984D02*
X8520182Y-14804460D01*
X8520182Y-14804460D02*
X8529705Y-14794936D01*
X8529705Y-14794936D02*
X8529705Y-14813984D01*
X8529705Y-14690174D02*
X8539229Y-14699698D01*
X8539229Y-14699698D02*
X8529705Y-14709222D01*
X8529705Y-14709222D02*
X8520182Y-14699698D01*
X8520182Y-14699698D02*
X8529705Y-14690174D01*
X8529705Y-14690174D02*
X8529705Y-14709222D01*
X6697500Y-15042500D02*
X6897500Y-15242500D01*
X6897500Y-15042500D02*
X6697500Y-15242500D01*
X7243991Y-15100650D02*
X7243991Y-15233984D01*
X7196372Y-15024460D02*
X7148753Y-15167317D01*
X7148753Y-15167317D02*
X7272562Y-15167317D01*
X7348753Y-15214936D02*
X7358277Y-15224460D01*
X7358277Y-15224460D02*
X7348753Y-15233984D01*
X7348753Y-15233984D02*
X7339229Y-15224460D01*
X7339229Y-15224460D02*
X7348753Y-15214936D01*
X7348753Y-15214936D02*
X7348753Y-15233984D01*
X7482086Y-15033984D02*
X7501134Y-15033984D01*
X7501134Y-15033984D02*
X7520182Y-15043508D01*
X7520182Y-15043508D02*
X7529705Y-15053031D01*
X7529705Y-15053031D02*
X7539229Y-15072079D01*
X7539229Y-15072079D02*
X7548753Y-15110174D01*
X7548753Y-15110174D02*
X7548753Y-15157793D01*
X7548753Y-15157793D02*
X7539229Y-15195888D01*
X7539229Y-15195888D02*
X7529705Y-15214936D01*
X7529705Y-15214936D02*
X7520182Y-15224460D01*
X7520182Y-15224460D02*
X7501134Y-15233984D01*
X7501134Y-15233984D02*
X7482086Y-15233984D01*
X7482086Y-15233984D02*
X7463039Y-15224460D01*
X7463039Y-15224460D02*
X7453515Y-15214936D01*
X7453515Y-15214936D02*
X7443991Y-15195888D01*
X7443991Y-15195888D02*
X7434467Y-15157793D01*
X7434467Y-15157793D02*
X7434467Y-15110174D01*
X7434467Y-15110174D02*
X7443991Y-15072079D01*
X7443991Y-15072079D02*
X7453515Y-15053031D01*
X7453515Y-15053031D02*
X7463039Y-15043508D01*
X7463039Y-15043508D02*
X7482086Y-15033984D01*
X7672562Y-15033984D02*
X7691610Y-15033984D01*
X7691610Y-15033984D02*
X7710658Y-15043508D01*
X7710658Y-15043508D02*
X7720182Y-15053031D01*
X7720182Y-15053031D02*
X7729705Y-15072079D01*
X7729705Y-15072079D02*
X7739229Y-15110174D01*
X7739229Y-15110174D02*
X7739229Y-15157793D01*
X7739229Y-15157793D02*
X7729705Y-15195888D01*
X7729705Y-15195888D02*
X7720182Y-15214936D01*
X7720182Y-15214936D02*
X7710658Y-15224460D01*
X7710658Y-15224460D02*
X7691610Y-15233984D01*
X7691610Y-15233984D02*
X7672562Y-15233984D01*
X7672562Y-15233984D02*
X7653515Y-15224460D01*
X7653515Y-15224460D02*
X7643991Y-15214936D01*
X7643991Y-15214936D02*
X7634467Y-15195888D01*
X7634467Y-15195888D02*
X7624943Y-15157793D01*
X7624943Y-15157793D02*
X7624943Y-15110174D01*
X7624943Y-15110174D02*
X7634467Y-15072079D01*
X7634467Y-15072079D02*
X7643991Y-15053031D01*
X7643991Y-15053031D02*
X7653515Y-15043508D01*
X7653515Y-15043508D02*
X7672562Y-15033984D01*
X7863039Y-15033984D02*
X7882086Y-15033984D01*
X7882086Y-15033984D02*
X7901134Y-15043508D01*
X7901134Y-15043508D02*
X7910658Y-15053031D01*
X7910658Y-15053031D02*
X7920182Y-15072079D01*
X7920182Y-15072079D02*
X7929705Y-15110174D01*
X7929705Y-15110174D02*
X7929705Y-15157793D01*
X7929705Y-15157793D02*
X7920182Y-15195888D01*
X7920182Y-15195888D02*
X7910658Y-15214936D01*
X7910658Y-15214936D02*
X7901134Y-15224460D01*
X7901134Y-15224460D02*
X7882086Y-15233984D01*
X7882086Y-15233984D02*
X7863039Y-15233984D01*
X7863039Y-15233984D02*
X7843991Y-15224460D01*
X7843991Y-15224460D02*
X7834467Y-15214936D01*
X7834467Y-15214936D02*
X7824943Y-15195888D01*
X7824943Y-15195888D02*
X7815420Y-15157793D01*
X7815420Y-15157793D02*
X7815420Y-15110174D01*
X7815420Y-15110174D02*
X7824943Y-15072079D01*
X7824943Y-15072079D02*
X7834467Y-15053031D01*
X7834467Y-15053031D02*
X7843991Y-15043508D01*
X7843991Y-15043508D02*
X7863039Y-15033984D01*
X8015420Y-15233984D02*
X8015420Y-15100650D01*
X8015420Y-15119698D02*
X8024943Y-15110174D01*
X8024943Y-15110174D02*
X8043991Y-15100650D01*
X8043991Y-15100650D02*
X8072563Y-15100650D01*
X8072563Y-15100650D02*
X8091610Y-15110174D01*
X8091610Y-15110174D02*
X8101134Y-15129222D01*
X8101134Y-15129222D02*
X8101134Y-15233984D01*
X8101134Y-15129222D02*
X8110658Y-15110174D01*
X8110658Y-15110174D02*
X8129705Y-15100650D01*
X8129705Y-15100650D02*
X8158277Y-15100650D01*
X8158277Y-15100650D02*
X8177324Y-15110174D01*
X8177324Y-15110174D02*
X8186848Y-15129222D01*
X8186848Y-15129222D02*
X8186848Y-15233984D01*
X8282086Y-15233984D02*
X8282086Y-15100650D01*
X8282086Y-15119698D02*
X8291610Y-15110174D01*
X8291610Y-15110174D02*
X8310658Y-15100650D01*
X8310658Y-15100650D02*
X8339229Y-15100650D01*
X8339229Y-15100650D02*
X8358277Y-15110174D01*
X8358277Y-15110174D02*
X8367801Y-15129222D01*
X8367801Y-15129222D02*
X8367801Y-15233984D01*
X8367801Y-15129222D02*
X8377324Y-15110174D01*
X8377324Y-15110174D02*
X8396372Y-15100650D01*
X8396372Y-15100650D02*
X8424944Y-15100650D01*
X8424944Y-15100650D02*
X8443991Y-15110174D01*
X8443991Y-15110174D02*
X8453515Y-15129222D01*
X8453515Y-15129222D02*
X8453515Y-15233984D01*
X8843991Y-15024460D02*
X8672563Y-15281603D01*
X9101134Y-15033984D02*
X9120182Y-15033984D01*
X9120182Y-15033984D02*
X9139229Y-15043508D01*
X9139229Y-15043508D02*
X9148753Y-15053031D01*
X9148753Y-15053031D02*
X9158277Y-15072079D01*
X9158277Y-15072079D02*
X9167801Y-15110174D01*
X9167801Y-15110174D02*
X9167801Y-15157793D01*
X9167801Y-15157793D02*
X9158277Y-15195888D01*
X9158277Y-15195888D02*
X9148753Y-15214936D01*
X9148753Y-15214936D02*
X9139229Y-15224460D01*
X9139229Y-15224460D02*
X9120182Y-15233984D01*
X9120182Y-15233984D02*
X9101134Y-15233984D01*
X9101134Y-15233984D02*
X9082087Y-15224460D01*
X9082087Y-15224460D02*
X9072563Y-15214936D01*
X9072563Y-15214936D02*
X9063039Y-15195888D01*
X9063039Y-15195888D02*
X9053515Y-15157793D01*
X9053515Y-15157793D02*
X9053515Y-15110174D01*
X9053515Y-15110174D02*
X9063039Y-15072079D01*
X9063039Y-15072079D02*
X9072563Y-15053031D01*
X9072563Y-15053031D02*
X9082087Y-15043508D01*
X9082087Y-15043508D02*
X9101134Y-15033984D01*
X9253515Y-15214936D02*
X9263039Y-15224460D01*
X9263039Y-15224460D02*
X9253515Y-15233984D01*
X9253515Y-15233984D02*
X9243991Y-15224460D01*
X9243991Y-15224460D02*
X9253515Y-15214936D01*
X9253515Y-15214936D02*
X9253515Y-15233984D01*
X9453515Y-15233984D02*
X9339229Y-15233984D01*
X9396372Y-15233984D02*
X9396372Y-15033984D01*
X9396372Y-15033984D02*
X9377325Y-15062555D01*
X9377325Y-15062555D02*
X9358277Y-15081603D01*
X9358277Y-15081603D02*
X9339229Y-15091127D01*
X9634468Y-15033984D02*
X9539229Y-15033984D01*
X9539229Y-15033984D02*
X9529706Y-15129222D01*
X9529706Y-15129222D02*
X9539229Y-15119698D01*
X9539229Y-15119698D02*
X9558277Y-15110174D01*
X9558277Y-15110174D02*
X9605896Y-15110174D01*
X9605896Y-15110174D02*
X9624944Y-15119698D01*
X9624944Y-15119698D02*
X9634468Y-15129222D01*
X9634468Y-15129222D02*
X9643991Y-15148269D01*
X9643991Y-15148269D02*
X9643991Y-15195888D01*
X9643991Y-15195888D02*
X9634468Y-15214936D01*
X9634468Y-15214936D02*
X9624944Y-15224460D01*
X9624944Y-15224460D02*
X9605896Y-15233984D01*
X9605896Y-15233984D02*
X9558277Y-15233984D01*
X9558277Y-15233984D02*
X9539229Y-15224460D01*
X9539229Y-15224460D02*
X9529706Y-15214936D01*
X9710658Y-15033984D02*
X9843991Y-15033984D01*
X9843991Y-15033984D02*
X9758277Y-15233984D01*
X10015420Y-15033984D02*
X9920182Y-15033984D01*
X9920182Y-15033984D02*
X9910658Y-15129222D01*
X9910658Y-15129222D02*
X9920182Y-15119698D01*
X9920182Y-15119698D02*
X9939229Y-15110174D01*
X9939229Y-15110174D02*
X9986849Y-15110174D01*
X9986849Y-15110174D02*
X10005896Y-15119698D01*
X10005896Y-15119698D02*
X10015420Y-15129222D01*
X10015420Y-15129222D02*
X10024944Y-15148269D01*
X10024944Y-15148269D02*
X10024944Y-15195888D01*
X10024944Y-15195888D02*
X10015420Y-15214936D01*
X10015420Y-15214936D02*
X10005896Y-15224460D01*
X10005896Y-15224460D02*
X9986849Y-15233984D01*
X9986849Y-15233984D02*
X9939229Y-15233984D01*
X9939229Y-15233984D02*
X9920182Y-15224460D01*
X9920182Y-15224460D02*
X9910658Y-15214936D01*
X10101134Y-15033984D02*
X10101134Y-15072079D01*
X10177325Y-15033984D02*
X10177325Y-15072079D01*
X10472563Y-15310174D02*
X10463039Y-15300650D01*
X10463039Y-15300650D02*
X10443991Y-15272079D01*
X10443991Y-15272079D02*
X10434468Y-15253031D01*
X10434468Y-15253031D02*
X10424944Y-15224460D01*
X10424944Y-15224460D02*
X10415420Y-15176841D01*
X10415420Y-15176841D02*
X10415420Y-15138746D01*
X10415420Y-15138746D02*
X10424944Y-15091127D01*
X10424944Y-15091127D02*
X10434468Y-15062555D01*
X10434468Y-15062555D02*
X10443991Y-15043508D01*
X10443991Y-15043508D02*
X10463039Y-15014936D01*
X10463039Y-15014936D02*
X10472563Y-15005412D01*
X10653515Y-15233984D02*
X10539230Y-15233984D01*
X10596372Y-15233984D02*
X10596372Y-15033984D01*
X10596372Y-15033984D02*
X10577325Y-15062555D01*
X10577325Y-15062555D02*
X10558277Y-15081603D01*
X10558277Y-15081603D02*
X10539230Y-15091127D01*
X10824944Y-15033984D02*
X10786849Y-15033984D01*
X10786849Y-15033984D02*
X10767801Y-15043508D01*
X10767801Y-15043508D02*
X10758277Y-15053031D01*
X10758277Y-15053031D02*
X10739230Y-15081603D01*
X10739230Y-15081603D02*
X10729706Y-15119698D01*
X10729706Y-15119698D02*
X10729706Y-15195888D01*
X10729706Y-15195888D02*
X10739230Y-15214936D01*
X10739230Y-15214936D02*
X10748753Y-15224460D01*
X10748753Y-15224460D02*
X10767801Y-15233984D01*
X10767801Y-15233984D02*
X10805896Y-15233984D01*
X10805896Y-15233984D02*
X10824944Y-15224460D01*
X10824944Y-15224460D02*
X10834468Y-15214936D01*
X10834468Y-15214936D02*
X10843991Y-15195888D01*
X10843991Y-15195888D02*
X10843991Y-15148269D01*
X10843991Y-15148269D02*
X10834468Y-15129222D01*
X10834468Y-15129222D02*
X10824944Y-15119698D01*
X10824944Y-15119698D02*
X10805896Y-15110174D01*
X10805896Y-15110174D02*
X10767801Y-15110174D01*
X10767801Y-15110174D02*
X10748753Y-15119698D01*
X10748753Y-15119698D02*
X10739230Y-15129222D01*
X10739230Y-15129222D02*
X10729706Y-15148269D01*
X11082087Y-15233984D02*
X11082087Y-15033984D01*
X11167801Y-15233984D02*
X11167801Y-15129222D01*
X11167801Y-15129222D02*
X11158277Y-15110174D01*
X11158277Y-15110174D02*
X11139230Y-15100650D01*
X11139230Y-15100650D02*
X11110658Y-15100650D01*
X11110658Y-15100650D02*
X11091611Y-15110174D01*
X11091611Y-15110174D02*
X11082087Y-15119698D01*
X11291610Y-15233984D02*
X11272563Y-15224460D01*
X11272563Y-15224460D02*
X11263039Y-15214936D01*
X11263039Y-15214936D02*
X11253515Y-15195888D01*
X11253515Y-15195888D02*
X11253515Y-15138746D01*
X11253515Y-15138746D02*
X11263039Y-15119698D01*
X11263039Y-15119698D02*
X11272563Y-15110174D01*
X11272563Y-15110174D02*
X11291610Y-15100650D01*
X11291610Y-15100650D02*
X11320182Y-15100650D01*
X11320182Y-15100650D02*
X11339230Y-15110174D01*
X11339230Y-15110174D02*
X11348753Y-15119698D01*
X11348753Y-15119698D02*
X11358277Y-15138746D01*
X11358277Y-15138746D02*
X11358277Y-15195888D01*
X11358277Y-15195888D02*
X11348753Y-15214936D01*
X11348753Y-15214936D02*
X11339230Y-15224460D01*
X11339230Y-15224460D02*
X11320182Y-15233984D01*
X11320182Y-15233984D02*
X11291610Y-15233984D01*
X11472563Y-15233984D02*
X11453515Y-15224460D01*
X11453515Y-15224460D02*
X11443991Y-15205412D01*
X11443991Y-15205412D02*
X11443991Y-15033984D01*
X11624944Y-15224460D02*
X11605896Y-15233984D01*
X11605896Y-15233984D02*
X11567801Y-15233984D01*
X11567801Y-15233984D02*
X11548753Y-15224460D01*
X11548753Y-15224460D02*
X11539230Y-15205412D01*
X11539230Y-15205412D02*
X11539230Y-15129222D01*
X11539230Y-15129222D02*
X11548753Y-15110174D01*
X11548753Y-15110174D02*
X11567801Y-15100650D01*
X11567801Y-15100650D02*
X11605896Y-15100650D01*
X11605896Y-15100650D02*
X11624944Y-15110174D01*
X11624944Y-15110174D02*
X11634468Y-15129222D01*
X11634468Y-15129222D02*
X11634468Y-15148269D01*
X11634468Y-15148269D02*
X11539230Y-15167317D01*
X11710658Y-15224460D02*
X11729706Y-15233984D01*
X11729706Y-15233984D02*
X11767801Y-15233984D01*
X11767801Y-15233984D02*
X11786849Y-15224460D01*
X11786849Y-15224460D02*
X11796372Y-15205412D01*
X11796372Y-15205412D02*
X11796372Y-15195888D01*
X11796372Y-15195888D02*
X11786849Y-15176841D01*
X11786849Y-15176841D02*
X11767801Y-15167317D01*
X11767801Y-15167317D02*
X11739230Y-15167317D01*
X11739230Y-15167317D02*
X11720182Y-15157793D01*
X11720182Y-15157793D02*
X11710658Y-15138746D01*
X11710658Y-15138746D02*
X11710658Y-15129222D01*
X11710658Y-15129222D02*
X11720182Y-15110174D01*
X11720182Y-15110174D02*
X11739230Y-15100650D01*
X11739230Y-15100650D02*
X11767801Y-15100650D01*
X11767801Y-15100650D02*
X11786849Y-15110174D01*
X11863039Y-15310174D02*
X11872563Y-15300650D01*
X11872563Y-15300650D02*
X11891611Y-15272079D01*
X11891611Y-15272079D02*
X11901134Y-15253031D01*
X11901134Y-15253031D02*
X11910658Y-15224460D01*
X11910658Y-15224460D02*
X11920182Y-15176841D01*
X11920182Y-15176841D02*
X11920182Y-15138746D01*
X11920182Y-15138746D02*
X11910658Y-15091127D01*
X11910658Y-15091127D02*
X11901134Y-15062555D01*
X11901134Y-15062555D02*
X11891611Y-15043508D01*
X11891611Y-15043508D02*
X11872563Y-15014936D01*
X11872563Y-15014936D02*
X11863039Y-15005412D01*
X12224944Y-15310174D02*
X12215420Y-15300650D01*
X12215420Y-15300650D02*
X12196372Y-15272079D01*
X12196372Y-15272079D02*
X12186849Y-15253031D01*
X12186849Y-15253031D02*
X12177325Y-15224460D01*
X12177325Y-15224460D02*
X12167801Y-15176841D01*
X12167801Y-15176841D02*
X12167801Y-15138746D01*
X12167801Y-15138746D02*
X12177325Y-15091127D01*
X12177325Y-15091127D02*
X12186849Y-15062555D01*
X12186849Y-15062555D02*
X12196372Y-15043508D01*
X12196372Y-15043508D02*
X12215420Y-15014936D01*
X12215420Y-15014936D02*
X12224944Y-15005412D01*
X12301134Y-15100650D02*
X12301134Y-15233984D01*
X12301134Y-15119698D02*
X12310658Y-15110174D01*
X12310658Y-15110174D02*
X12329706Y-15100650D01*
X12329706Y-15100650D02*
X12358277Y-15100650D01*
X12358277Y-15100650D02*
X12377325Y-15110174D01*
X12377325Y-15110174D02*
X12386849Y-15129222D01*
X12386849Y-15129222D02*
X12386849Y-15233984D01*
X12510658Y-15233984D02*
X12491611Y-15224460D01*
X12491611Y-15224460D02*
X12482087Y-15214936D01*
X12482087Y-15214936D02*
X12472563Y-15195888D01*
X12472563Y-15195888D02*
X12472563Y-15138746D01*
X12472563Y-15138746D02*
X12482087Y-15119698D01*
X12482087Y-15119698D02*
X12491611Y-15110174D01*
X12491611Y-15110174D02*
X12510658Y-15100650D01*
X12510658Y-15100650D02*
X12539230Y-15100650D01*
X12539230Y-15100650D02*
X12558277Y-15110174D01*
X12558277Y-15110174D02*
X12567801Y-15119698D01*
X12567801Y-15119698D02*
X12577325Y-15138746D01*
X12577325Y-15138746D02*
X12577325Y-15195888D01*
X12577325Y-15195888D02*
X12567801Y-15214936D01*
X12567801Y-15214936D02*
X12558277Y-15224460D01*
X12558277Y-15224460D02*
X12539230Y-15233984D01*
X12539230Y-15233984D02*
X12510658Y-15233984D01*
X12634468Y-15100650D02*
X12710658Y-15100650D01*
X12663039Y-15033984D02*
X12663039Y-15205412D01*
X12663039Y-15205412D02*
X12672563Y-15224460D01*
X12672563Y-15224460D02*
X12691611Y-15233984D01*
X12691611Y-15233984D02*
X12710658Y-15233984D01*
X12929706Y-15100650D02*
X12929706Y-15300650D01*
X12929706Y-15110174D02*
X12948753Y-15100650D01*
X12948753Y-15100650D02*
X12986849Y-15100650D01*
X12986849Y-15100650D02*
X13005896Y-15110174D01*
X13005896Y-15110174D02*
X13015420Y-15119698D01*
X13015420Y-15119698D02*
X13024944Y-15138746D01*
X13024944Y-15138746D02*
X13024944Y-15195888D01*
X13024944Y-15195888D02*
X13015420Y-15214936D01*
X13015420Y-15214936D02*
X13005896Y-15224460D01*
X13005896Y-15224460D02*
X12986849Y-15233984D01*
X12986849Y-15233984D02*
X12948753Y-15233984D01*
X12948753Y-15233984D02*
X12929706Y-15224460D01*
X13139230Y-15233984D02*
X13120182Y-15224460D01*
X13120182Y-15224460D02*
X13110658Y-15205412D01*
X13110658Y-15205412D02*
X13110658Y-15033984D01*
X13301134Y-15233984D02*
X13301134Y-15129222D01*
X13301134Y-15129222D02*
X13291611Y-15110174D01*
X13291611Y-15110174D02*
X13272563Y-15100650D01*
X13272563Y-15100650D02*
X13234468Y-15100650D01*
X13234468Y-15100650D02*
X13215420Y-15110174D01*
X13301134Y-15224460D02*
X13282087Y-15233984D01*
X13282087Y-15233984D02*
X13234468Y-15233984D01*
X13234468Y-15233984D02*
X13215420Y-15224460D01*
X13215420Y-15224460D02*
X13205896Y-15205412D01*
X13205896Y-15205412D02*
X13205896Y-15186365D01*
X13205896Y-15186365D02*
X13215420Y-15167317D01*
X13215420Y-15167317D02*
X13234468Y-15157793D01*
X13234468Y-15157793D02*
X13282087Y-15157793D01*
X13282087Y-15157793D02*
X13301134Y-15148269D01*
X13367801Y-15100650D02*
X13443992Y-15100650D01*
X13396373Y-15033984D02*
X13396373Y-15205412D01*
X13396373Y-15205412D02*
X13405896Y-15224460D01*
X13405896Y-15224460D02*
X13424944Y-15233984D01*
X13424944Y-15233984D02*
X13443992Y-15233984D01*
X13586849Y-15224460D02*
X13567801Y-15233984D01*
X13567801Y-15233984D02*
X13529706Y-15233984D01*
X13529706Y-15233984D02*
X13510658Y-15224460D01*
X13510658Y-15224460D02*
X13501134Y-15205412D01*
X13501134Y-15205412D02*
X13501134Y-15129222D01*
X13501134Y-15129222D02*
X13510658Y-15110174D01*
X13510658Y-15110174D02*
X13529706Y-15100650D01*
X13529706Y-15100650D02*
X13567801Y-15100650D01*
X13567801Y-15100650D02*
X13586849Y-15110174D01*
X13586849Y-15110174D02*
X13596373Y-15129222D01*
X13596373Y-15129222D02*
X13596373Y-15148269D01*
X13596373Y-15148269D02*
X13501134Y-15167317D01*
X13767801Y-15233984D02*
X13767801Y-15033984D01*
X13767801Y-15224460D02*
X13748754Y-15233984D01*
X13748754Y-15233984D02*
X13710658Y-15233984D01*
X13710658Y-15233984D02*
X13691611Y-15224460D01*
X13691611Y-15224460D02*
X13682087Y-15214936D01*
X13682087Y-15214936D02*
X13672563Y-15195888D01*
X13672563Y-15195888D02*
X13672563Y-15138746D01*
X13672563Y-15138746D02*
X13682087Y-15119698D01*
X13682087Y-15119698D02*
X13691611Y-15110174D01*
X13691611Y-15110174D02*
X13710658Y-15100650D01*
X13710658Y-15100650D02*
X13748754Y-15100650D01*
X13748754Y-15100650D02*
X13767801Y-15110174D01*
X13843992Y-15310174D02*
X13853515Y-15300650D01*
X13853515Y-15300650D02*
X13872563Y-15272079D01*
X13872563Y-15272079D02*
X13882087Y-15253031D01*
X13882087Y-15253031D02*
X13891611Y-15224460D01*
X13891611Y-15224460D02*
X13901134Y-15176841D01*
X13901134Y-15176841D02*
X13901134Y-15138746D01*
X13901134Y-15138746D02*
X13891611Y-15091127D01*
X13891611Y-15091127D02*
X13882087Y-15062555D01*
X13882087Y-15062555D02*
X13872563Y-15043508D01*
X13872563Y-15043508D02*
X13853515Y-15014936D01*
X13853515Y-15014936D02*
X13843992Y-15005412D01*
M02*
