%TF.GenerationSoftware,KiCad,Pcbnew,9.0.0*%
%TF.CreationDate,2025-03-25T02:12:50-05:00*%
%TF.ProjectId,freeMacro_rev_1,66726565-4d61-4637-926f-5f7265765f31,rev?*%
%TF.SameCoordinates,Original*%
%TF.FileFunction,Drillmap*%
%TF.FilePolarity,Positive*%
%FSLAX45Y45*%
G04 Gerber Fmt 4.5, Leading zero omitted, Abs format (unit mm)*
G04 Created by KiCad (PCBNEW 9.0.0) date 2025-03-25 02:12:50*
%MOMM*%
%LPD*%
G01*
G04 APERTURE LIST*
%ADD10C,0.050000*%
%ADD11C,0.200000*%
%ADD12C,0.100000*%
%ADD13C,0.150000*%
G04 APERTURE END LIST*
D10*
X6900000Y-5300000D02*
X16900000Y-5300000D01*
X16900000Y-14500000D01*
X6900000Y-14500000D01*
X6900000Y-5300000D01*
D11*
D12*
X7185000Y-9535000D02*
X7215000Y-9565000D01*
X7215000Y-9535000D02*
X7185000Y-9565000D01*
X7255000Y-9855000D02*
X7285000Y-9885000D01*
X7285000Y-9855000D02*
X7255000Y-9885000D01*
X7428750Y-6488750D02*
X7458750Y-6518750D01*
X7458750Y-6488750D02*
X7428750Y-6518750D01*
X7485000Y-10015000D02*
X7515000Y-10045000D01*
X7515000Y-10015000D02*
X7485000Y-10045000D01*
X7505000Y-7055000D02*
X7535000Y-7085000D01*
X7535000Y-7055000D02*
X7505000Y-7085000D01*
X7675000Y-9685000D02*
X7705000Y-9715000D01*
X7705000Y-9685000D02*
X7675000Y-9715000D01*
X7785000Y-6615000D02*
X7815000Y-6645000D01*
X7815000Y-6615000D02*
X7785000Y-6645000D01*
X7805000Y-6975000D02*
X7835000Y-7005000D01*
X7835000Y-6975000D02*
X7805000Y-7005000D01*
X7825000Y-9025000D02*
X7855000Y-9055000D01*
X7855000Y-9025000D02*
X7825000Y-9055000D01*
X7935000Y-7065000D02*
X7965000Y-7095000D01*
X7965000Y-7065000D02*
X7935000Y-7095000D01*
X7965000Y-9025000D02*
X7995000Y-9055000D01*
X7995000Y-9025000D02*
X7965000Y-9055000D01*
X8075000Y-6025000D02*
X8105000Y-6055000D01*
X8105000Y-6025000D02*
X8075000Y-6055000D01*
X8095000Y-9025000D02*
X8125000Y-9055000D01*
X8125000Y-9025000D02*
X8095000Y-9055000D01*
X8155000Y-6485000D02*
X8185000Y-6515000D01*
X8185000Y-6485000D02*
X8155000Y-6515000D01*
X8195000Y-6025000D02*
X8225000Y-6055000D01*
X8225000Y-6025000D02*
X8195000Y-6055000D01*
X8255000Y-7805000D02*
X8285000Y-7835000D01*
X8285000Y-7805000D02*
X8255000Y-7835000D01*
X8315000Y-5465000D02*
X8345000Y-5495000D01*
X8345000Y-5465000D02*
X8315000Y-5495000D01*
X8405000Y-6565000D02*
X8435000Y-6595000D01*
X8435000Y-6565000D02*
X8405000Y-6595000D01*
X8405000Y-9955000D02*
X8435000Y-9985000D01*
X8435000Y-9955000D02*
X8405000Y-9985000D01*
X8455000Y-7165000D02*
X8485000Y-7195000D01*
X8485000Y-7165000D02*
X8455000Y-7195000D01*
X8505000Y-9675000D02*
X8535000Y-9705000D01*
X8535000Y-9675000D02*
X8505000Y-9705000D01*
X8535000Y-6965000D02*
X8565000Y-6995000D01*
X8565000Y-6965000D02*
X8535000Y-6995000D01*
X8545000Y-7345000D02*
X8575000Y-7375000D01*
X8575000Y-7345000D02*
X8545000Y-7375000D01*
X8615000Y-9535000D02*
X8645000Y-9565000D01*
X8645000Y-9535000D02*
X8615000Y-9565000D01*
X8655000Y-8745000D02*
X8685000Y-8775000D01*
X8685000Y-8745000D02*
X8655000Y-8775000D01*
X8735000Y-6805000D02*
X8765000Y-6835000D01*
X8765000Y-6805000D02*
X8735000Y-6835000D01*
X8785000Y-5855000D02*
X8815000Y-5885000D01*
X8815000Y-5855000D02*
X8785000Y-5885000D01*
X8785000Y-7165000D02*
X8815000Y-7195000D01*
X8815000Y-7165000D02*
X8785000Y-7195000D01*
X8795000Y-8885000D02*
X8825000Y-8915000D01*
X8825000Y-8885000D02*
X8795000Y-8915000D01*
X8825000Y-10455000D02*
X8855000Y-10485000D01*
X8855000Y-10455000D02*
X8825000Y-10485000D01*
X8895000Y-9085000D02*
X8925000Y-9115000D01*
X8925000Y-9085000D02*
X8895000Y-9115000D01*
X8945000Y-13745000D02*
X8975000Y-13775000D01*
X8975000Y-13745000D02*
X8945000Y-13775000D01*
X8955000Y-10915000D02*
X8985000Y-10945000D01*
X8985000Y-10915000D02*
X8955000Y-10945000D01*
X8965000Y-9805000D02*
X8995000Y-9835000D01*
X8995000Y-9805000D02*
X8965000Y-9835000D01*
X9015000Y-7045000D02*
X9045000Y-7075000D01*
X9045000Y-7045000D02*
X9015000Y-7075000D01*
X9025000Y-12875000D02*
X9055000Y-12905000D01*
X9055000Y-12875000D02*
X9025000Y-12905000D01*
X9135000Y-11635000D02*
X9165000Y-11665000D01*
X9165000Y-11635000D02*
X9135000Y-11665000D01*
X9175000Y-8385000D02*
X9205000Y-8415000D01*
X9205000Y-8385000D02*
X9175000Y-8415000D01*
X9225000Y-9095000D02*
X9255000Y-9125000D01*
X9255000Y-9095000D02*
X9225000Y-9125000D01*
X9225000Y-12355000D02*
X9255000Y-12385000D01*
X9255000Y-12355000D02*
X9225000Y-12385000D01*
X9235000Y-10765000D02*
X9265000Y-10795000D01*
X9265000Y-10765000D02*
X9235000Y-10795000D01*
X9295000Y-11955000D02*
X9325000Y-11985000D01*
X9325000Y-11955000D02*
X9295000Y-11985000D01*
X9505000Y-7145000D02*
X9535000Y-7175000D01*
X9535000Y-7145000D02*
X9505000Y-7175000D01*
X9715000Y-6685000D02*
X9745000Y-6715000D01*
X9745000Y-6685000D02*
X9715000Y-6715000D01*
X9825000Y-10235000D02*
X9855000Y-10265000D01*
X9855000Y-10235000D02*
X9825000Y-10265000D01*
X9855000Y-8385000D02*
X9885000Y-8415000D01*
X9885000Y-8385000D02*
X9855000Y-8415000D01*
X10205000Y-6725000D02*
X10235000Y-6755000D01*
X10235000Y-6725000D02*
X10205000Y-6755000D01*
X10255000Y-10635000D02*
X10285000Y-10665000D01*
X10285000Y-10635000D02*
X10255000Y-10665000D01*
X10275000Y-7745000D02*
X10305000Y-7775000D01*
X10305000Y-7745000D02*
X10275000Y-7775000D01*
X10305000Y-8355000D02*
X10335000Y-8385000D01*
X10335000Y-8355000D02*
X10305000Y-8385000D01*
X10305000Y-8755000D02*
X10335000Y-8785000D01*
X10335000Y-8755000D02*
X10305000Y-8785000D01*
X10375000Y-6395000D02*
X10405000Y-6425000D01*
X10405000Y-6395000D02*
X10375000Y-6425000D01*
X10445000Y-8115000D02*
X10475000Y-8145000D01*
X10475000Y-8115000D02*
X10445000Y-8145000D01*
X10445000Y-12795000D02*
X10475000Y-12825000D01*
X10475000Y-12795000D02*
X10445000Y-12825000D01*
X10455000Y-9815000D02*
X10485000Y-9845000D01*
X10485000Y-9815000D02*
X10455000Y-9845000D01*
X10455000Y-11725000D02*
X10485000Y-11755000D01*
X10485000Y-11725000D02*
X10455000Y-11755000D01*
X10585000Y-8695000D02*
X10615000Y-8725000D01*
X10615000Y-8695000D02*
X10585000Y-8725000D01*
X10595000Y-8395000D02*
X10625000Y-8425000D01*
X10625000Y-8395000D02*
X10595000Y-8425000D01*
X10635000Y-6895000D02*
X10665000Y-6925000D01*
X10665000Y-6895000D02*
X10635000Y-6925000D01*
X10665000Y-7515000D02*
X10695000Y-7545000D01*
X10695000Y-7515000D02*
X10665000Y-7545000D01*
X10675000Y-8405000D02*
X10705000Y-8435000D01*
X10705000Y-8405000D02*
X10675000Y-8435000D01*
X10675000Y-8675000D02*
X10705000Y-8705000D01*
X10705000Y-8675000D02*
X10675000Y-8705000D01*
X10695000Y-7275000D02*
X10725000Y-7305000D01*
X10725000Y-7275000D02*
X10695000Y-7305000D01*
X10715000Y-9735000D02*
X10745000Y-9765000D01*
X10745000Y-9735000D02*
X10715000Y-9765000D01*
X10785000Y-13995000D02*
X10815000Y-14025000D01*
X10815000Y-13995000D02*
X10785000Y-14025000D01*
X10805000Y-11645000D02*
X10835000Y-11675000D01*
X10835000Y-11645000D02*
X10805000Y-11675000D01*
X10895000Y-8115000D02*
X10925000Y-8145000D01*
X10925000Y-8115000D02*
X10895000Y-8145000D01*
X10935000Y-9845000D02*
X10965000Y-9875000D01*
X10965000Y-9845000D02*
X10935000Y-9875000D01*
X10935000Y-10065000D02*
X10965000Y-10095000D01*
X10965000Y-10065000D02*
X10935000Y-10095000D01*
X10945000Y-7055000D02*
X10975000Y-7085000D01*
X10975000Y-7055000D02*
X10945000Y-7085000D01*
X10945000Y-10955000D02*
X10975000Y-10985000D01*
X10975000Y-10955000D02*
X10945000Y-10985000D01*
X10955000Y-8985000D02*
X10985000Y-9015000D01*
X10985000Y-8985000D02*
X10955000Y-9015000D01*
X10955000Y-12875000D02*
X10985000Y-12905000D01*
X10985000Y-12875000D02*
X10955000Y-12905000D01*
X11105000Y-8295000D02*
X11135000Y-8325000D01*
X11135000Y-8295000D02*
X11105000Y-8325000D01*
X11115000Y-9775000D02*
X11145000Y-9805000D01*
X11145000Y-9775000D02*
X11115000Y-9805000D01*
X11145000Y-8555000D02*
X11175000Y-8585000D01*
X11175000Y-8555000D02*
X11145000Y-8585000D01*
X11665000Y-5565000D02*
X11695000Y-5595000D01*
X11695000Y-5565000D02*
X11665000Y-5595000D01*
X12115000Y-6185000D02*
X12145000Y-6215000D01*
X12145000Y-6185000D02*
X12115000Y-6215000D01*
X12375000Y-9815000D02*
X12405000Y-9845000D01*
X12405000Y-9815000D02*
X12375000Y-9845000D01*
X12375000Y-11735000D02*
X12405000Y-11765000D01*
X12405000Y-11735000D02*
X12375000Y-11765000D01*
X12385000Y-6845000D02*
X12415000Y-6875000D01*
X12415000Y-6845000D02*
X12385000Y-6875000D01*
X12465000Y-7315000D02*
X12495000Y-7345000D01*
X12495000Y-7315000D02*
X12465000Y-7345000D01*
X12525000Y-7515000D02*
X12555000Y-7545000D01*
X12555000Y-7515000D02*
X12525000Y-7545000D01*
X12565000Y-6865000D02*
X12595000Y-6895000D01*
X12595000Y-6865000D02*
X12565000Y-6895000D01*
X12675000Y-9755000D02*
X12705000Y-9785000D01*
X12705000Y-9755000D02*
X12675000Y-9785000D01*
X12745000Y-11625000D02*
X12775000Y-11655000D01*
X12775000Y-11625000D02*
X12745000Y-11655000D01*
X12775000Y-7775000D02*
X12805000Y-7805000D01*
X12805000Y-7775000D02*
X12775000Y-7805000D01*
X12785000Y-9975000D02*
X12815000Y-10005000D01*
X12815000Y-9975000D02*
X12785000Y-10005000D01*
X12785000Y-14255000D02*
X12815000Y-14285000D01*
X12815000Y-14255000D02*
X12785000Y-14285000D01*
X12875000Y-7095000D02*
X12905000Y-7125000D01*
X12905000Y-7095000D02*
X12875000Y-7125000D01*
X12875000Y-8995000D02*
X12905000Y-9025000D01*
X12905000Y-8995000D02*
X12875000Y-9025000D01*
X12875000Y-10915000D02*
X12905000Y-10945000D01*
X12905000Y-10915000D02*
X12875000Y-10945000D01*
X12875000Y-12865000D02*
X12905000Y-12895000D01*
X12905000Y-12865000D02*
X12875000Y-12895000D01*
X12895000Y-8045000D02*
X12925000Y-8075000D01*
X12925000Y-8045000D02*
X12895000Y-8075000D01*
X13045000Y-10245000D02*
X13075000Y-10275000D01*
X13075000Y-10245000D02*
X13045000Y-10275000D01*
X13225000Y-8085000D02*
X13255000Y-8115000D01*
X13255000Y-8085000D02*
X13225000Y-8115000D01*
X14095000Y-6925000D02*
X14125000Y-6955000D01*
X14125000Y-6925000D02*
X14095000Y-6955000D01*
X14265000Y-7765000D02*
X14295000Y-7795000D01*
X14295000Y-7765000D02*
X14265000Y-7795000D01*
X14305000Y-11735000D02*
X14335000Y-11765000D01*
X14335000Y-11735000D02*
X14305000Y-11765000D01*
X14315000Y-9795000D02*
X14345000Y-9825000D01*
X14345000Y-9795000D02*
X14315000Y-9825000D01*
X14485000Y-7615000D02*
X14515000Y-7645000D01*
X14515000Y-7615000D02*
X14485000Y-7645000D01*
X14495000Y-11315000D02*
X14525000Y-11345000D01*
X14525000Y-11315000D02*
X14495000Y-11345000D01*
X14585000Y-9615000D02*
X14615000Y-9645000D01*
X14615000Y-9615000D02*
X14585000Y-9645000D01*
X14655000Y-14355000D02*
X14685000Y-14385000D01*
X14685000Y-14355000D02*
X14655000Y-14385000D01*
X14795000Y-7065000D02*
X14825000Y-7095000D01*
X14825000Y-7065000D02*
X14795000Y-7095000D01*
X14795000Y-10905000D02*
X14825000Y-10935000D01*
X14825000Y-10905000D02*
X14795000Y-10935000D01*
X14805000Y-8975000D02*
X14835000Y-9005000D01*
X14835000Y-8975000D02*
X14805000Y-9005000D01*
X14805000Y-12855000D02*
X14835000Y-12885000D01*
X14835000Y-12855000D02*
X14805000Y-12885000D01*
X7140000Y-11260000D02*
G75*
G02*
X7060000Y-11260000I-40000J0D01*
G01*
X7060000Y-11260000D02*
G75*
G02*
X7140000Y-11260000I40000J0D01*
G01*
X7140000Y-11514000D02*
G75*
G02*
X7060000Y-11514000I-40000J0D01*
G01*
X7060000Y-11514000D02*
G75*
G02*
X7140000Y-11514000I40000J0D01*
G01*
X7140000Y-11768000D02*
G75*
G02*
X7060000Y-11768000I-40000J0D01*
G01*
X7060000Y-11768000D02*
G75*
G02*
X7140000Y-11768000I40000J0D01*
G01*
X7140000Y-12022000D02*
G75*
G02*
X7060000Y-12022000I-40000J0D01*
G01*
X7060000Y-12022000D02*
G75*
G02*
X7140000Y-12022000I40000J0D01*
G01*
X7140000Y-12276000D02*
G75*
G02*
X7060000Y-12276000I-40000J0D01*
G01*
X7060000Y-12276000D02*
G75*
G02*
X7140000Y-12276000I40000J0D01*
G01*
X7140000Y-12530000D02*
G75*
G02*
X7060000Y-12530000I-40000J0D01*
G01*
X7060000Y-12530000D02*
G75*
G02*
X7140000Y-12530000I40000J0D01*
G01*
X7140000Y-12784000D02*
G75*
G02*
X7060000Y-12784000I-40000J0D01*
G01*
X7060000Y-12784000D02*
G75*
G02*
X7140000Y-12784000I40000J0D01*
G01*
X7140000Y-13038000D02*
G75*
G02*
X7060000Y-13038000I-40000J0D01*
G01*
X7060000Y-13038000D02*
G75*
G02*
X7140000Y-13038000I40000J0D01*
G01*
X7140000Y-13292000D02*
G75*
G02*
X7060000Y-13292000I-40000J0D01*
G01*
X7060000Y-13292000D02*
G75*
G02*
X7140000Y-13292000I40000J0D01*
G01*
X7140000Y-13546000D02*
G75*
G02*
X7060000Y-13546000I-40000J0D01*
G01*
X7060000Y-13546000D02*
G75*
G02*
X7140000Y-13546000I40000J0D01*
G01*
X7140000Y-13800000D02*
G75*
G02*
X7060000Y-13800000I-40000J0D01*
G01*
X7060000Y-13800000D02*
G75*
G02*
X7140000Y-13800000I40000J0D01*
G01*
X7140000Y-14054000D02*
G75*
G02*
X7060000Y-14054000I-40000J0D01*
G01*
X7060000Y-14054000D02*
G75*
G02*
X7140000Y-14054000I40000J0D01*
G01*
X8664000Y-11260000D02*
G75*
G02*
X8584000Y-11260000I-40000J0D01*
G01*
X8584000Y-11260000D02*
G75*
G02*
X8664000Y-11260000I40000J0D01*
G01*
X8664000Y-11514000D02*
G75*
G02*
X8584000Y-11514000I-40000J0D01*
G01*
X8584000Y-11514000D02*
G75*
G02*
X8664000Y-11514000I40000J0D01*
G01*
X8664000Y-11768000D02*
G75*
G02*
X8584000Y-11768000I-40000J0D01*
G01*
X8584000Y-11768000D02*
G75*
G02*
X8664000Y-11768000I40000J0D01*
G01*
X8664000Y-12022000D02*
G75*
G02*
X8584000Y-12022000I-40000J0D01*
G01*
X8584000Y-12022000D02*
G75*
G02*
X8664000Y-12022000I40000J0D01*
G01*
X8664000Y-12276000D02*
G75*
G02*
X8584000Y-12276000I-40000J0D01*
G01*
X8584000Y-12276000D02*
G75*
G02*
X8664000Y-12276000I40000J0D01*
G01*
X8664000Y-12530000D02*
G75*
G02*
X8584000Y-12530000I-40000J0D01*
G01*
X8584000Y-12530000D02*
G75*
G02*
X8664000Y-12530000I40000J0D01*
G01*
X8664000Y-12784000D02*
G75*
G02*
X8584000Y-12784000I-40000J0D01*
G01*
X8584000Y-12784000D02*
G75*
G02*
X8664000Y-12784000I40000J0D01*
G01*
X8664000Y-13038000D02*
G75*
G02*
X8584000Y-13038000I-40000J0D01*
G01*
X8584000Y-13038000D02*
G75*
G02*
X8664000Y-13038000I40000J0D01*
G01*
X8664000Y-13292000D02*
G75*
G02*
X8584000Y-13292000I-40000J0D01*
G01*
X8584000Y-13292000D02*
G75*
G02*
X8664000Y-13292000I40000J0D01*
G01*
X8664000Y-13546000D02*
G75*
G02*
X8584000Y-13546000I-40000J0D01*
G01*
X8584000Y-13546000D02*
G75*
G02*
X8664000Y-13546000I40000J0D01*
G01*
X8664000Y-13800000D02*
G75*
G02*
X8584000Y-13800000I-40000J0D01*
G01*
X8584000Y-13800000D02*
G75*
G02*
X8664000Y-13800000I40000J0D01*
G01*
X8664000Y-14054000D02*
G75*
G02*
X8584000Y-14054000I-40000J0D01*
G01*
X8584000Y-14054000D02*
G75*
G02*
X8664000Y-14054000I40000J0D01*
G01*
X9696000Y-7435000D02*
X9696000Y-7525000D01*
X9651000Y-7480000D02*
X9741000Y-7480000D01*
X9696000Y-9365000D02*
X9696000Y-9455000D01*
X9651000Y-9410000D02*
X9741000Y-9410000D01*
X9696000Y-11285000D02*
X9696000Y-11375000D01*
X9651000Y-11330000D02*
X9741000Y-11330000D01*
X9703500Y-13215000D02*
X9703500Y-13305000D01*
X9658500Y-13260000D02*
X9748500Y-13260000D01*
X9950000Y-7435000D02*
X9950000Y-7525000D01*
X9905000Y-7480000D02*
X9995000Y-7480000D01*
X9950000Y-9365000D02*
X9950000Y-9455000D01*
X9905000Y-9410000D02*
X9995000Y-9410000D01*
X9950000Y-11285000D02*
X9950000Y-11375000D01*
X9905000Y-11330000D02*
X9995000Y-11330000D01*
X9957500Y-13215000D02*
X9957500Y-13305000D01*
X9912500Y-13260000D02*
X10002500Y-13260000D01*
X11620000Y-13215000D02*
X11620000Y-13305000D01*
X11575000Y-13260000D02*
X11665000Y-13260000D01*
X11623500Y-7435000D02*
X11623500Y-7525000D01*
X11578500Y-7480000D02*
X11668500Y-7480000D01*
X11623500Y-9365000D02*
X11623500Y-9455000D01*
X11578500Y-9410000D02*
X11668500Y-9410000D01*
X11623500Y-11285000D02*
X11623500Y-11375000D01*
X11578500Y-11330000D02*
X11668500Y-11330000D01*
X11874000Y-13215000D02*
X11874000Y-13305000D01*
X11829000Y-13260000D02*
X11919000Y-13260000D01*
X11877500Y-7435000D02*
X11877500Y-7525000D01*
X11832500Y-7480000D02*
X11922500Y-7480000D01*
X11877500Y-9365000D02*
X11877500Y-9455000D01*
X11832500Y-9410000D02*
X11922500Y-9410000D01*
X11877500Y-11285000D02*
X11877500Y-11375000D01*
X11832500Y-11330000D02*
X11922500Y-11330000D01*
X13503500Y-13215000D02*
X13503500Y-13305000D01*
X13458500Y-13260000D02*
X13548500Y-13260000D01*
X13536000Y-9365000D02*
X13536000Y-9455000D01*
X13491000Y-9410000D02*
X13581000Y-9410000D01*
X13546000Y-7435000D02*
X13546000Y-7525000D01*
X13501000Y-7480000D02*
X13591000Y-7480000D01*
X13553500Y-11285000D02*
X13553500Y-11375000D01*
X13508500Y-11330000D02*
X13598500Y-11330000D01*
X13757500Y-13215000D02*
X13757500Y-13305000D01*
X13712500Y-13260000D02*
X13802500Y-13260000D01*
X13790000Y-9365000D02*
X13790000Y-9455000D01*
X13745000Y-9410000D02*
X13835000Y-9410000D01*
X13800000Y-7435000D02*
X13800000Y-7525000D01*
X13755000Y-7480000D02*
X13845000Y-7480000D01*
X13807500Y-11285000D02*
X13807500Y-11375000D01*
X13762500Y-11330000D02*
X13852500Y-11330000D01*
X15473500Y-11285000D02*
X15473500Y-11375000D01*
X15428500Y-11330000D02*
X15518500Y-11330000D01*
X15476000Y-7435000D02*
X15476000Y-7525000D01*
X15431000Y-7480000D02*
X15521000Y-7480000D01*
X15476000Y-9365000D02*
X15476000Y-9455000D01*
X15431000Y-9410000D02*
X15521000Y-9410000D01*
X15476000Y-13215000D02*
X15476000Y-13305000D01*
X15431000Y-13260000D02*
X15521000Y-13260000D01*
X15727500Y-11285000D02*
X15727500Y-11375000D01*
X15682500Y-11330000D02*
X15772500Y-11330000D01*
X15730000Y-7435000D02*
X15730000Y-7525000D01*
X15685000Y-7480000D02*
X15775000Y-7480000D01*
X15730000Y-9365000D02*
X15730000Y-9455000D01*
X15685000Y-9410000D02*
X15775000Y-9410000D01*
X15730000Y-13215000D02*
X15730000Y-13305000D01*
X15685000Y-13260000D02*
X15775000Y-13260000D01*
D13*
X9497034Y-6799033D02*
X9497034Y-6692966D01*
X9390967Y-6692966D01*
X9390967Y-6799033D01*
X9497034Y-6799033D01*
X9497034Y-8724034D02*
X9497034Y-8617967D01*
X9390967Y-8617967D01*
X9390967Y-8724034D01*
X9497034Y-8724034D01*
X9497034Y-10649034D02*
X9497034Y-10542967D01*
X9390967Y-10542967D01*
X9390967Y-10649034D01*
X9497034Y-10649034D01*
X9498034Y-12572033D02*
X9498034Y-12465966D01*
X9391967Y-12465966D01*
X9391967Y-12572033D01*
X9498034Y-12572033D01*
X10132034Y-6545033D02*
X10132034Y-6438966D01*
X10025967Y-6438966D01*
X10025967Y-6545033D01*
X10132034Y-6545033D01*
X10132034Y-8470034D02*
X10132034Y-8363966D01*
X10025967Y-8363966D01*
X10025967Y-8470034D01*
X10132034Y-8470034D01*
X10132034Y-10395034D02*
X10132034Y-10288967D01*
X10025967Y-10288967D01*
X10025967Y-10395034D01*
X10132034Y-10395034D01*
X10133034Y-12318033D02*
X10133034Y-12211966D01*
X10026967Y-12211966D01*
X10026967Y-12318033D01*
X10133034Y-12318033D01*
X11422033Y-6799033D02*
X11422033Y-6692966D01*
X11315966Y-6692966D01*
X11315966Y-6799033D01*
X11422033Y-6799033D01*
X11422033Y-8724034D02*
X11422033Y-8617967D01*
X11315966Y-8617967D01*
X11315966Y-8724034D01*
X11422033Y-8724034D01*
X11423033Y-10648034D02*
X11423033Y-10541967D01*
X11316966Y-10541967D01*
X11316966Y-10648034D01*
X11423033Y-10648034D01*
X11423033Y-12573033D02*
X11423033Y-12466966D01*
X11316966Y-12466966D01*
X11316966Y-12573033D01*
X11423033Y-12573033D01*
X12057033Y-6545033D02*
X12057033Y-6438966D01*
X11950966Y-6438966D01*
X11950966Y-6545033D01*
X12057033Y-6545033D01*
X12057033Y-8470034D02*
X12057033Y-8363966D01*
X11950966Y-8363966D01*
X11950966Y-8470034D01*
X12057033Y-8470034D01*
X12058033Y-10394034D02*
X12058033Y-10287967D01*
X11951966Y-10287967D01*
X11951966Y-10394034D01*
X12058033Y-10394034D01*
X12058033Y-12319033D02*
X12058033Y-12212966D01*
X11951966Y-12212966D01*
X11951966Y-12319033D01*
X12058033Y-12319033D01*
X13347033Y-6799033D02*
X13347033Y-6692966D01*
X13240966Y-6692966D01*
X13240966Y-6799033D01*
X13347033Y-6799033D01*
X13347033Y-8724034D02*
X13347033Y-8617967D01*
X13240966Y-8617967D01*
X13240966Y-8724034D01*
X13347033Y-8724034D01*
X13347033Y-10648034D02*
X13347033Y-10541967D01*
X13240966Y-10541967D01*
X13240966Y-10648034D01*
X13347033Y-10648034D01*
X13348033Y-12573033D02*
X13348033Y-12466966D01*
X13241966Y-12466966D01*
X13241966Y-12573033D01*
X13348033Y-12573033D01*
X13982033Y-6545033D02*
X13982033Y-6438966D01*
X13875966Y-6438966D01*
X13875966Y-6545033D01*
X13982033Y-6545033D01*
X13982033Y-8470034D02*
X13982033Y-8363966D01*
X13875966Y-8363966D01*
X13875966Y-8470034D01*
X13982033Y-8470034D01*
X13982033Y-10394034D02*
X13982033Y-10287967D01*
X13875966Y-10287967D01*
X13875966Y-10394034D01*
X13982033Y-10394034D01*
X13983033Y-12319033D02*
X13983033Y-12212966D01*
X13876966Y-12212966D01*
X13876966Y-12319033D01*
X13983033Y-12319033D01*
X15272033Y-6799033D02*
X15272033Y-6692966D01*
X15165966Y-6692966D01*
X15165966Y-6799033D01*
X15272033Y-6799033D01*
X15272033Y-8724034D02*
X15272033Y-8617967D01*
X15165966Y-8617967D01*
X15165966Y-8724034D01*
X15272033Y-8724034D01*
X15272033Y-12574033D02*
X15272033Y-12467966D01*
X15165966Y-12467966D01*
X15165966Y-12574033D01*
X15272033Y-12574033D01*
X15273033Y-10647034D02*
X15273033Y-10540967D01*
X15166966Y-10540967D01*
X15166966Y-10647034D01*
X15273033Y-10647034D01*
X15907033Y-6545033D02*
X15907033Y-6438966D01*
X15800966Y-6438966D01*
X15800966Y-6545033D01*
X15907033Y-6545033D01*
X15907033Y-8470034D02*
X15907033Y-8363966D01*
X15800966Y-8363966D01*
X15800966Y-8470034D01*
X15907033Y-8470034D01*
X15907033Y-12320033D02*
X15907033Y-12213966D01*
X15800966Y-12213966D01*
X15800966Y-12320033D01*
X15907033Y-12320033D01*
X15908033Y-10393034D02*
X15908033Y-10286967D01*
X15801966Y-10286967D01*
X15801966Y-10393034D01*
X15908033Y-10393034D01*
D11*
X7158277Y-14813984D02*
X7158277Y-14613984D01*
X7158277Y-14613984D02*
X7205896Y-14613984D01*
X7205896Y-14613984D02*
X7234467Y-14623508D01*
X7234467Y-14623508D02*
X7253515Y-14642555D01*
X7253515Y-14642555D02*
X7263039Y-14661603D01*
X7263039Y-14661603D02*
X7272562Y-14699698D01*
X7272562Y-14699698D02*
X7272562Y-14728269D01*
X7272562Y-14728269D02*
X7263039Y-14766365D01*
X7263039Y-14766365D02*
X7253515Y-14785412D01*
X7253515Y-14785412D02*
X7234467Y-14804460D01*
X7234467Y-14804460D02*
X7205896Y-14813984D01*
X7205896Y-14813984D02*
X7158277Y-14813984D01*
X7358277Y-14813984D02*
X7358277Y-14680650D01*
X7358277Y-14718746D02*
X7367801Y-14699698D01*
X7367801Y-14699698D02*
X7377324Y-14690174D01*
X7377324Y-14690174D02*
X7396372Y-14680650D01*
X7396372Y-14680650D02*
X7415420Y-14680650D01*
X7482086Y-14813984D02*
X7482086Y-14680650D01*
X7482086Y-14613984D02*
X7472562Y-14623508D01*
X7472562Y-14623508D02*
X7482086Y-14633031D01*
X7482086Y-14633031D02*
X7491610Y-14623508D01*
X7491610Y-14623508D02*
X7482086Y-14613984D01*
X7482086Y-14613984D02*
X7482086Y-14633031D01*
X7605896Y-14813984D02*
X7586848Y-14804460D01*
X7586848Y-14804460D02*
X7577324Y-14785412D01*
X7577324Y-14785412D02*
X7577324Y-14613984D01*
X7710658Y-14813984D02*
X7691610Y-14804460D01*
X7691610Y-14804460D02*
X7682086Y-14785412D01*
X7682086Y-14785412D02*
X7682086Y-14613984D01*
X7939229Y-14813984D02*
X7939229Y-14613984D01*
X7939229Y-14613984D02*
X8005896Y-14756841D01*
X8005896Y-14756841D02*
X8072562Y-14613984D01*
X8072562Y-14613984D02*
X8072562Y-14813984D01*
X8253515Y-14813984D02*
X8253515Y-14709222D01*
X8253515Y-14709222D02*
X8243991Y-14690174D01*
X8243991Y-14690174D02*
X8224943Y-14680650D01*
X8224943Y-14680650D02*
X8186848Y-14680650D01*
X8186848Y-14680650D02*
X8167801Y-14690174D01*
X8253515Y-14804460D02*
X8234467Y-14813984D01*
X8234467Y-14813984D02*
X8186848Y-14813984D01*
X8186848Y-14813984D02*
X8167801Y-14804460D01*
X8167801Y-14804460D02*
X8158277Y-14785412D01*
X8158277Y-14785412D02*
X8158277Y-14766365D01*
X8158277Y-14766365D02*
X8167801Y-14747317D01*
X8167801Y-14747317D02*
X8186848Y-14737793D01*
X8186848Y-14737793D02*
X8234467Y-14737793D01*
X8234467Y-14737793D02*
X8253515Y-14728269D01*
X8348753Y-14680650D02*
X8348753Y-14880650D01*
X8348753Y-14690174D02*
X8367801Y-14680650D01*
X8367801Y-14680650D02*
X8405896Y-14680650D01*
X8405896Y-14680650D02*
X8424944Y-14690174D01*
X8424944Y-14690174D02*
X8434467Y-14699698D01*
X8434467Y-14699698D02*
X8443991Y-14718746D01*
X8443991Y-14718746D02*
X8443991Y-14775888D01*
X8443991Y-14775888D02*
X8434467Y-14794936D01*
X8434467Y-14794936D02*
X8424944Y-14804460D01*
X8424944Y-14804460D02*
X8405896Y-14813984D01*
X8405896Y-14813984D02*
X8367801Y-14813984D01*
X8367801Y-14813984D02*
X8348753Y-14804460D01*
X8529705Y-14794936D02*
X8539229Y-14804460D01*
X8539229Y-14804460D02*
X8529705Y-14813984D01*
X8529705Y-14813984D02*
X8520182Y-14804460D01*
X8520182Y-14804460D02*
X8529705Y-14794936D01*
X8529705Y-14794936D02*
X8529705Y-14813984D01*
X8529705Y-14690174D02*
X8539229Y-14699698D01*
X8539229Y-14699698D02*
X8529705Y-14709222D01*
X8529705Y-14709222D02*
X8520182Y-14699698D01*
X8520182Y-14699698D02*
X8529705Y-14690174D01*
X8529705Y-14690174D02*
X8529705Y-14709222D01*
D12*
X6867500Y-15127500D02*
X6897500Y-15157500D01*
X6897500Y-15127500D02*
X6867500Y-15157500D01*
D11*
X7196372Y-15033984D02*
X7215420Y-15033984D01*
X7215420Y-15033984D02*
X7234467Y-15043508D01*
X7234467Y-15043508D02*
X7243991Y-15053031D01*
X7243991Y-15053031D02*
X7253515Y-15072079D01*
X7253515Y-15072079D02*
X7263039Y-15110174D01*
X7263039Y-15110174D02*
X7263039Y-15157793D01*
X7263039Y-15157793D02*
X7253515Y-15195888D01*
X7253515Y-15195888D02*
X7243991Y-15214936D01*
X7243991Y-15214936D02*
X7234467Y-15224460D01*
X7234467Y-15224460D02*
X7215420Y-15233984D01*
X7215420Y-15233984D02*
X7196372Y-15233984D01*
X7196372Y-15233984D02*
X7177324Y-15224460D01*
X7177324Y-15224460D02*
X7167801Y-15214936D01*
X7167801Y-15214936D02*
X7158277Y-15195888D01*
X7158277Y-15195888D02*
X7148753Y-15157793D01*
X7148753Y-15157793D02*
X7148753Y-15110174D01*
X7148753Y-15110174D02*
X7158277Y-15072079D01*
X7158277Y-15072079D02*
X7167801Y-15053031D01*
X7167801Y-15053031D02*
X7177324Y-15043508D01*
X7177324Y-15043508D02*
X7196372Y-15033984D01*
X7348753Y-15214936D02*
X7358277Y-15224460D01*
X7358277Y-15224460D02*
X7348753Y-15233984D01*
X7348753Y-15233984D02*
X7339229Y-15224460D01*
X7339229Y-15224460D02*
X7348753Y-15214936D01*
X7348753Y-15214936D02*
X7348753Y-15233984D01*
X7424943Y-15033984D02*
X7548753Y-15033984D01*
X7548753Y-15033984D02*
X7482086Y-15110174D01*
X7482086Y-15110174D02*
X7510658Y-15110174D01*
X7510658Y-15110174D02*
X7529705Y-15119698D01*
X7529705Y-15119698D02*
X7539229Y-15129222D01*
X7539229Y-15129222D02*
X7548753Y-15148269D01*
X7548753Y-15148269D02*
X7548753Y-15195888D01*
X7548753Y-15195888D02*
X7539229Y-15214936D01*
X7539229Y-15214936D02*
X7529705Y-15224460D01*
X7529705Y-15224460D02*
X7510658Y-15233984D01*
X7510658Y-15233984D02*
X7453515Y-15233984D01*
X7453515Y-15233984D02*
X7434467Y-15224460D01*
X7434467Y-15224460D02*
X7424943Y-15214936D01*
X7672562Y-15033984D02*
X7691610Y-15033984D01*
X7691610Y-15033984D02*
X7710658Y-15043508D01*
X7710658Y-15043508D02*
X7720182Y-15053031D01*
X7720182Y-15053031D02*
X7729705Y-15072079D01*
X7729705Y-15072079D02*
X7739229Y-15110174D01*
X7739229Y-15110174D02*
X7739229Y-15157793D01*
X7739229Y-15157793D02*
X7729705Y-15195888D01*
X7729705Y-15195888D02*
X7720182Y-15214936D01*
X7720182Y-15214936D02*
X7710658Y-15224460D01*
X7710658Y-15224460D02*
X7691610Y-15233984D01*
X7691610Y-15233984D02*
X7672562Y-15233984D01*
X7672562Y-15233984D02*
X7653515Y-15224460D01*
X7653515Y-15224460D02*
X7643991Y-15214936D01*
X7643991Y-15214936D02*
X7634467Y-15195888D01*
X7634467Y-15195888D02*
X7624943Y-15157793D01*
X7624943Y-15157793D02*
X7624943Y-15110174D01*
X7624943Y-15110174D02*
X7634467Y-15072079D01*
X7634467Y-15072079D02*
X7643991Y-15053031D01*
X7643991Y-15053031D02*
X7653515Y-15043508D01*
X7653515Y-15043508D02*
X7672562Y-15033984D01*
X7863039Y-15033984D02*
X7882086Y-15033984D01*
X7882086Y-15033984D02*
X7901134Y-15043508D01*
X7901134Y-15043508D02*
X7910658Y-15053031D01*
X7910658Y-15053031D02*
X7920182Y-15072079D01*
X7920182Y-15072079D02*
X7929705Y-15110174D01*
X7929705Y-15110174D02*
X7929705Y-15157793D01*
X7929705Y-15157793D02*
X7920182Y-15195888D01*
X7920182Y-15195888D02*
X7910658Y-15214936D01*
X7910658Y-15214936D02*
X7901134Y-15224460D01*
X7901134Y-15224460D02*
X7882086Y-15233984D01*
X7882086Y-15233984D02*
X7863039Y-15233984D01*
X7863039Y-15233984D02*
X7843991Y-15224460D01*
X7843991Y-15224460D02*
X7834467Y-15214936D01*
X7834467Y-15214936D02*
X7824943Y-15195888D01*
X7824943Y-15195888D02*
X7815420Y-15157793D01*
X7815420Y-15157793D02*
X7815420Y-15110174D01*
X7815420Y-15110174D02*
X7824943Y-15072079D01*
X7824943Y-15072079D02*
X7834467Y-15053031D01*
X7834467Y-15053031D02*
X7843991Y-15043508D01*
X7843991Y-15043508D02*
X7863039Y-15033984D01*
X8015420Y-15233984D02*
X8015420Y-15100650D01*
X8015420Y-15119698D02*
X8024943Y-15110174D01*
X8024943Y-15110174D02*
X8043991Y-15100650D01*
X8043991Y-15100650D02*
X8072563Y-15100650D01*
X8072563Y-15100650D02*
X8091610Y-15110174D01*
X8091610Y-15110174D02*
X8101134Y-15129222D01*
X8101134Y-15129222D02*
X8101134Y-15233984D01*
X8101134Y-15129222D02*
X8110658Y-15110174D01*
X8110658Y-15110174D02*
X8129705Y-15100650D01*
X8129705Y-15100650D02*
X8158277Y-15100650D01*
X8158277Y-15100650D02*
X8177324Y-15110174D01*
X8177324Y-15110174D02*
X8186848Y-15129222D01*
X8186848Y-15129222D02*
X8186848Y-15233984D01*
X8282086Y-15233984D02*
X8282086Y-15100650D01*
X8282086Y-15119698D02*
X8291610Y-15110174D01*
X8291610Y-15110174D02*
X8310658Y-15100650D01*
X8310658Y-15100650D02*
X8339229Y-15100650D01*
X8339229Y-15100650D02*
X8358277Y-15110174D01*
X8358277Y-15110174D02*
X8367801Y-15129222D01*
X8367801Y-15129222D02*
X8367801Y-15233984D01*
X8367801Y-15129222D02*
X8377324Y-15110174D01*
X8377324Y-15110174D02*
X8396372Y-15100650D01*
X8396372Y-15100650D02*
X8424944Y-15100650D01*
X8424944Y-15100650D02*
X8443991Y-15110174D01*
X8443991Y-15110174D02*
X8453515Y-15129222D01*
X8453515Y-15129222D02*
X8453515Y-15233984D01*
X8843991Y-15024460D02*
X8672563Y-15281603D01*
X9101134Y-15033984D02*
X9120182Y-15033984D01*
X9120182Y-15033984D02*
X9139229Y-15043508D01*
X9139229Y-15043508D02*
X9148753Y-15053031D01*
X9148753Y-15053031D02*
X9158277Y-15072079D01*
X9158277Y-15072079D02*
X9167801Y-15110174D01*
X9167801Y-15110174D02*
X9167801Y-15157793D01*
X9167801Y-15157793D02*
X9158277Y-15195888D01*
X9158277Y-15195888D02*
X9148753Y-15214936D01*
X9148753Y-15214936D02*
X9139229Y-15224460D01*
X9139229Y-15224460D02*
X9120182Y-15233984D01*
X9120182Y-15233984D02*
X9101134Y-15233984D01*
X9101134Y-15233984D02*
X9082087Y-15224460D01*
X9082087Y-15224460D02*
X9072563Y-15214936D01*
X9072563Y-15214936D02*
X9063039Y-15195888D01*
X9063039Y-15195888D02*
X9053515Y-15157793D01*
X9053515Y-15157793D02*
X9053515Y-15110174D01*
X9053515Y-15110174D02*
X9063039Y-15072079D01*
X9063039Y-15072079D02*
X9072563Y-15053031D01*
X9072563Y-15053031D02*
X9082087Y-15043508D01*
X9082087Y-15043508D02*
X9101134Y-15033984D01*
X9253515Y-15214936D02*
X9263039Y-15224460D01*
X9263039Y-15224460D02*
X9253515Y-15233984D01*
X9253515Y-15233984D02*
X9243991Y-15224460D01*
X9243991Y-15224460D02*
X9253515Y-15214936D01*
X9253515Y-15214936D02*
X9253515Y-15233984D01*
X9386848Y-15033984D02*
X9405896Y-15033984D01*
X9405896Y-15033984D02*
X9424944Y-15043508D01*
X9424944Y-15043508D02*
X9434468Y-15053031D01*
X9434468Y-15053031D02*
X9443991Y-15072079D01*
X9443991Y-15072079D02*
X9453515Y-15110174D01*
X9453515Y-15110174D02*
X9453515Y-15157793D01*
X9453515Y-15157793D02*
X9443991Y-15195888D01*
X9443991Y-15195888D02*
X9434468Y-15214936D01*
X9434468Y-15214936D02*
X9424944Y-15224460D01*
X9424944Y-15224460D02*
X9405896Y-15233984D01*
X9405896Y-15233984D02*
X9386848Y-15233984D01*
X9386848Y-15233984D02*
X9367801Y-15224460D01*
X9367801Y-15224460D02*
X9358277Y-15214936D01*
X9358277Y-15214936D02*
X9348753Y-15195888D01*
X9348753Y-15195888D02*
X9339229Y-15157793D01*
X9339229Y-15157793D02*
X9339229Y-15110174D01*
X9339229Y-15110174D02*
X9348753Y-15072079D01*
X9348753Y-15072079D02*
X9358277Y-15053031D01*
X9358277Y-15053031D02*
X9367801Y-15043508D01*
X9367801Y-15043508D02*
X9386848Y-15033984D01*
X9643991Y-15233984D02*
X9529706Y-15233984D01*
X9586848Y-15233984D02*
X9586848Y-15033984D01*
X9586848Y-15033984D02*
X9567801Y-15062555D01*
X9567801Y-15062555D02*
X9548753Y-15081603D01*
X9548753Y-15081603D02*
X9529706Y-15091127D01*
X9834468Y-15233984D02*
X9720182Y-15233984D01*
X9777325Y-15233984D02*
X9777325Y-15033984D01*
X9777325Y-15033984D02*
X9758277Y-15062555D01*
X9758277Y-15062555D02*
X9739229Y-15081603D01*
X9739229Y-15081603D02*
X9720182Y-15091127D01*
X9948753Y-15119698D02*
X9929706Y-15110174D01*
X9929706Y-15110174D02*
X9920182Y-15100650D01*
X9920182Y-15100650D02*
X9910658Y-15081603D01*
X9910658Y-15081603D02*
X9910658Y-15072079D01*
X9910658Y-15072079D02*
X9920182Y-15053031D01*
X9920182Y-15053031D02*
X9929706Y-15043508D01*
X9929706Y-15043508D02*
X9948753Y-15033984D01*
X9948753Y-15033984D02*
X9986849Y-15033984D01*
X9986849Y-15033984D02*
X10005896Y-15043508D01*
X10005896Y-15043508D02*
X10015420Y-15053031D01*
X10015420Y-15053031D02*
X10024944Y-15072079D01*
X10024944Y-15072079D02*
X10024944Y-15081603D01*
X10024944Y-15081603D02*
X10015420Y-15100650D01*
X10015420Y-15100650D02*
X10005896Y-15110174D01*
X10005896Y-15110174D02*
X9986849Y-15119698D01*
X9986849Y-15119698D02*
X9948753Y-15119698D01*
X9948753Y-15119698D02*
X9929706Y-15129222D01*
X9929706Y-15129222D02*
X9920182Y-15138746D01*
X9920182Y-15138746D02*
X9910658Y-15157793D01*
X9910658Y-15157793D02*
X9910658Y-15195888D01*
X9910658Y-15195888D02*
X9920182Y-15214936D01*
X9920182Y-15214936D02*
X9929706Y-15224460D01*
X9929706Y-15224460D02*
X9948753Y-15233984D01*
X9948753Y-15233984D02*
X9986849Y-15233984D01*
X9986849Y-15233984D02*
X10005896Y-15224460D01*
X10005896Y-15224460D02*
X10015420Y-15214936D01*
X10015420Y-15214936D02*
X10024944Y-15195888D01*
X10024944Y-15195888D02*
X10024944Y-15157793D01*
X10024944Y-15157793D02*
X10015420Y-15138746D01*
X10015420Y-15138746D02*
X10005896Y-15129222D01*
X10005896Y-15129222D02*
X9986849Y-15119698D01*
X10101134Y-15033984D02*
X10101134Y-15072079D01*
X10177325Y-15033984D02*
X10177325Y-15072079D01*
X10472563Y-15310174D02*
X10463039Y-15300650D01*
X10463039Y-15300650D02*
X10443991Y-15272079D01*
X10443991Y-15272079D02*
X10434468Y-15253031D01*
X10434468Y-15253031D02*
X10424944Y-15224460D01*
X10424944Y-15224460D02*
X10415420Y-15176841D01*
X10415420Y-15176841D02*
X10415420Y-15138746D01*
X10415420Y-15138746D02*
X10424944Y-15091127D01*
X10424944Y-15091127D02*
X10434468Y-15062555D01*
X10434468Y-15062555D02*
X10443991Y-15043508D01*
X10443991Y-15043508D02*
X10463039Y-15014936D01*
X10463039Y-15014936D02*
X10472563Y-15005412D01*
X10653515Y-15233984D02*
X10539230Y-15233984D01*
X10596372Y-15233984D02*
X10596372Y-15033984D01*
X10596372Y-15033984D02*
X10577325Y-15062555D01*
X10577325Y-15062555D02*
X10558277Y-15081603D01*
X10558277Y-15081603D02*
X10539230Y-15091127D01*
X10777325Y-15033984D02*
X10796372Y-15033984D01*
X10796372Y-15033984D02*
X10815420Y-15043508D01*
X10815420Y-15043508D02*
X10824944Y-15053031D01*
X10824944Y-15053031D02*
X10834468Y-15072079D01*
X10834468Y-15072079D02*
X10843991Y-15110174D01*
X10843991Y-15110174D02*
X10843991Y-15157793D01*
X10843991Y-15157793D02*
X10834468Y-15195888D01*
X10834468Y-15195888D02*
X10824944Y-15214936D01*
X10824944Y-15214936D02*
X10815420Y-15224460D01*
X10815420Y-15224460D02*
X10796372Y-15233984D01*
X10796372Y-15233984D02*
X10777325Y-15233984D01*
X10777325Y-15233984D02*
X10758277Y-15224460D01*
X10758277Y-15224460D02*
X10748753Y-15214936D01*
X10748753Y-15214936D02*
X10739230Y-15195888D01*
X10739230Y-15195888D02*
X10729706Y-15157793D01*
X10729706Y-15157793D02*
X10729706Y-15110174D01*
X10729706Y-15110174D02*
X10739230Y-15072079D01*
X10739230Y-15072079D02*
X10748753Y-15053031D01*
X10748753Y-15053031D02*
X10758277Y-15043508D01*
X10758277Y-15043508D02*
X10777325Y-15033984D01*
X10958277Y-15119698D02*
X10939230Y-15110174D01*
X10939230Y-15110174D02*
X10929706Y-15100650D01*
X10929706Y-15100650D02*
X10920182Y-15081603D01*
X10920182Y-15081603D02*
X10920182Y-15072079D01*
X10920182Y-15072079D02*
X10929706Y-15053031D01*
X10929706Y-15053031D02*
X10939230Y-15043508D01*
X10939230Y-15043508D02*
X10958277Y-15033984D01*
X10958277Y-15033984D02*
X10996372Y-15033984D01*
X10996372Y-15033984D02*
X11015420Y-15043508D01*
X11015420Y-15043508D02*
X11024944Y-15053031D01*
X11024944Y-15053031D02*
X11034468Y-15072079D01*
X11034468Y-15072079D02*
X11034468Y-15081603D01*
X11034468Y-15081603D02*
X11024944Y-15100650D01*
X11024944Y-15100650D02*
X11015420Y-15110174D01*
X11015420Y-15110174D02*
X10996372Y-15119698D01*
X10996372Y-15119698D02*
X10958277Y-15119698D01*
X10958277Y-15119698D02*
X10939230Y-15129222D01*
X10939230Y-15129222D02*
X10929706Y-15138746D01*
X10929706Y-15138746D02*
X10920182Y-15157793D01*
X10920182Y-15157793D02*
X10920182Y-15195888D01*
X10920182Y-15195888D02*
X10929706Y-15214936D01*
X10929706Y-15214936D02*
X10939230Y-15224460D01*
X10939230Y-15224460D02*
X10958277Y-15233984D01*
X10958277Y-15233984D02*
X10996372Y-15233984D01*
X10996372Y-15233984D02*
X11015420Y-15224460D01*
X11015420Y-15224460D02*
X11024944Y-15214936D01*
X11024944Y-15214936D02*
X11034468Y-15195888D01*
X11034468Y-15195888D02*
X11034468Y-15157793D01*
X11034468Y-15157793D02*
X11024944Y-15138746D01*
X11024944Y-15138746D02*
X11015420Y-15129222D01*
X11015420Y-15129222D02*
X10996372Y-15119698D01*
X11272563Y-15233984D02*
X11272563Y-15033984D01*
X11358277Y-15233984D02*
X11358277Y-15129222D01*
X11358277Y-15129222D02*
X11348753Y-15110174D01*
X11348753Y-15110174D02*
X11329706Y-15100650D01*
X11329706Y-15100650D02*
X11301134Y-15100650D01*
X11301134Y-15100650D02*
X11282087Y-15110174D01*
X11282087Y-15110174D02*
X11272563Y-15119698D01*
X11482087Y-15233984D02*
X11463039Y-15224460D01*
X11463039Y-15224460D02*
X11453515Y-15214936D01*
X11453515Y-15214936D02*
X11443991Y-15195888D01*
X11443991Y-15195888D02*
X11443991Y-15138746D01*
X11443991Y-15138746D02*
X11453515Y-15119698D01*
X11453515Y-15119698D02*
X11463039Y-15110174D01*
X11463039Y-15110174D02*
X11482087Y-15100650D01*
X11482087Y-15100650D02*
X11510658Y-15100650D01*
X11510658Y-15100650D02*
X11529706Y-15110174D01*
X11529706Y-15110174D02*
X11539230Y-15119698D01*
X11539230Y-15119698D02*
X11548753Y-15138746D01*
X11548753Y-15138746D02*
X11548753Y-15195888D01*
X11548753Y-15195888D02*
X11539230Y-15214936D01*
X11539230Y-15214936D02*
X11529706Y-15224460D01*
X11529706Y-15224460D02*
X11510658Y-15233984D01*
X11510658Y-15233984D02*
X11482087Y-15233984D01*
X11663039Y-15233984D02*
X11643991Y-15224460D01*
X11643991Y-15224460D02*
X11634468Y-15205412D01*
X11634468Y-15205412D02*
X11634468Y-15033984D01*
X11815420Y-15224460D02*
X11796372Y-15233984D01*
X11796372Y-15233984D02*
X11758277Y-15233984D01*
X11758277Y-15233984D02*
X11739230Y-15224460D01*
X11739230Y-15224460D02*
X11729706Y-15205412D01*
X11729706Y-15205412D02*
X11729706Y-15129222D01*
X11729706Y-15129222D02*
X11739230Y-15110174D01*
X11739230Y-15110174D02*
X11758277Y-15100650D01*
X11758277Y-15100650D02*
X11796372Y-15100650D01*
X11796372Y-15100650D02*
X11815420Y-15110174D01*
X11815420Y-15110174D02*
X11824944Y-15129222D01*
X11824944Y-15129222D02*
X11824944Y-15148269D01*
X11824944Y-15148269D02*
X11729706Y-15167317D01*
X11901134Y-15224460D02*
X11920182Y-15233984D01*
X11920182Y-15233984D02*
X11958277Y-15233984D01*
X11958277Y-15233984D02*
X11977325Y-15224460D01*
X11977325Y-15224460D02*
X11986849Y-15205412D01*
X11986849Y-15205412D02*
X11986849Y-15195888D01*
X11986849Y-15195888D02*
X11977325Y-15176841D01*
X11977325Y-15176841D02*
X11958277Y-15167317D01*
X11958277Y-15167317D02*
X11929706Y-15167317D01*
X11929706Y-15167317D02*
X11910658Y-15157793D01*
X11910658Y-15157793D02*
X11901134Y-15138746D01*
X11901134Y-15138746D02*
X11901134Y-15129222D01*
X11901134Y-15129222D02*
X11910658Y-15110174D01*
X11910658Y-15110174D02*
X11929706Y-15100650D01*
X11929706Y-15100650D02*
X11958277Y-15100650D01*
X11958277Y-15100650D02*
X11977325Y-15110174D01*
X12053515Y-15310174D02*
X12063039Y-15300650D01*
X12063039Y-15300650D02*
X12082087Y-15272079D01*
X12082087Y-15272079D02*
X12091611Y-15253031D01*
X12091611Y-15253031D02*
X12101134Y-15224460D01*
X12101134Y-15224460D02*
X12110658Y-15176841D01*
X12110658Y-15176841D02*
X12110658Y-15138746D01*
X12110658Y-15138746D02*
X12101134Y-15091127D01*
X12101134Y-15091127D02*
X12091611Y-15062555D01*
X12091611Y-15062555D02*
X12082087Y-15043508D01*
X12082087Y-15043508D02*
X12063039Y-15014936D01*
X12063039Y-15014936D02*
X12053515Y-15005412D01*
D12*
X6897500Y-15406500D02*
G75*
G02*
X6817500Y-15406500I-40000J0D01*
G01*
X6817500Y-15406500D02*
G75*
G02*
X6897500Y-15406500I40000J0D01*
G01*
D11*
X7196372Y-15297984D02*
X7215420Y-15297984D01*
X7215420Y-15297984D02*
X7234467Y-15307508D01*
X7234467Y-15307508D02*
X7243991Y-15317031D01*
X7243991Y-15317031D02*
X7253515Y-15336079D01*
X7253515Y-15336079D02*
X7263039Y-15374174D01*
X7263039Y-15374174D02*
X7263039Y-15421793D01*
X7263039Y-15421793D02*
X7253515Y-15459888D01*
X7253515Y-15459888D02*
X7243991Y-15478936D01*
X7243991Y-15478936D02*
X7234467Y-15488460D01*
X7234467Y-15488460D02*
X7215420Y-15497984D01*
X7215420Y-15497984D02*
X7196372Y-15497984D01*
X7196372Y-15497984D02*
X7177324Y-15488460D01*
X7177324Y-15488460D02*
X7167801Y-15478936D01*
X7167801Y-15478936D02*
X7158277Y-15459888D01*
X7158277Y-15459888D02*
X7148753Y-15421793D01*
X7148753Y-15421793D02*
X7148753Y-15374174D01*
X7148753Y-15374174D02*
X7158277Y-15336079D01*
X7158277Y-15336079D02*
X7167801Y-15317031D01*
X7167801Y-15317031D02*
X7177324Y-15307508D01*
X7177324Y-15307508D02*
X7196372Y-15297984D01*
X7348753Y-15478936D02*
X7358277Y-15488460D01*
X7358277Y-15488460D02*
X7348753Y-15497984D01*
X7348753Y-15497984D02*
X7339229Y-15488460D01*
X7339229Y-15488460D02*
X7348753Y-15478936D01*
X7348753Y-15478936D02*
X7348753Y-15497984D01*
X7472562Y-15383698D02*
X7453515Y-15374174D01*
X7453515Y-15374174D02*
X7443991Y-15364650D01*
X7443991Y-15364650D02*
X7434467Y-15345603D01*
X7434467Y-15345603D02*
X7434467Y-15336079D01*
X7434467Y-15336079D02*
X7443991Y-15317031D01*
X7443991Y-15317031D02*
X7453515Y-15307508D01*
X7453515Y-15307508D02*
X7472562Y-15297984D01*
X7472562Y-15297984D02*
X7510658Y-15297984D01*
X7510658Y-15297984D02*
X7529705Y-15307508D01*
X7529705Y-15307508D02*
X7539229Y-15317031D01*
X7539229Y-15317031D02*
X7548753Y-15336079D01*
X7548753Y-15336079D02*
X7548753Y-15345603D01*
X7548753Y-15345603D02*
X7539229Y-15364650D01*
X7539229Y-15364650D02*
X7529705Y-15374174D01*
X7529705Y-15374174D02*
X7510658Y-15383698D01*
X7510658Y-15383698D02*
X7472562Y-15383698D01*
X7472562Y-15383698D02*
X7453515Y-15393222D01*
X7453515Y-15393222D02*
X7443991Y-15402746D01*
X7443991Y-15402746D02*
X7434467Y-15421793D01*
X7434467Y-15421793D02*
X7434467Y-15459888D01*
X7434467Y-15459888D02*
X7443991Y-15478936D01*
X7443991Y-15478936D02*
X7453515Y-15488460D01*
X7453515Y-15488460D02*
X7472562Y-15497984D01*
X7472562Y-15497984D02*
X7510658Y-15497984D01*
X7510658Y-15497984D02*
X7529705Y-15488460D01*
X7529705Y-15488460D02*
X7539229Y-15478936D01*
X7539229Y-15478936D02*
X7548753Y-15459888D01*
X7548753Y-15459888D02*
X7548753Y-15421793D01*
X7548753Y-15421793D02*
X7539229Y-15402746D01*
X7539229Y-15402746D02*
X7529705Y-15393222D01*
X7529705Y-15393222D02*
X7510658Y-15383698D01*
X7672562Y-15297984D02*
X7691610Y-15297984D01*
X7691610Y-15297984D02*
X7710658Y-15307508D01*
X7710658Y-15307508D02*
X7720182Y-15317031D01*
X7720182Y-15317031D02*
X7729705Y-15336079D01*
X7729705Y-15336079D02*
X7739229Y-15374174D01*
X7739229Y-15374174D02*
X7739229Y-15421793D01*
X7739229Y-15421793D02*
X7729705Y-15459888D01*
X7729705Y-15459888D02*
X7720182Y-15478936D01*
X7720182Y-15478936D02*
X7710658Y-15488460D01*
X7710658Y-15488460D02*
X7691610Y-15497984D01*
X7691610Y-15497984D02*
X7672562Y-15497984D01*
X7672562Y-15497984D02*
X7653515Y-15488460D01*
X7653515Y-15488460D02*
X7643991Y-15478936D01*
X7643991Y-15478936D02*
X7634467Y-15459888D01*
X7634467Y-15459888D02*
X7624943Y-15421793D01*
X7624943Y-15421793D02*
X7624943Y-15374174D01*
X7624943Y-15374174D02*
X7634467Y-15336079D01*
X7634467Y-15336079D02*
X7643991Y-15317031D01*
X7643991Y-15317031D02*
X7653515Y-15307508D01*
X7653515Y-15307508D02*
X7672562Y-15297984D01*
X7863039Y-15297984D02*
X7882086Y-15297984D01*
X7882086Y-15297984D02*
X7901134Y-15307508D01*
X7901134Y-15307508D02*
X7910658Y-15317031D01*
X7910658Y-15317031D02*
X7920182Y-15336079D01*
X7920182Y-15336079D02*
X7929705Y-15374174D01*
X7929705Y-15374174D02*
X7929705Y-15421793D01*
X7929705Y-15421793D02*
X7920182Y-15459888D01*
X7920182Y-15459888D02*
X7910658Y-15478936D01*
X7910658Y-15478936D02*
X7901134Y-15488460D01*
X7901134Y-15488460D02*
X7882086Y-15497984D01*
X7882086Y-15497984D02*
X7863039Y-15497984D01*
X7863039Y-15497984D02*
X7843991Y-15488460D01*
X7843991Y-15488460D02*
X7834467Y-15478936D01*
X7834467Y-15478936D02*
X7824943Y-15459888D01*
X7824943Y-15459888D02*
X7815420Y-15421793D01*
X7815420Y-15421793D02*
X7815420Y-15374174D01*
X7815420Y-15374174D02*
X7824943Y-15336079D01*
X7824943Y-15336079D02*
X7834467Y-15317031D01*
X7834467Y-15317031D02*
X7843991Y-15307508D01*
X7843991Y-15307508D02*
X7863039Y-15297984D01*
X8015420Y-15497984D02*
X8015420Y-15364650D01*
X8015420Y-15383698D02*
X8024943Y-15374174D01*
X8024943Y-15374174D02*
X8043991Y-15364650D01*
X8043991Y-15364650D02*
X8072563Y-15364650D01*
X8072563Y-15364650D02*
X8091610Y-15374174D01*
X8091610Y-15374174D02*
X8101134Y-15393222D01*
X8101134Y-15393222D02*
X8101134Y-15497984D01*
X8101134Y-15393222D02*
X8110658Y-15374174D01*
X8110658Y-15374174D02*
X8129705Y-15364650D01*
X8129705Y-15364650D02*
X8158277Y-15364650D01*
X8158277Y-15364650D02*
X8177324Y-15374174D01*
X8177324Y-15374174D02*
X8186848Y-15393222D01*
X8186848Y-15393222D02*
X8186848Y-15497984D01*
X8282086Y-15497984D02*
X8282086Y-15364650D01*
X8282086Y-15383698D02*
X8291610Y-15374174D01*
X8291610Y-15374174D02*
X8310658Y-15364650D01*
X8310658Y-15364650D02*
X8339229Y-15364650D01*
X8339229Y-15364650D02*
X8358277Y-15374174D01*
X8358277Y-15374174D02*
X8367801Y-15393222D01*
X8367801Y-15393222D02*
X8367801Y-15497984D01*
X8367801Y-15393222D02*
X8377324Y-15374174D01*
X8377324Y-15374174D02*
X8396372Y-15364650D01*
X8396372Y-15364650D02*
X8424944Y-15364650D01*
X8424944Y-15364650D02*
X8443991Y-15374174D01*
X8443991Y-15374174D02*
X8453515Y-15393222D01*
X8453515Y-15393222D02*
X8453515Y-15497984D01*
X8843991Y-15288460D02*
X8672563Y-15545603D01*
X9101134Y-15297984D02*
X9120182Y-15297984D01*
X9120182Y-15297984D02*
X9139229Y-15307508D01*
X9139229Y-15307508D02*
X9148753Y-15317031D01*
X9148753Y-15317031D02*
X9158277Y-15336079D01*
X9158277Y-15336079D02*
X9167801Y-15374174D01*
X9167801Y-15374174D02*
X9167801Y-15421793D01*
X9167801Y-15421793D02*
X9158277Y-15459888D01*
X9158277Y-15459888D02*
X9148753Y-15478936D01*
X9148753Y-15478936D02*
X9139229Y-15488460D01*
X9139229Y-15488460D02*
X9120182Y-15497984D01*
X9120182Y-15497984D02*
X9101134Y-15497984D01*
X9101134Y-15497984D02*
X9082087Y-15488460D01*
X9082087Y-15488460D02*
X9072563Y-15478936D01*
X9072563Y-15478936D02*
X9063039Y-15459888D01*
X9063039Y-15459888D02*
X9053515Y-15421793D01*
X9053515Y-15421793D02*
X9053515Y-15374174D01*
X9053515Y-15374174D02*
X9063039Y-15336079D01*
X9063039Y-15336079D02*
X9072563Y-15317031D01*
X9072563Y-15317031D02*
X9082087Y-15307508D01*
X9082087Y-15307508D02*
X9101134Y-15297984D01*
X9253515Y-15478936D02*
X9263039Y-15488460D01*
X9263039Y-15488460D02*
X9253515Y-15497984D01*
X9253515Y-15497984D02*
X9243991Y-15488460D01*
X9243991Y-15488460D02*
X9253515Y-15478936D01*
X9253515Y-15478936D02*
X9253515Y-15497984D01*
X9386848Y-15297984D02*
X9405896Y-15297984D01*
X9405896Y-15297984D02*
X9424944Y-15307508D01*
X9424944Y-15307508D02*
X9434468Y-15317031D01*
X9434468Y-15317031D02*
X9443991Y-15336079D01*
X9443991Y-15336079D02*
X9453515Y-15374174D01*
X9453515Y-15374174D02*
X9453515Y-15421793D01*
X9453515Y-15421793D02*
X9443991Y-15459888D01*
X9443991Y-15459888D02*
X9434468Y-15478936D01*
X9434468Y-15478936D02*
X9424944Y-15488460D01*
X9424944Y-15488460D02*
X9405896Y-15497984D01*
X9405896Y-15497984D02*
X9386848Y-15497984D01*
X9386848Y-15497984D02*
X9367801Y-15488460D01*
X9367801Y-15488460D02*
X9358277Y-15478936D01*
X9358277Y-15478936D02*
X9348753Y-15459888D01*
X9348753Y-15459888D02*
X9339229Y-15421793D01*
X9339229Y-15421793D02*
X9339229Y-15374174D01*
X9339229Y-15374174D02*
X9348753Y-15336079D01*
X9348753Y-15336079D02*
X9358277Y-15317031D01*
X9358277Y-15317031D02*
X9367801Y-15307508D01*
X9367801Y-15307508D02*
X9386848Y-15297984D01*
X9520182Y-15297984D02*
X9643991Y-15297984D01*
X9643991Y-15297984D02*
X9577325Y-15374174D01*
X9577325Y-15374174D02*
X9605896Y-15374174D01*
X9605896Y-15374174D02*
X9624944Y-15383698D01*
X9624944Y-15383698D02*
X9634468Y-15393222D01*
X9634468Y-15393222D02*
X9643991Y-15412269D01*
X9643991Y-15412269D02*
X9643991Y-15459888D01*
X9643991Y-15459888D02*
X9634468Y-15478936D01*
X9634468Y-15478936D02*
X9624944Y-15488460D01*
X9624944Y-15488460D02*
X9605896Y-15497984D01*
X9605896Y-15497984D02*
X9548753Y-15497984D01*
X9548753Y-15497984D02*
X9529706Y-15488460D01*
X9529706Y-15488460D02*
X9520182Y-15478936D01*
X9834468Y-15497984D02*
X9720182Y-15497984D01*
X9777325Y-15497984D02*
X9777325Y-15297984D01*
X9777325Y-15297984D02*
X9758277Y-15326555D01*
X9758277Y-15326555D02*
X9739229Y-15345603D01*
X9739229Y-15345603D02*
X9720182Y-15355127D01*
X10015420Y-15297984D02*
X9920182Y-15297984D01*
X9920182Y-15297984D02*
X9910658Y-15393222D01*
X9910658Y-15393222D02*
X9920182Y-15383698D01*
X9920182Y-15383698D02*
X9939229Y-15374174D01*
X9939229Y-15374174D02*
X9986849Y-15374174D01*
X9986849Y-15374174D02*
X10005896Y-15383698D01*
X10005896Y-15383698D02*
X10015420Y-15393222D01*
X10015420Y-15393222D02*
X10024944Y-15412269D01*
X10024944Y-15412269D02*
X10024944Y-15459888D01*
X10024944Y-15459888D02*
X10015420Y-15478936D01*
X10015420Y-15478936D02*
X10005896Y-15488460D01*
X10005896Y-15488460D02*
X9986849Y-15497984D01*
X9986849Y-15497984D02*
X9939229Y-15497984D01*
X9939229Y-15497984D02*
X9920182Y-15488460D01*
X9920182Y-15488460D02*
X9910658Y-15478936D01*
X10101134Y-15297984D02*
X10101134Y-15336079D01*
X10177325Y-15297984D02*
X10177325Y-15336079D01*
X10472563Y-15574174D02*
X10463039Y-15564650D01*
X10463039Y-15564650D02*
X10443991Y-15536079D01*
X10443991Y-15536079D02*
X10434468Y-15517031D01*
X10434468Y-15517031D02*
X10424944Y-15488460D01*
X10424944Y-15488460D02*
X10415420Y-15440841D01*
X10415420Y-15440841D02*
X10415420Y-15402746D01*
X10415420Y-15402746D02*
X10424944Y-15355127D01*
X10424944Y-15355127D02*
X10434468Y-15326555D01*
X10434468Y-15326555D02*
X10443991Y-15307508D01*
X10443991Y-15307508D02*
X10463039Y-15278936D01*
X10463039Y-15278936D02*
X10472563Y-15269412D01*
X10539230Y-15317031D02*
X10548753Y-15307508D01*
X10548753Y-15307508D02*
X10567801Y-15297984D01*
X10567801Y-15297984D02*
X10615420Y-15297984D01*
X10615420Y-15297984D02*
X10634468Y-15307508D01*
X10634468Y-15307508D02*
X10643991Y-15317031D01*
X10643991Y-15317031D02*
X10653515Y-15336079D01*
X10653515Y-15336079D02*
X10653515Y-15355127D01*
X10653515Y-15355127D02*
X10643991Y-15383698D01*
X10643991Y-15383698D02*
X10529706Y-15497984D01*
X10529706Y-15497984D02*
X10653515Y-15497984D01*
X10824944Y-15364650D02*
X10824944Y-15497984D01*
X10777325Y-15288460D02*
X10729706Y-15431317D01*
X10729706Y-15431317D02*
X10853515Y-15431317D01*
X11082087Y-15497984D02*
X11082087Y-15297984D01*
X11167801Y-15497984D02*
X11167801Y-15393222D01*
X11167801Y-15393222D02*
X11158277Y-15374174D01*
X11158277Y-15374174D02*
X11139230Y-15364650D01*
X11139230Y-15364650D02*
X11110658Y-15364650D01*
X11110658Y-15364650D02*
X11091611Y-15374174D01*
X11091611Y-15374174D02*
X11082087Y-15383698D01*
X11291610Y-15497984D02*
X11272563Y-15488460D01*
X11272563Y-15488460D02*
X11263039Y-15478936D01*
X11263039Y-15478936D02*
X11253515Y-15459888D01*
X11253515Y-15459888D02*
X11253515Y-15402746D01*
X11253515Y-15402746D02*
X11263039Y-15383698D01*
X11263039Y-15383698D02*
X11272563Y-15374174D01*
X11272563Y-15374174D02*
X11291610Y-15364650D01*
X11291610Y-15364650D02*
X11320182Y-15364650D01*
X11320182Y-15364650D02*
X11339230Y-15374174D01*
X11339230Y-15374174D02*
X11348753Y-15383698D01*
X11348753Y-15383698D02*
X11358277Y-15402746D01*
X11358277Y-15402746D02*
X11358277Y-15459888D01*
X11358277Y-15459888D02*
X11348753Y-15478936D01*
X11348753Y-15478936D02*
X11339230Y-15488460D01*
X11339230Y-15488460D02*
X11320182Y-15497984D01*
X11320182Y-15497984D02*
X11291610Y-15497984D01*
X11472563Y-15497984D02*
X11453515Y-15488460D01*
X11453515Y-15488460D02*
X11443991Y-15469412D01*
X11443991Y-15469412D02*
X11443991Y-15297984D01*
X11624944Y-15488460D02*
X11605896Y-15497984D01*
X11605896Y-15497984D02*
X11567801Y-15497984D01*
X11567801Y-15497984D02*
X11548753Y-15488460D01*
X11548753Y-15488460D02*
X11539230Y-15469412D01*
X11539230Y-15469412D02*
X11539230Y-15393222D01*
X11539230Y-15393222D02*
X11548753Y-15374174D01*
X11548753Y-15374174D02*
X11567801Y-15364650D01*
X11567801Y-15364650D02*
X11605896Y-15364650D01*
X11605896Y-15364650D02*
X11624944Y-15374174D01*
X11624944Y-15374174D02*
X11634468Y-15393222D01*
X11634468Y-15393222D02*
X11634468Y-15412269D01*
X11634468Y-15412269D02*
X11539230Y-15431317D01*
X11710658Y-15488460D02*
X11729706Y-15497984D01*
X11729706Y-15497984D02*
X11767801Y-15497984D01*
X11767801Y-15497984D02*
X11786849Y-15488460D01*
X11786849Y-15488460D02*
X11796372Y-15469412D01*
X11796372Y-15469412D02*
X11796372Y-15459888D01*
X11796372Y-15459888D02*
X11786849Y-15440841D01*
X11786849Y-15440841D02*
X11767801Y-15431317D01*
X11767801Y-15431317D02*
X11739230Y-15431317D01*
X11739230Y-15431317D02*
X11720182Y-15421793D01*
X11720182Y-15421793D02*
X11710658Y-15402746D01*
X11710658Y-15402746D02*
X11710658Y-15393222D01*
X11710658Y-15393222D02*
X11720182Y-15374174D01*
X11720182Y-15374174D02*
X11739230Y-15364650D01*
X11739230Y-15364650D02*
X11767801Y-15364650D01*
X11767801Y-15364650D02*
X11786849Y-15374174D01*
X11863039Y-15574174D02*
X11872563Y-15564650D01*
X11872563Y-15564650D02*
X11891611Y-15536079D01*
X11891611Y-15536079D02*
X11901134Y-15517031D01*
X11901134Y-15517031D02*
X11910658Y-15488460D01*
X11910658Y-15488460D02*
X11920182Y-15440841D01*
X11920182Y-15440841D02*
X11920182Y-15402746D01*
X11920182Y-15402746D02*
X11910658Y-15355127D01*
X11910658Y-15355127D02*
X11901134Y-15326555D01*
X11901134Y-15326555D02*
X11891611Y-15307508D01*
X11891611Y-15307508D02*
X11872563Y-15278936D01*
X11872563Y-15278936D02*
X11863039Y-15269412D01*
D12*
X6852500Y-15625500D02*
X6852500Y-15715500D01*
X6807500Y-15670500D02*
X6897500Y-15670500D01*
D11*
X7196372Y-15561984D02*
X7215420Y-15561984D01*
X7215420Y-15561984D02*
X7234467Y-15571508D01*
X7234467Y-15571508D02*
X7243991Y-15581031D01*
X7243991Y-15581031D02*
X7253515Y-15600079D01*
X7253515Y-15600079D02*
X7263039Y-15638174D01*
X7263039Y-15638174D02*
X7263039Y-15685793D01*
X7263039Y-15685793D02*
X7253515Y-15723888D01*
X7253515Y-15723888D02*
X7243991Y-15742936D01*
X7243991Y-15742936D02*
X7234467Y-15752460D01*
X7234467Y-15752460D02*
X7215420Y-15761984D01*
X7215420Y-15761984D02*
X7196372Y-15761984D01*
X7196372Y-15761984D02*
X7177324Y-15752460D01*
X7177324Y-15752460D02*
X7167801Y-15742936D01*
X7167801Y-15742936D02*
X7158277Y-15723888D01*
X7158277Y-15723888D02*
X7148753Y-15685793D01*
X7148753Y-15685793D02*
X7148753Y-15638174D01*
X7148753Y-15638174D02*
X7158277Y-15600079D01*
X7158277Y-15600079D02*
X7167801Y-15581031D01*
X7167801Y-15581031D02*
X7177324Y-15571508D01*
X7177324Y-15571508D02*
X7196372Y-15561984D01*
X7348753Y-15742936D02*
X7358277Y-15752460D01*
X7358277Y-15752460D02*
X7348753Y-15761984D01*
X7348753Y-15761984D02*
X7339229Y-15752460D01*
X7339229Y-15752460D02*
X7348753Y-15742936D01*
X7348753Y-15742936D02*
X7348753Y-15761984D01*
X7453515Y-15761984D02*
X7491610Y-15761984D01*
X7491610Y-15761984D02*
X7510658Y-15752460D01*
X7510658Y-15752460D02*
X7520182Y-15742936D01*
X7520182Y-15742936D02*
X7539229Y-15714365D01*
X7539229Y-15714365D02*
X7548753Y-15676269D01*
X7548753Y-15676269D02*
X7548753Y-15600079D01*
X7548753Y-15600079D02*
X7539229Y-15581031D01*
X7539229Y-15581031D02*
X7529705Y-15571508D01*
X7529705Y-15571508D02*
X7510658Y-15561984D01*
X7510658Y-15561984D02*
X7472562Y-15561984D01*
X7472562Y-15561984D02*
X7453515Y-15571508D01*
X7453515Y-15571508D02*
X7443991Y-15581031D01*
X7443991Y-15581031D02*
X7434467Y-15600079D01*
X7434467Y-15600079D02*
X7434467Y-15647698D01*
X7434467Y-15647698D02*
X7443991Y-15666746D01*
X7443991Y-15666746D02*
X7453515Y-15676269D01*
X7453515Y-15676269D02*
X7472562Y-15685793D01*
X7472562Y-15685793D02*
X7510658Y-15685793D01*
X7510658Y-15685793D02*
X7529705Y-15676269D01*
X7529705Y-15676269D02*
X7539229Y-15666746D01*
X7539229Y-15666746D02*
X7548753Y-15647698D01*
X7672562Y-15561984D02*
X7691610Y-15561984D01*
X7691610Y-15561984D02*
X7710658Y-15571508D01*
X7710658Y-15571508D02*
X7720182Y-15581031D01*
X7720182Y-15581031D02*
X7729705Y-15600079D01*
X7729705Y-15600079D02*
X7739229Y-15638174D01*
X7739229Y-15638174D02*
X7739229Y-15685793D01*
X7739229Y-15685793D02*
X7729705Y-15723888D01*
X7729705Y-15723888D02*
X7720182Y-15742936D01*
X7720182Y-15742936D02*
X7710658Y-15752460D01*
X7710658Y-15752460D02*
X7691610Y-15761984D01*
X7691610Y-15761984D02*
X7672562Y-15761984D01*
X7672562Y-15761984D02*
X7653515Y-15752460D01*
X7653515Y-15752460D02*
X7643991Y-15742936D01*
X7643991Y-15742936D02*
X7634467Y-15723888D01*
X7634467Y-15723888D02*
X7624943Y-15685793D01*
X7624943Y-15685793D02*
X7624943Y-15638174D01*
X7624943Y-15638174D02*
X7634467Y-15600079D01*
X7634467Y-15600079D02*
X7643991Y-15581031D01*
X7643991Y-15581031D02*
X7653515Y-15571508D01*
X7653515Y-15571508D02*
X7672562Y-15561984D01*
X7863039Y-15561984D02*
X7882086Y-15561984D01*
X7882086Y-15561984D02*
X7901134Y-15571508D01*
X7901134Y-15571508D02*
X7910658Y-15581031D01*
X7910658Y-15581031D02*
X7920182Y-15600079D01*
X7920182Y-15600079D02*
X7929705Y-15638174D01*
X7929705Y-15638174D02*
X7929705Y-15685793D01*
X7929705Y-15685793D02*
X7920182Y-15723888D01*
X7920182Y-15723888D02*
X7910658Y-15742936D01*
X7910658Y-15742936D02*
X7901134Y-15752460D01*
X7901134Y-15752460D02*
X7882086Y-15761984D01*
X7882086Y-15761984D02*
X7863039Y-15761984D01*
X7863039Y-15761984D02*
X7843991Y-15752460D01*
X7843991Y-15752460D02*
X7834467Y-15742936D01*
X7834467Y-15742936D02*
X7824943Y-15723888D01*
X7824943Y-15723888D02*
X7815420Y-15685793D01*
X7815420Y-15685793D02*
X7815420Y-15638174D01*
X7815420Y-15638174D02*
X7824943Y-15600079D01*
X7824943Y-15600079D02*
X7834467Y-15581031D01*
X7834467Y-15581031D02*
X7843991Y-15571508D01*
X7843991Y-15571508D02*
X7863039Y-15561984D01*
X8015420Y-15761984D02*
X8015420Y-15628650D01*
X8015420Y-15647698D02*
X8024943Y-15638174D01*
X8024943Y-15638174D02*
X8043991Y-15628650D01*
X8043991Y-15628650D02*
X8072563Y-15628650D01*
X8072563Y-15628650D02*
X8091610Y-15638174D01*
X8091610Y-15638174D02*
X8101134Y-15657222D01*
X8101134Y-15657222D02*
X8101134Y-15761984D01*
X8101134Y-15657222D02*
X8110658Y-15638174D01*
X8110658Y-15638174D02*
X8129705Y-15628650D01*
X8129705Y-15628650D02*
X8158277Y-15628650D01*
X8158277Y-15628650D02*
X8177324Y-15638174D01*
X8177324Y-15638174D02*
X8186848Y-15657222D01*
X8186848Y-15657222D02*
X8186848Y-15761984D01*
X8282086Y-15761984D02*
X8282086Y-15628650D01*
X8282086Y-15647698D02*
X8291610Y-15638174D01*
X8291610Y-15638174D02*
X8310658Y-15628650D01*
X8310658Y-15628650D02*
X8339229Y-15628650D01*
X8339229Y-15628650D02*
X8358277Y-15638174D01*
X8358277Y-15638174D02*
X8367801Y-15657222D01*
X8367801Y-15657222D02*
X8367801Y-15761984D01*
X8367801Y-15657222D02*
X8377324Y-15638174D01*
X8377324Y-15638174D02*
X8396372Y-15628650D01*
X8396372Y-15628650D02*
X8424944Y-15628650D01*
X8424944Y-15628650D02*
X8443991Y-15638174D01*
X8443991Y-15638174D02*
X8453515Y-15657222D01*
X8453515Y-15657222D02*
X8453515Y-15761984D01*
X8843991Y-15552460D02*
X8672563Y-15809603D01*
X9101134Y-15561984D02*
X9120182Y-15561984D01*
X9120182Y-15561984D02*
X9139229Y-15571508D01*
X9139229Y-15571508D02*
X9148753Y-15581031D01*
X9148753Y-15581031D02*
X9158277Y-15600079D01*
X9158277Y-15600079D02*
X9167801Y-15638174D01*
X9167801Y-15638174D02*
X9167801Y-15685793D01*
X9167801Y-15685793D02*
X9158277Y-15723888D01*
X9158277Y-15723888D02*
X9148753Y-15742936D01*
X9148753Y-15742936D02*
X9139229Y-15752460D01*
X9139229Y-15752460D02*
X9120182Y-15761984D01*
X9120182Y-15761984D02*
X9101134Y-15761984D01*
X9101134Y-15761984D02*
X9082087Y-15752460D01*
X9082087Y-15752460D02*
X9072563Y-15742936D01*
X9072563Y-15742936D02*
X9063039Y-15723888D01*
X9063039Y-15723888D02*
X9053515Y-15685793D01*
X9053515Y-15685793D02*
X9053515Y-15638174D01*
X9053515Y-15638174D02*
X9063039Y-15600079D01*
X9063039Y-15600079D02*
X9072563Y-15581031D01*
X9072563Y-15581031D02*
X9082087Y-15571508D01*
X9082087Y-15571508D02*
X9101134Y-15561984D01*
X9253515Y-15742936D02*
X9263039Y-15752460D01*
X9263039Y-15752460D02*
X9253515Y-15761984D01*
X9253515Y-15761984D02*
X9243991Y-15752460D01*
X9243991Y-15752460D02*
X9253515Y-15742936D01*
X9253515Y-15742936D02*
X9253515Y-15761984D01*
X9386848Y-15561984D02*
X9405896Y-15561984D01*
X9405896Y-15561984D02*
X9424944Y-15571508D01*
X9424944Y-15571508D02*
X9434468Y-15581031D01*
X9434468Y-15581031D02*
X9443991Y-15600079D01*
X9443991Y-15600079D02*
X9453515Y-15638174D01*
X9453515Y-15638174D02*
X9453515Y-15685793D01*
X9453515Y-15685793D02*
X9443991Y-15723888D01*
X9443991Y-15723888D02*
X9434468Y-15742936D01*
X9434468Y-15742936D02*
X9424944Y-15752460D01*
X9424944Y-15752460D02*
X9405896Y-15761984D01*
X9405896Y-15761984D02*
X9386848Y-15761984D01*
X9386848Y-15761984D02*
X9367801Y-15752460D01*
X9367801Y-15752460D02*
X9358277Y-15742936D01*
X9358277Y-15742936D02*
X9348753Y-15723888D01*
X9348753Y-15723888D02*
X9339229Y-15685793D01*
X9339229Y-15685793D02*
X9339229Y-15638174D01*
X9339229Y-15638174D02*
X9348753Y-15600079D01*
X9348753Y-15600079D02*
X9358277Y-15581031D01*
X9358277Y-15581031D02*
X9367801Y-15571508D01*
X9367801Y-15571508D02*
X9386848Y-15561984D01*
X9520182Y-15561984D02*
X9643991Y-15561984D01*
X9643991Y-15561984D02*
X9577325Y-15638174D01*
X9577325Y-15638174D02*
X9605896Y-15638174D01*
X9605896Y-15638174D02*
X9624944Y-15647698D01*
X9624944Y-15647698D02*
X9634468Y-15657222D01*
X9634468Y-15657222D02*
X9643991Y-15676269D01*
X9643991Y-15676269D02*
X9643991Y-15723888D01*
X9643991Y-15723888D02*
X9634468Y-15742936D01*
X9634468Y-15742936D02*
X9624944Y-15752460D01*
X9624944Y-15752460D02*
X9605896Y-15761984D01*
X9605896Y-15761984D02*
X9548753Y-15761984D01*
X9548753Y-15761984D02*
X9529706Y-15752460D01*
X9529706Y-15752460D02*
X9520182Y-15742936D01*
X9824944Y-15561984D02*
X9729706Y-15561984D01*
X9729706Y-15561984D02*
X9720182Y-15657222D01*
X9720182Y-15657222D02*
X9729706Y-15647698D01*
X9729706Y-15647698D02*
X9748753Y-15638174D01*
X9748753Y-15638174D02*
X9796372Y-15638174D01*
X9796372Y-15638174D02*
X9815420Y-15647698D01*
X9815420Y-15647698D02*
X9824944Y-15657222D01*
X9824944Y-15657222D02*
X9834468Y-15676269D01*
X9834468Y-15676269D02*
X9834468Y-15723888D01*
X9834468Y-15723888D02*
X9824944Y-15742936D01*
X9824944Y-15742936D02*
X9815420Y-15752460D01*
X9815420Y-15752460D02*
X9796372Y-15761984D01*
X9796372Y-15761984D02*
X9748753Y-15761984D01*
X9748753Y-15761984D02*
X9729706Y-15752460D01*
X9729706Y-15752460D02*
X9720182Y-15742936D01*
X10005896Y-15628650D02*
X10005896Y-15761984D01*
X9958277Y-15552460D02*
X9910658Y-15695317D01*
X9910658Y-15695317D02*
X10034468Y-15695317D01*
X10101134Y-15561984D02*
X10101134Y-15600079D01*
X10177325Y-15561984D02*
X10177325Y-15600079D01*
X10472563Y-15838174D02*
X10463039Y-15828650D01*
X10463039Y-15828650D02*
X10443991Y-15800079D01*
X10443991Y-15800079D02*
X10434468Y-15781031D01*
X10434468Y-15781031D02*
X10424944Y-15752460D01*
X10424944Y-15752460D02*
X10415420Y-15704841D01*
X10415420Y-15704841D02*
X10415420Y-15666746D01*
X10415420Y-15666746D02*
X10424944Y-15619127D01*
X10424944Y-15619127D02*
X10434468Y-15590555D01*
X10434468Y-15590555D02*
X10443991Y-15571508D01*
X10443991Y-15571508D02*
X10463039Y-15542936D01*
X10463039Y-15542936D02*
X10472563Y-15533412D01*
X10529706Y-15561984D02*
X10653515Y-15561984D01*
X10653515Y-15561984D02*
X10586849Y-15638174D01*
X10586849Y-15638174D02*
X10615420Y-15638174D01*
X10615420Y-15638174D02*
X10634468Y-15647698D01*
X10634468Y-15647698D02*
X10643991Y-15657222D01*
X10643991Y-15657222D02*
X10653515Y-15676269D01*
X10653515Y-15676269D02*
X10653515Y-15723888D01*
X10653515Y-15723888D02*
X10643991Y-15742936D01*
X10643991Y-15742936D02*
X10634468Y-15752460D01*
X10634468Y-15752460D02*
X10615420Y-15761984D01*
X10615420Y-15761984D02*
X10558277Y-15761984D01*
X10558277Y-15761984D02*
X10539230Y-15752460D01*
X10539230Y-15752460D02*
X10529706Y-15742936D01*
X10729706Y-15581031D02*
X10739230Y-15571508D01*
X10739230Y-15571508D02*
X10758277Y-15561984D01*
X10758277Y-15561984D02*
X10805896Y-15561984D01*
X10805896Y-15561984D02*
X10824944Y-15571508D01*
X10824944Y-15571508D02*
X10834468Y-15581031D01*
X10834468Y-15581031D02*
X10843991Y-15600079D01*
X10843991Y-15600079D02*
X10843991Y-15619127D01*
X10843991Y-15619127D02*
X10834468Y-15647698D01*
X10834468Y-15647698D02*
X10720182Y-15761984D01*
X10720182Y-15761984D02*
X10843991Y-15761984D01*
X11082087Y-15761984D02*
X11082087Y-15561984D01*
X11167801Y-15761984D02*
X11167801Y-15657222D01*
X11167801Y-15657222D02*
X11158277Y-15638174D01*
X11158277Y-15638174D02*
X11139230Y-15628650D01*
X11139230Y-15628650D02*
X11110658Y-15628650D01*
X11110658Y-15628650D02*
X11091611Y-15638174D01*
X11091611Y-15638174D02*
X11082087Y-15647698D01*
X11291610Y-15761984D02*
X11272563Y-15752460D01*
X11272563Y-15752460D02*
X11263039Y-15742936D01*
X11263039Y-15742936D02*
X11253515Y-15723888D01*
X11253515Y-15723888D02*
X11253515Y-15666746D01*
X11253515Y-15666746D02*
X11263039Y-15647698D01*
X11263039Y-15647698D02*
X11272563Y-15638174D01*
X11272563Y-15638174D02*
X11291610Y-15628650D01*
X11291610Y-15628650D02*
X11320182Y-15628650D01*
X11320182Y-15628650D02*
X11339230Y-15638174D01*
X11339230Y-15638174D02*
X11348753Y-15647698D01*
X11348753Y-15647698D02*
X11358277Y-15666746D01*
X11358277Y-15666746D02*
X11358277Y-15723888D01*
X11358277Y-15723888D02*
X11348753Y-15742936D01*
X11348753Y-15742936D02*
X11339230Y-15752460D01*
X11339230Y-15752460D02*
X11320182Y-15761984D01*
X11320182Y-15761984D02*
X11291610Y-15761984D01*
X11472563Y-15761984D02*
X11453515Y-15752460D01*
X11453515Y-15752460D02*
X11443991Y-15733412D01*
X11443991Y-15733412D02*
X11443991Y-15561984D01*
X11624944Y-15752460D02*
X11605896Y-15761984D01*
X11605896Y-15761984D02*
X11567801Y-15761984D01*
X11567801Y-15761984D02*
X11548753Y-15752460D01*
X11548753Y-15752460D02*
X11539230Y-15733412D01*
X11539230Y-15733412D02*
X11539230Y-15657222D01*
X11539230Y-15657222D02*
X11548753Y-15638174D01*
X11548753Y-15638174D02*
X11567801Y-15628650D01*
X11567801Y-15628650D02*
X11605896Y-15628650D01*
X11605896Y-15628650D02*
X11624944Y-15638174D01*
X11624944Y-15638174D02*
X11634468Y-15657222D01*
X11634468Y-15657222D02*
X11634468Y-15676269D01*
X11634468Y-15676269D02*
X11539230Y-15695317D01*
X11710658Y-15752460D02*
X11729706Y-15761984D01*
X11729706Y-15761984D02*
X11767801Y-15761984D01*
X11767801Y-15761984D02*
X11786849Y-15752460D01*
X11786849Y-15752460D02*
X11796372Y-15733412D01*
X11796372Y-15733412D02*
X11796372Y-15723888D01*
X11796372Y-15723888D02*
X11786849Y-15704841D01*
X11786849Y-15704841D02*
X11767801Y-15695317D01*
X11767801Y-15695317D02*
X11739230Y-15695317D01*
X11739230Y-15695317D02*
X11720182Y-15685793D01*
X11720182Y-15685793D02*
X11710658Y-15666746D01*
X11710658Y-15666746D02*
X11710658Y-15657222D01*
X11710658Y-15657222D02*
X11720182Y-15638174D01*
X11720182Y-15638174D02*
X11739230Y-15628650D01*
X11739230Y-15628650D02*
X11767801Y-15628650D01*
X11767801Y-15628650D02*
X11786849Y-15638174D01*
X11863039Y-15838174D02*
X11872563Y-15828650D01*
X11872563Y-15828650D02*
X11891611Y-15800079D01*
X11891611Y-15800079D02*
X11901134Y-15781031D01*
X11901134Y-15781031D02*
X11910658Y-15752460D01*
X11910658Y-15752460D02*
X11920182Y-15704841D01*
X11920182Y-15704841D02*
X11920182Y-15666746D01*
X11920182Y-15666746D02*
X11910658Y-15619127D01*
X11910658Y-15619127D02*
X11901134Y-15590555D01*
X11901134Y-15590555D02*
X11891611Y-15571508D01*
X11891611Y-15571508D02*
X11872563Y-15542936D01*
X11872563Y-15542936D02*
X11863039Y-15533412D01*
D13*
X6875533Y-15987533D02*
X6875533Y-15881466D01*
X6769466Y-15881466D01*
X6769466Y-15987533D01*
X6875533Y-15987533D01*
D11*
X7263039Y-16025984D02*
X7148753Y-16025984D01*
X7205896Y-16025984D02*
X7205896Y-15825984D01*
X7205896Y-15825984D02*
X7186848Y-15854555D01*
X7186848Y-15854555D02*
X7167801Y-15873603D01*
X7167801Y-15873603D02*
X7148753Y-15883127D01*
X7348753Y-16006936D02*
X7358277Y-16016460D01*
X7358277Y-16016460D02*
X7348753Y-16025984D01*
X7348753Y-16025984D02*
X7339229Y-16016460D01*
X7339229Y-16016460D02*
X7348753Y-16006936D01*
X7348753Y-16006936D02*
X7348753Y-16025984D01*
X7539229Y-15825984D02*
X7443991Y-15825984D01*
X7443991Y-15825984D02*
X7434467Y-15921222D01*
X7434467Y-15921222D02*
X7443991Y-15911698D01*
X7443991Y-15911698D02*
X7463039Y-15902174D01*
X7463039Y-15902174D02*
X7510658Y-15902174D01*
X7510658Y-15902174D02*
X7529705Y-15911698D01*
X7529705Y-15911698D02*
X7539229Y-15921222D01*
X7539229Y-15921222D02*
X7548753Y-15940269D01*
X7548753Y-15940269D02*
X7548753Y-15987888D01*
X7548753Y-15987888D02*
X7539229Y-16006936D01*
X7539229Y-16006936D02*
X7529705Y-16016460D01*
X7529705Y-16016460D02*
X7510658Y-16025984D01*
X7510658Y-16025984D02*
X7463039Y-16025984D01*
X7463039Y-16025984D02*
X7443991Y-16016460D01*
X7443991Y-16016460D02*
X7434467Y-16006936D01*
X7672562Y-15825984D02*
X7691610Y-15825984D01*
X7691610Y-15825984D02*
X7710658Y-15835508D01*
X7710658Y-15835508D02*
X7720182Y-15845031D01*
X7720182Y-15845031D02*
X7729705Y-15864079D01*
X7729705Y-15864079D02*
X7739229Y-15902174D01*
X7739229Y-15902174D02*
X7739229Y-15949793D01*
X7739229Y-15949793D02*
X7729705Y-15987888D01*
X7729705Y-15987888D02*
X7720182Y-16006936D01*
X7720182Y-16006936D02*
X7710658Y-16016460D01*
X7710658Y-16016460D02*
X7691610Y-16025984D01*
X7691610Y-16025984D02*
X7672562Y-16025984D01*
X7672562Y-16025984D02*
X7653515Y-16016460D01*
X7653515Y-16016460D02*
X7643991Y-16006936D01*
X7643991Y-16006936D02*
X7634467Y-15987888D01*
X7634467Y-15987888D02*
X7624943Y-15949793D01*
X7624943Y-15949793D02*
X7624943Y-15902174D01*
X7624943Y-15902174D02*
X7634467Y-15864079D01*
X7634467Y-15864079D02*
X7643991Y-15845031D01*
X7643991Y-15845031D02*
X7653515Y-15835508D01*
X7653515Y-15835508D02*
X7672562Y-15825984D01*
X7863039Y-15825984D02*
X7882086Y-15825984D01*
X7882086Y-15825984D02*
X7901134Y-15835508D01*
X7901134Y-15835508D02*
X7910658Y-15845031D01*
X7910658Y-15845031D02*
X7920182Y-15864079D01*
X7920182Y-15864079D02*
X7929705Y-15902174D01*
X7929705Y-15902174D02*
X7929705Y-15949793D01*
X7929705Y-15949793D02*
X7920182Y-15987888D01*
X7920182Y-15987888D02*
X7910658Y-16006936D01*
X7910658Y-16006936D02*
X7901134Y-16016460D01*
X7901134Y-16016460D02*
X7882086Y-16025984D01*
X7882086Y-16025984D02*
X7863039Y-16025984D01*
X7863039Y-16025984D02*
X7843991Y-16016460D01*
X7843991Y-16016460D02*
X7834467Y-16006936D01*
X7834467Y-16006936D02*
X7824943Y-15987888D01*
X7824943Y-15987888D02*
X7815420Y-15949793D01*
X7815420Y-15949793D02*
X7815420Y-15902174D01*
X7815420Y-15902174D02*
X7824943Y-15864079D01*
X7824943Y-15864079D02*
X7834467Y-15845031D01*
X7834467Y-15845031D02*
X7843991Y-15835508D01*
X7843991Y-15835508D02*
X7863039Y-15825984D01*
X8015420Y-16025984D02*
X8015420Y-15892650D01*
X8015420Y-15911698D02*
X8024943Y-15902174D01*
X8024943Y-15902174D02*
X8043991Y-15892650D01*
X8043991Y-15892650D02*
X8072563Y-15892650D01*
X8072563Y-15892650D02*
X8091610Y-15902174D01*
X8091610Y-15902174D02*
X8101134Y-15921222D01*
X8101134Y-15921222D02*
X8101134Y-16025984D01*
X8101134Y-15921222D02*
X8110658Y-15902174D01*
X8110658Y-15902174D02*
X8129705Y-15892650D01*
X8129705Y-15892650D02*
X8158277Y-15892650D01*
X8158277Y-15892650D02*
X8177324Y-15902174D01*
X8177324Y-15902174D02*
X8186848Y-15921222D01*
X8186848Y-15921222D02*
X8186848Y-16025984D01*
X8282086Y-16025984D02*
X8282086Y-15892650D01*
X8282086Y-15911698D02*
X8291610Y-15902174D01*
X8291610Y-15902174D02*
X8310658Y-15892650D01*
X8310658Y-15892650D02*
X8339229Y-15892650D01*
X8339229Y-15892650D02*
X8358277Y-15902174D01*
X8358277Y-15902174D02*
X8367801Y-15921222D01*
X8367801Y-15921222D02*
X8367801Y-16025984D01*
X8367801Y-15921222D02*
X8377324Y-15902174D01*
X8377324Y-15902174D02*
X8396372Y-15892650D01*
X8396372Y-15892650D02*
X8424944Y-15892650D01*
X8424944Y-15892650D02*
X8443991Y-15902174D01*
X8443991Y-15902174D02*
X8453515Y-15921222D01*
X8453515Y-15921222D02*
X8453515Y-16025984D01*
X8843991Y-15816460D02*
X8672563Y-16073603D01*
X9101134Y-15825984D02*
X9120182Y-15825984D01*
X9120182Y-15825984D02*
X9139229Y-15835508D01*
X9139229Y-15835508D02*
X9148753Y-15845031D01*
X9148753Y-15845031D02*
X9158277Y-15864079D01*
X9158277Y-15864079D02*
X9167801Y-15902174D01*
X9167801Y-15902174D02*
X9167801Y-15949793D01*
X9167801Y-15949793D02*
X9158277Y-15987888D01*
X9158277Y-15987888D02*
X9148753Y-16006936D01*
X9148753Y-16006936D02*
X9139229Y-16016460D01*
X9139229Y-16016460D02*
X9120182Y-16025984D01*
X9120182Y-16025984D02*
X9101134Y-16025984D01*
X9101134Y-16025984D02*
X9082087Y-16016460D01*
X9082087Y-16016460D02*
X9072563Y-16006936D01*
X9072563Y-16006936D02*
X9063039Y-15987888D01*
X9063039Y-15987888D02*
X9053515Y-15949793D01*
X9053515Y-15949793D02*
X9053515Y-15902174D01*
X9053515Y-15902174D02*
X9063039Y-15864079D01*
X9063039Y-15864079D02*
X9072563Y-15845031D01*
X9072563Y-15845031D02*
X9082087Y-15835508D01*
X9082087Y-15835508D02*
X9101134Y-15825984D01*
X9253515Y-16006936D02*
X9263039Y-16016460D01*
X9263039Y-16016460D02*
X9253515Y-16025984D01*
X9253515Y-16025984D02*
X9243991Y-16016460D01*
X9243991Y-16016460D02*
X9253515Y-16006936D01*
X9253515Y-16006936D02*
X9253515Y-16025984D01*
X9386848Y-15825984D02*
X9405896Y-15825984D01*
X9405896Y-15825984D02*
X9424944Y-15835508D01*
X9424944Y-15835508D02*
X9434468Y-15845031D01*
X9434468Y-15845031D02*
X9443991Y-15864079D01*
X9443991Y-15864079D02*
X9453515Y-15902174D01*
X9453515Y-15902174D02*
X9453515Y-15949793D01*
X9453515Y-15949793D02*
X9443991Y-15987888D01*
X9443991Y-15987888D02*
X9434468Y-16006936D01*
X9434468Y-16006936D02*
X9424944Y-16016460D01*
X9424944Y-16016460D02*
X9405896Y-16025984D01*
X9405896Y-16025984D02*
X9386848Y-16025984D01*
X9386848Y-16025984D02*
X9367801Y-16016460D01*
X9367801Y-16016460D02*
X9358277Y-16006936D01*
X9358277Y-16006936D02*
X9348753Y-15987888D01*
X9348753Y-15987888D02*
X9339229Y-15949793D01*
X9339229Y-15949793D02*
X9339229Y-15902174D01*
X9339229Y-15902174D02*
X9348753Y-15864079D01*
X9348753Y-15864079D02*
X9358277Y-15845031D01*
X9358277Y-15845031D02*
X9367801Y-15835508D01*
X9367801Y-15835508D02*
X9386848Y-15825984D01*
X9634468Y-15825984D02*
X9539229Y-15825984D01*
X9539229Y-15825984D02*
X9529706Y-15921222D01*
X9529706Y-15921222D02*
X9539229Y-15911698D01*
X9539229Y-15911698D02*
X9558277Y-15902174D01*
X9558277Y-15902174D02*
X9605896Y-15902174D01*
X9605896Y-15902174D02*
X9624944Y-15911698D01*
X9624944Y-15911698D02*
X9634468Y-15921222D01*
X9634468Y-15921222D02*
X9643991Y-15940269D01*
X9643991Y-15940269D02*
X9643991Y-15987888D01*
X9643991Y-15987888D02*
X9634468Y-16006936D01*
X9634468Y-16006936D02*
X9624944Y-16016460D01*
X9624944Y-16016460D02*
X9605896Y-16025984D01*
X9605896Y-16025984D02*
X9558277Y-16025984D01*
X9558277Y-16025984D02*
X9539229Y-16016460D01*
X9539229Y-16016460D02*
X9529706Y-16006936D01*
X9739229Y-16025984D02*
X9777325Y-16025984D01*
X9777325Y-16025984D02*
X9796372Y-16016460D01*
X9796372Y-16016460D02*
X9805896Y-16006936D01*
X9805896Y-16006936D02*
X9824944Y-15978365D01*
X9824944Y-15978365D02*
X9834468Y-15940269D01*
X9834468Y-15940269D02*
X9834468Y-15864079D01*
X9834468Y-15864079D02*
X9824944Y-15845031D01*
X9824944Y-15845031D02*
X9815420Y-15835508D01*
X9815420Y-15835508D02*
X9796372Y-15825984D01*
X9796372Y-15825984D02*
X9758277Y-15825984D01*
X9758277Y-15825984D02*
X9739229Y-15835508D01*
X9739229Y-15835508D02*
X9729706Y-15845031D01*
X9729706Y-15845031D02*
X9720182Y-15864079D01*
X9720182Y-15864079D02*
X9720182Y-15911698D01*
X9720182Y-15911698D02*
X9729706Y-15930746D01*
X9729706Y-15930746D02*
X9739229Y-15940269D01*
X9739229Y-15940269D02*
X9758277Y-15949793D01*
X9758277Y-15949793D02*
X9796372Y-15949793D01*
X9796372Y-15949793D02*
X9815420Y-15940269D01*
X9815420Y-15940269D02*
X9824944Y-15930746D01*
X9824944Y-15930746D02*
X9834468Y-15911698D01*
X10024944Y-16025984D02*
X9910658Y-16025984D01*
X9967801Y-16025984D02*
X9967801Y-15825984D01*
X9967801Y-15825984D02*
X9948753Y-15854555D01*
X9948753Y-15854555D02*
X9929706Y-15873603D01*
X9929706Y-15873603D02*
X9910658Y-15883127D01*
X10101134Y-15825984D02*
X10101134Y-15864079D01*
X10177325Y-15825984D02*
X10177325Y-15864079D01*
X10472563Y-16102174D02*
X10463039Y-16092650D01*
X10463039Y-16092650D02*
X10443991Y-16064079D01*
X10443991Y-16064079D02*
X10434468Y-16045031D01*
X10434468Y-16045031D02*
X10424944Y-16016460D01*
X10424944Y-16016460D02*
X10415420Y-15968841D01*
X10415420Y-15968841D02*
X10415420Y-15930746D01*
X10415420Y-15930746D02*
X10424944Y-15883127D01*
X10424944Y-15883127D02*
X10434468Y-15854555D01*
X10434468Y-15854555D02*
X10443991Y-15835508D01*
X10443991Y-15835508D02*
X10463039Y-15806936D01*
X10463039Y-15806936D02*
X10472563Y-15797412D01*
X10529706Y-15825984D02*
X10653515Y-15825984D01*
X10653515Y-15825984D02*
X10586849Y-15902174D01*
X10586849Y-15902174D02*
X10615420Y-15902174D01*
X10615420Y-15902174D02*
X10634468Y-15911698D01*
X10634468Y-15911698D02*
X10643991Y-15921222D01*
X10643991Y-15921222D02*
X10653515Y-15940269D01*
X10653515Y-15940269D02*
X10653515Y-15987888D01*
X10653515Y-15987888D02*
X10643991Y-16006936D01*
X10643991Y-16006936D02*
X10634468Y-16016460D01*
X10634468Y-16016460D02*
X10615420Y-16025984D01*
X10615420Y-16025984D02*
X10558277Y-16025984D01*
X10558277Y-16025984D02*
X10539230Y-16016460D01*
X10539230Y-16016460D02*
X10529706Y-16006936D01*
X10729706Y-15845031D02*
X10739230Y-15835508D01*
X10739230Y-15835508D02*
X10758277Y-15825984D01*
X10758277Y-15825984D02*
X10805896Y-15825984D01*
X10805896Y-15825984D02*
X10824944Y-15835508D01*
X10824944Y-15835508D02*
X10834468Y-15845031D01*
X10834468Y-15845031D02*
X10843991Y-15864079D01*
X10843991Y-15864079D02*
X10843991Y-15883127D01*
X10843991Y-15883127D02*
X10834468Y-15911698D01*
X10834468Y-15911698D02*
X10720182Y-16025984D01*
X10720182Y-16025984D02*
X10843991Y-16025984D01*
X11082087Y-16025984D02*
X11082087Y-15825984D01*
X11167801Y-16025984D02*
X11167801Y-15921222D01*
X11167801Y-15921222D02*
X11158277Y-15902174D01*
X11158277Y-15902174D02*
X11139230Y-15892650D01*
X11139230Y-15892650D02*
X11110658Y-15892650D01*
X11110658Y-15892650D02*
X11091611Y-15902174D01*
X11091611Y-15902174D02*
X11082087Y-15911698D01*
X11291610Y-16025984D02*
X11272563Y-16016460D01*
X11272563Y-16016460D02*
X11263039Y-16006936D01*
X11263039Y-16006936D02*
X11253515Y-15987888D01*
X11253515Y-15987888D02*
X11253515Y-15930746D01*
X11253515Y-15930746D02*
X11263039Y-15911698D01*
X11263039Y-15911698D02*
X11272563Y-15902174D01*
X11272563Y-15902174D02*
X11291610Y-15892650D01*
X11291610Y-15892650D02*
X11320182Y-15892650D01*
X11320182Y-15892650D02*
X11339230Y-15902174D01*
X11339230Y-15902174D02*
X11348753Y-15911698D01*
X11348753Y-15911698D02*
X11358277Y-15930746D01*
X11358277Y-15930746D02*
X11358277Y-15987888D01*
X11358277Y-15987888D02*
X11348753Y-16006936D01*
X11348753Y-16006936D02*
X11339230Y-16016460D01*
X11339230Y-16016460D02*
X11320182Y-16025984D01*
X11320182Y-16025984D02*
X11291610Y-16025984D01*
X11472563Y-16025984D02*
X11453515Y-16016460D01*
X11453515Y-16016460D02*
X11443991Y-15997412D01*
X11443991Y-15997412D02*
X11443991Y-15825984D01*
X11624944Y-16016460D02*
X11605896Y-16025984D01*
X11605896Y-16025984D02*
X11567801Y-16025984D01*
X11567801Y-16025984D02*
X11548753Y-16016460D01*
X11548753Y-16016460D02*
X11539230Y-15997412D01*
X11539230Y-15997412D02*
X11539230Y-15921222D01*
X11539230Y-15921222D02*
X11548753Y-15902174D01*
X11548753Y-15902174D02*
X11567801Y-15892650D01*
X11567801Y-15892650D02*
X11605896Y-15892650D01*
X11605896Y-15892650D02*
X11624944Y-15902174D01*
X11624944Y-15902174D02*
X11634468Y-15921222D01*
X11634468Y-15921222D02*
X11634468Y-15940269D01*
X11634468Y-15940269D02*
X11539230Y-15959317D01*
X11710658Y-16016460D02*
X11729706Y-16025984D01*
X11729706Y-16025984D02*
X11767801Y-16025984D01*
X11767801Y-16025984D02*
X11786849Y-16016460D01*
X11786849Y-16016460D02*
X11796372Y-15997412D01*
X11796372Y-15997412D02*
X11796372Y-15987888D01*
X11796372Y-15987888D02*
X11786849Y-15968841D01*
X11786849Y-15968841D02*
X11767801Y-15959317D01*
X11767801Y-15959317D02*
X11739230Y-15959317D01*
X11739230Y-15959317D02*
X11720182Y-15949793D01*
X11720182Y-15949793D02*
X11710658Y-15930746D01*
X11710658Y-15930746D02*
X11710658Y-15921222D01*
X11710658Y-15921222D02*
X11720182Y-15902174D01*
X11720182Y-15902174D02*
X11739230Y-15892650D01*
X11739230Y-15892650D02*
X11767801Y-15892650D01*
X11767801Y-15892650D02*
X11786849Y-15902174D01*
X11863039Y-16102174D02*
X11872563Y-16092650D01*
X11872563Y-16092650D02*
X11891611Y-16064079D01*
X11891611Y-16064079D02*
X11901134Y-16045031D01*
X11901134Y-16045031D02*
X11910658Y-16016460D01*
X11910658Y-16016460D02*
X11920182Y-15968841D01*
X11920182Y-15968841D02*
X11920182Y-15930746D01*
X11920182Y-15930746D02*
X11910658Y-15883127D01*
X11910658Y-15883127D02*
X11901134Y-15854555D01*
X11901134Y-15854555D02*
X11891611Y-15835508D01*
X11891611Y-15835508D02*
X11872563Y-15806936D01*
X11872563Y-15806936D02*
X11863039Y-15797412D01*
M02*
