M48
; DRILL file {KiCad 9.0.0} date 2025-03-25T02:12:50-0500
; FORMAT={-:-/ absolute / metric / decimal}
; #@! TF.CreationDate,2025-03-25T02:12:50-05:00
; #@! TF.GenerationSoftware,Kicad,Pcbnew,9.0.0
; #@! TF.FileFunction,Plated,1,2,PTH
FMAT,2
METRIC
; #@! TA.AperFunction,Plated,PTH,ViaDrill
T1C0.300
; #@! TA.AperFunction,Plated,PTH,ComponentDrill
T2C0.800
; #@! TA.AperFunction,Plated,PTH,ComponentDrill
T3C0.900
; #@! TA.AperFunction,Plated,PTH,ComponentDrill
T4C1.500
%
G90
G05
T1
X72.0Y-95.5
X72.7Y-98.7
X74.438Y-65.037
X75.0Y-100.3
X75.2Y-70.7
X76.9Y-97.0
X78.0Y-66.3
X78.2Y-69.9
X78.4Y-90.4
X79.5Y-70.8
X79.8Y-90.4
X80.9Y-60.4
X81.1Y-90.4
X81.7Y-65.0
X82.1Y-60.4
X82.7Y-78.2
X83.3Y-54.8
X84.2Y-65.8
X84.2Y-99.7
X84.7Y-71.8
X85.2Y-96.9
X85.5Y-69.8
X85.6Y-73.6
X86.3Y-95.5
X86.7Y-87.6
X87.5Y-68.2
X88.0Y-58.7
X88.0Y-71.8
X88.1Y-89.0
X88.4Y-104.7
X89.1Y-91.0
X89.6Y-137.6
X89.7Y-109.3
X89.8Y-98.2
X90.3Y-70.6
X90.4Y-128.9
X91.5Y-116.5
X91.9Y-84.0
X92.4Y-91.1
X92.4Y-123.7
X92.5Y-107.8
X93.1Y-119.7
X95.2Y-71.6
X97.3Y-67.0
X98.4Y-102.5
X98.7Y-84.0
X102.2Y-67.4
X102.7Y-106.5
X102.9Y-77.6
X103.2Y-83.7
X103.2Y-87.7
X103.9Y-64.1
X104.6Y-81.3
X104.6Y-128.1
X104.7Y-98.3
X104.7Y-117.4
X106.0Y-87.1
X106.1Y-84.1
X106.5Y-69.1
X106.8Y-75.3
X106.9Y-84.2
X106.9Y-86.9
X107.1Y-72.9
X107.3Y-97.5
X108.0Y-140.1
X108.2Y-116.6
X109.1Y-81.3
X109.5Y-98.6
X109.5Y-100.8
X109.6Y-70.7
X109.6Y-109.7
X109.7Y-90.0
X109.7Y-128.9
X111.2Y-83.1
X111.3Y-97.9
X111.6Y-85.7
X116.8Y-55.8
X121.3Y-62.0
X123.9Y-98.3
X123.9Y-117.5
X124.0Y-68.6
X124.8Y-73.3
X125.4Y-75.3
X125.8Y-68.8
X126.9Y-97.7
X127.6Y-116.4
X127.9Y-77.9
X128.0Y-99.9
X128.0Y-142.7
X128.9Y-71.1
X128.9Y-90.1
X128.9Y-109.3
X128.9Y-128.8
X129.1Y-80.6
X130.6Y-102.6
X132.4Y-81.0
X141.1Y-69.4
X142.8Y-77.8
X143.2Y-117.5
X143.3Y-98.1
X145.0Y-76.3
X145.1Y-113.3
X146.0Y-96.3
X146.7Y-143.7
X148.1Y-70.8
X148.1Y-109.2
X148.2Y-89.9
X148.2Y-128.7
T2
X71.0Y-112.6
X71.0Y-115.14
X71.0Y-117.68
X71.0Y-120.22
X71.0Y-122.76
X71.0Y-125.3
X71.0Y-127.84
X71.0Y-130.38
X71.0Y-132.92
X71.0Y-135.46
X71.0Y-138.0
X71.0Y-140.54
X86.24Y-112.6
X86.24Y-115.14
X86.24Y-117.68
X86.24Y-120.22
X86.24Y-122.76
X86.24Y-125.3
X86.24Y-127.84
X86.24Y-130.38
X86.24Y-132.92
X86.24Y-135.46
X86.24Y-138.0
X86.24Y-140.54
T3
X96.96Y-74.8
X96.96Y-94.1
X96.96Y-113.3
X97.035Y-132.6
X99.5Y-74.8
X99.5Y-94.1
X99.5Y-113.3
X99.575Y-132.6
X116.2Y-132.6
X116.235Y-74.8
X116.235Y-94.1
X116.235Y-113.3
X118.74Y-132.6
X118.775Y-74.8
X118.775Y-94.1
X118.775Y-113.3
X135.035Y-132.6
X135.36Y-94.1
X135.46Y-74.8
X135.535Y-113.3
X137.575Y-132.6
X137.9Y-94.1
X138.0Y-74.8
X138.075Y-113.3
X154.735Y-113.3
X154.76Y-74.8
X154.76Y-94.1
X154.76Y-132.6
X157.275Y-113.3
X157.3Y-74.8
X157.3Y-94.1
X157.3Y-132.6
T4
X94.44Y-67.46
X94.44Y-86.71
X94.44Y-105.96
X94.45Y-125.19
X100.79Y-64.92
X100.79Y-84.17
X100.79Y-103.42
X100.8Y-122.65
X113.69Y-67.46
X113.69Y-86.71
X113.7Y-105.95
X113.7Y-125.2
X120.04Y-64.92
X120.04Y-84.17
X120.05Y-103.41
X120.05Y-122.66
X132.94Y-67.46
X132.94Y-86.71
X132.94Y-105.95
X132.95Y-125.2
X139.29Y-64.92
X139.29Y-84.17
X139.29Y-103.41
X139.3Y-122.66
X152.19Y-67.46
X152.19Y-86.71
X152.19Y-125.21
X152.2Y-105.94
X158.54Y-64.92
X158.54Y-84.17
X158.54Y-122.67
X158.55Y-103.4
M30
