G04 #@! TF.GenerationSoftware,KiCad,Pcbnew,9.0.0*
G04 #@! TF.CreationDate,2025-03-25T02:12:26-05:00*
G04 #@! TF.ProjectId,freeMacro_rev_1,66726565-4d61-4637-926f-5f7265765f31,rev?*
G04 #@! TF.SameCoordinates,Original*
G04 #@! TF.FileFunction,Legend,Bot*
G04 #@! TF.FilePolarity,Positive*
%FSLAX46Y46*%
G04 Gerber Fmt 4.6, Leading zero omitted, Abs format (unit mm)*
G04 Created by KiCad (PCBNEW 9.0.0) date 2025-03-25 02:12:26*
%MOMM*%
%LPD*%
G01*
G04 APERTURE LIST*
G04 Aperture macros list*
%AMRoundRect*
0 Rectangle with rounded corners*
0 $1 Rounding radius*
0 $2 $3 $4 $5 $6 $7 $8 $9 X,Y pos of 4 corners*
0 Add a 4 corners polygon primitive as box body*
4,1,4,$2,$3,$4,$5,$6,$7,$8,$9,$2,$3,0*
0 Add four circle primitives for the rounded corners*
1,1,$1+$1,$2,$3*
1,1,$1+$1,$4,$5*
1,1,$1+$1,$6,$7*
1,1,$1+$1,$8,$9*
0 Add four rect primitives between the rounded corners*
20,1,$1+$1,$2,$3,$4,$5,0*
20,1,$1+$1,$4,$5,$6,$7,0*
20,1,$1+$1,$6,$7,$8,$9,0*
20,1,$1+$1,$8,$9,$2,$3,0*%
%AMFreePoly0*
4,1,6,1.000000,0.000000,0.500000,-0.750000,-0.500000,-0.750000,-0.500000,0.750000,0.500000,0.750000,1.000000,0.000000,1.000000,0.000000,$1*%
G04 Aperture macros list end*
%ADD10C,0.100000*%
%ADD11C,0.150000*%
%ADD12C,0.120000*%
%ADD13C,0.010000*%
%ADD14C,4.000000*%
%ADD15C,2.200000*%
%ADD16R,1.800000X1.800000*%
%ADD17C,1.800000*%
%ADD18R,1.600000X1.600000*%
%ADD19O,1.600000X1.600000*%
%ADD20RoundRect,0.237500X-0.250000X-0.237500X0.250000X-0.237500X0.250000X0.237500X-0.250000X0.237500X0*%
%ADD21R,1.500000X1.500000*%
%ADD22FreePoly0,180.000000*%
%ADD23FreePoly0,0.000000*%
%ADD24RoundRect,0.237500X0.250000X0.237500X-0.250000X0.237500X-0.250000X-0.237500X0.250000X-0.237500X0*%
G04 APERTURE END LIST*
D10*
G36*
X165039072Y-57199886D02*
G01*
X165039072Y-57911000D01*
X165228665Y-57911000D01*
X165228665Y-57199886D01*
X165235952Y-57097560D01*
X165255041Y-57024089D01*
X165282979Y-56972466D01*
X165324229Y-56933163D01*
X165379387Y-56908604D01*
X165453063Y-56899651D01*
X165517466Y-56905948D01*
X165571561Y-56923824D01*
X165617448Y-56952731D01*
X165656487Y-56993440D01*
X165693916Y-57059719D01*
X165718534Y-57147358D01*
X165727653Y-57262352D01*
X165727653Y-57911000D01*
X165916148Y-57911000D01*
X165916148Y-56316582D01*
X165727653Y-56316582D01*
X165727653Y-56935463D01*
X165689389Y-56874110D01*
X165644095Y-56824906D01*
X165591366Y-56786444D01*
X165532044Y-56758818D01*
X165464635Y-56741685D01*
X165387484Y-56735703D01*
X165301399Y-56743690D01*
X165231029Y-56766058D01*
X165173184Y-56801649D01*
X165125717Y-56851016D01*
X165090737Y-56909659D01*
X165063603Y-56984768D01*
X165045658Y-57080055D01*
X165039072Y-57199886D01*
G37*
G36*
X164223636Y-56437482D02*
G01*
X164223636Y-56763363D01*
X163795265Y-56763363D01*
X163795265Y-56909909D01*
X164223636Y-56909909D01*
X164223636Y-57532912D01*
X164216993Y-57616662D01*
X164199975Y-57673227D01*
X164175460Y-57710140D01*
X164139699Y-57735939D01*
X164085934Y-57753532D01*
X164007390Y-57760332D01*
X163795265Y-57760332D01*
X163795265Y-57911000D01*
X164025891Y-57911000D01*
X164134972Y-57904317D01*
X164217723Y-57886447D01*
X164279595Y-57859898D01*
X164325028Y-57826003D01*
X164359915Y-57781323D01*
X164387091Y-57720625D01*
X164405323Y-57639605D01*
X164412131Y-57532912D01*
X164412131Y-56909909D01*
X164718503Y-56909909D01*
X164718503Y-56763363D01*
X164412131Y-56763363D01*
X164412131Y-56437482D01*
X164223636Y-56437482D01*
G37*
G36*
X162960412Y-56437482D02*
G01*
X162960412Y-56763363D01*
X162532041Y-56763363D01*
X162532041Y-56909909D01*
X162960412Y-56909909D01*
X162960412Y-57532912D01*
X162953769Y-57616662D01*
X162936751Y-57673227D01*
X162912236Y-57710140D01*
X162876475Y-57735939D01*
X162822710Y-57753532D01*
X162744166Y-57760332D01*
X162532041Y-57760332D01*
X162532041Y-57911000D01*
X162762667Y-57911000D01*
X162871748Y-57904317D01*
X162954499Y-57886447D01*
X163016371Y-57859898D01*
X163061804Y-57826003D01*
X163096691Y-57781323D01*
X163123867Y-57720625D01*
X163142099Y-57639605D01*
X163148907Y-57532912D01*
X163148907Y-56909909D01*
X163455279Y-56909909D01*
X163455279Y-56763363D01*
X163148907Y-56763363D01*
X163148907Y-56437482D01*
X162960412Y-56437482D01*
G37*
G36*
X161702806Y-56740894D02*
G01*
X161762665Y-56755897D01*
X161816532Y-56780308D01*
X161864883Y-56814112D01*
X161906598Y-56856963D01*
X161942103Y-56909909D01*
X161942103Y-56763363D01*
X162131605Y-56763363D01*
X162131605Y-58347523D01*
X161942103Y-58347523D01*
X161942103Y-57766560D01*
X161907799Y-57819393D01*
X161866804Y-57862245D01*
X161818638Y-57896162D01*
X161764751Y-57920452D01*
X161704225Y-57935458D01*
X161635731Y-57940675D01*
X161535716Y-57930279D01*
X161449880Y-57900423D01*
X161375209Y-57851428D01*
X161309850Y-57781398D01*
X161260526Y-57699821D01*
X161223392Y-57601659D01*
X161199523Y-57483747D01*
X161190965Y-57342311D01*
X161191210Y-57338189D01*
X161388710Y-57338189D01*
X161397912Y-57483771D01*
X161422235Y-57591272D01*
X161457953Y-57669199D01*
X161497125Y-57718436D01*
X161543369Y-57752653D01*
X161597993Y-57773527D01*
X161663391Y-57780849D01*
X161729263Y-57773480D01*
X161784489Y-57752441D01*
X161831433Y-57717909D01*
X161871395Y-57668192D01*
X161908000Y-57589542D01*
X161932773Y-57482236D01*
X161942103Y-57338189D01*
X161932747Y-57193433D01*
X161907952Y-57086045D01*
X161871395Y-57007728D01*
X161831461Y-56958240D01*
X161784530Y-56923844D01*
X161729294Y-56902876D01*
X161663391Y-56895529D01*
X161598000Y-56902855D01*
X161543377Y-56923743D01*
X161497131Y-56957988D01*
X161457953Y-57007270D01*
X161422238Y-57085140D01*
X161397914Y-57192605D01*
X161388710Y-57338189D01*
X161191210Y-57338189D01*
X161199533Y-57198049D01*
X161223382Y-57078195D01*
X161260388Y-56978823D01*
X161309392Y-56896628D01*
X161374590Y-56825858D01*
X161449262Y-56776371D01*
X161535283Y-56746211D01*
X161635731Y-56735703D01*
X161702806Y-56740894D01*
G37*
G36*
X160066135Y-56803297D02*
G01*
X160066135Y-56987762D01*
X160148217Y-56946095D01*
X160228984Y-56917053D01*
X160311759Y-56899396D01*
X160396046Y-56893514D01*
X160481007Y-56899064D01*
X160542913Y-56913659D01*
X160587105Y-56935005D01*
X160621770Y-56967055D01*
X160642676Y-57008245D01*
X160650119Y-57061584D01*
X160644350Y-57110616D01*
X160628460Y-57147922D01*
X160603042Y-57176348D01*
X160567544Y-57196545D01*
X160495681Y-57221115D01*
X160368385Y-57250078D01*
X160292548Y-57264458D01*
X160202411Y-57289727D01*
X160132855Y-57325548D01*
X160079965Y-57371070D01*
X160040611Y-57428101D01*
X160016296Y-57496386D01*
X160007700Y-57578982D01*
X160015751Y-57661819D01*
X160038713Y-57732216D01*
X160075991Y-57792685D01*
X160128600Y-57844871D01*
X160190811Y-57884702D01*
X160265808Y-57914598D01*
X160356083Y-57933792D01*
X160464647Y-57940675D01*
X160550545Y-57936310D01*
X160642975Y-57922723D01*
X160737572Y-57901013D01*
X160844842Y-57868959D01*
X160844842Y-57674328D01*
X160739398Y-57722758D01*
X160642975Y-57755844D01*
X160547469Y-57776434D01*
X160460617Y-57782955D01*
X160378565Y-57776492D01*
X160315369Y-57758967D01*
X160266994Y-57732214D01*
X160228934Y-57694032D01*
X160206242Y-57647603D01*
X160198301Y-57590248D01*
X160206143Y-57546414D01*
X160230012Y-57507245D01*
X160273449Y-57470966D01*
X160343395Y-57437621D01*
X160449352Y-57408897D01*
X160457503Y-57406882D01*
X160528212Y-57392502D01*
X160634305Y-57363910D01*
X160711469Y-57327719D01*
X160765982Y-57285433D01*
X160806512Y-57230987D01*
X160831718Y-57163728D01*
X160840720Y-57079994D01*
X160833162Y-56999254D01*
X160811750Y-56931477D01*
X160777285Y-56874093D01*
X160729071Y-56825371D01*
X160671593Y-56788330D01*
X160601170Y-56760335D01*
X160515172Y-56742234D01*
X160410426Y-56735703D01*
X160319332Y-56740003D01*
X160233197Y-56752647D01*
X160149107Y-56773670D01*
X160066135Y-56803297D01*
G37*
G36*
X159360334Y-56764371D02*
G01*
X159040590Y-56764371D01*
X159040590Y-57134307D01*
X159360334Y-57134307D01*
X159360334Y-56764371D01*
G37*
G36*
X159360334Y-57538041D02*
G01*
X159040590Y-57538041D01*
X159040590Y-57911000D01*
X159360334Y-57911000D01*
X159360334Y-57538041D01*
G37*
G36*
X157625691Y-56381154D02*
G01*
X157431060Y-56381154D01*
X158236420Y-58105722D01*
X158432150Y-58105722D01*
X157625691Y-56381154D01*
G37*
G36*
X156362467Y-56381154D02*
G01*
X156167836Y-56381154D01*
X156973196Y-58105722D01*
X157168926Y-58105722D01*
X156362467Y-56381154D01*
G37*
G36*
X155540172Y-56746046D02*
G01*
X155624171Y-56775944D01*
X155698318Y-56825398D01*
X155764285Y-56896628D01*
X155814421Y-56979105D01*
X155851839Y-57076563D01*
X155875687Y-57191742D01*
X155884178Y-57327931D01*
X155875700Y-57463611D01*
X155851871Y-57578510D01*
X155814455Y-57675876D01*
X155764285Y-57758409D01*
X155698323Y-57829593D01*
X155624178Y-57879021D01*
X155540177Y-57908905D01*
X155443534Y-57919243D01*
X155370371Y-57913604D01*
X155307815Y-57897611D01*
X155254032Y-57872073D01*
X155206734Y-57836127D01*
X155165808Y-57788904D01*
X155131025Y-57728642D01*
X155131025Y-57856686D01*
X155131025Y-57864929D01*
X155140317Y-57983645D01*
X155164714Y-58068628D01*
X155200726Y-58128254D01*
X155238250Y-58162802D01*
X155286101Y-58188537D01*
X155346655Y-58205176D01*
X155423109Y-58211235D01*
X155492968Y-58205910D01*
X155573684Y-58188704D01*
X155657059Y-58161231D01*
X155756042Y-58119003D01*
X155756042Y-58305482D01*
X155670675Y-58329914D01*
X155586049Y-58347523D01*
X155501712Y-58358400D01*
X155423109Y-58361902D01*
X155305233Y-58352465D01*
X155208674Y-58326157D01*
X155129409Y-58284820D01*
X155064438Y-58228637D01*
X155013938Y-58159248D01*
X154975954Y-58073361D01*
X154951408Y-57967464D01*
X154942530Y-57837177D01*
X154942530Y-57327931D01*
X155131025Y-57327931D01*
X155140099Y-57467844D01*
X155164284Y-57572961D01*
X155200176Y-57650789D01*
X155239352Y-57700414D01*
X155284700Y-57734595D01*
X155337355Y-57755250D01*
X155399478Y-57762439D01*
X155466580Y-57755137D01*
X155523006Y-57734295D01*
X155571085Y-57700170D01*
X155612153Y-57651247D01*
X155650248Y-57573431D01*
X155675833Y-57468222D01*
X155685426Y-57327931D01*
X155675874Y-57187582D01*
X155650455Y-57082799D01*
X155612702Y-57005713D01*
X155571911Y-56957239D01*
X155524174Y-56923420D01*
X155468167Y-56902765D01*
X155401585Y-56895529D01*
X155338240Y-56902693D01*
X155284877Y-56923200D01*
X155239260Y-56956961D01*
X155200176Y-57005713D01*
X155164373Y-57082518D01*
X155140148Y-57187294D01*
X155131025Y-57327931D01*
X154942530Y-57327931D01*
X154942530Y-56767485D01*
X155131025Y-56767485D01*
X155131025Y-56916046D01*
X155167485Y-56858393D01*
X155209078Y-56813524D01*
X155256047Y-56779758D01*
X155308981Y-56755974D01*
X155370873Y-56740999D01*
X155443534Y-56735703D01*
X155540172Y-56746046D01*
G37*
G36*
X154423209Y-56767485D02*
G01*
X153940524Y-56767485D01*
X153940524Y-57764454D01*
X153566558Y-57764454D01*
X153566558Y-57911000D01*
X154503076Y-57911000D01*
X154503076Y-57764454D01*
X154129110Y-57764454D01*
X154129110Y-56914031D01*
X154423209Y-56914031D01*
X154423209Y-56767485D01*
G37*
G36*
X154129110Y-56321711D02*
G01*
X153940524Y-56321711D01*
X153940524Y-56559482D01*
X154129110Y-56559482D01*
X154129110Y-56321711D01*
G37*
G36*
X152854620Y-56437482D02*
G01*
X152854620Y-56763363D01*
X152426249Y-56763363D01*
X152426249Y-56909909D01*
X152854620Y-56909909D01*
X152854620Y-57532912D01*
X152847977Y-57616662D01*
X152830959Y-57673227D01*
X152806443Y-57710140D01*
X152770683Y-57735939D01*
X152716918Y-57753532D01*
X152638374Y-57760332D01*
X152426249Y-57760332D01*
X152426249Y-57911000D01*
X152656875Y-57911000D01*
X152765956Y-57904317D01*
X152848707Y-57886447D01*
X152910579Y-57859898D01*
X152956012Y-57826003D01*
X152990899Y-57781323D01*
X153018075Y-57720625D01*
X153036307Y-57639605D01*
X153043115Y-57532912D01*
X153043115Y-56909909D01*
X153349487Y-56909909D01*
X153349487Y-56763363D01*
X153043115Y-56763363D01*
X153043115Y-56437482D01*
X152854620Y-56437482D01*
G37*
G36*
X151143608Y-57199886D02*
G01*
X151143608Y-57911000D01*
X151333201Y-57911000D01*
X151333201Y-57199886D01*
X151340488Y-57097560D01*
X151359577Y-57024089D01*
X151387515Y-56972466D01*
X151428765Y-56933163D01*
X151483923Y-56908604D01*
X151557599Y-56899651D01*
X151622002Y-56905948D01*
X151676097Y-56923824D01*
X151721984Y-56952731D01*
X151761023Y-56993440D01*
X151798452Y-57059719D01*
X151823070Y-57147358D01*
X151832189Y-57262352D01*
X151832189Y-57911000D01*
X152020684Y-57911000D01*
X152020684Y-56316582D01*
X151832189Y-56316582D01*
X151832189Y-56935463D01*
X151793925Y-56874110D01*
X151748631Y-56824906D01*
X151695902Y-56786444D01*
X151636580Y-56758818D01*
X151569171Y-56741685D01*
X151492020Y-56735703D01*
X151405935Y-56743690D01*
X151335565Y-56766058D01*
X151277720Y-56801649D01*
X151230253Y-56851016D01*
X151195273Y-56909659D01*
X151168139Y-56984768D01*
X151150193Y-57080055D01*
X151143608Y-57199886D01*
G37*
G36*
X150757460Y-57476491D02*
G01*
X150757460Y-56765378D01*
X150568965Y-56765378D01*
X150568965Y-57476491D01*
X150561622Y-57578840D01*
X150542380Y-57652341D01*
X150514194Y-57704004D01*
X150472599Y-57743332D01*
X150417528Y-57767828D01*
X150344567Y-57776727D01*
X150279561Y-57770405D01*
X150225235Y-57752499D01*
X150179414Y-57723617D01*
X150140685Y-57683029D01*
X150103508Y-57616730D01*
X150079042Y-57529058D01*
X150069977Y-57414026D01*
X150069977Y-56765378D01*
X149880384Y-56765378D01*
X149880384Y-57911000D01*
X150069977Y-57911000D01*
X150069977Y-57738808D01*
X150108310Y-57800866D01*
X150153758Y-57850608D01*
X150206723Y-57889476D01*
X150266340Y-57917441D01*
X150333303Y-57934684D01*
X150409139Y-57940675D01*
X150495786Y-57932668D01*
X150566388Y-57910278D01*
X150624210Y-57874713D01*
X150671456Y-57825453D01*
X150706160Y-57766811D01*
X150733096Y-57691685D01*
X150750918Y-57596366D01*
X150757460Y-57476491D01*
G37*
G36*
X149496342Y-57911000D02*
G01*
X149307756Y-57911000D01*
X149307756Y-57766560D01*
X149272315Y-57819451D01*
X149230631Y-57862306D01*
X149182277Y-57896162D01*
X149128414Y-57920518D01*
X149068526Y-57935492D01*
X149001384Y-57940675D01*
X148900968Y-57930159D01*
X148814767Y-57899944D01*
X148739741Y-57850316D01*
X148674038Y-57779292D01*
X148624534Y-57696751D01*
X148587221Y-57597292D01*
X148563216Y-57477680D01*
X148554850Y-57338189D01*
X148753447Y-57338189D01*
X148762705Y-57483735D01*
X148787182Y-57591236D01*
X148823148Y-57669199D01*
X148862534Y-57718447D01*
X148908933Y-57752668D01*
X148963646Y-57773534D01*
X149029045Y-57780849D01*
X149094916Y-57773480D01*
X149150142Y-57752441D01*
X149197086Y-57717909D01*
X149237048Y-57668192D01*
X149273654Y-57589542D01*
X149298426Y-57482236D01*
X149307756Y-57338189D01*
X149298400Y-57193433D01*
X149273605Y-57086045D01*
X149237048Y-57007728D01*
X149197115Y-56958240D01*
X149150183Y-56923844D01*
X149094948Y-56902876D01*
X149029045Y-56895529D01*
X148963652Y-56902848D01*
X148908941Y-56923729D01*
X148862540Y-56957977D01*
X148823148Y-57007270D01*
X148787185Y-57085176D01*
X148762707Y-57192642D01*
X148753447Y-57338189D01*
X148554850Y-57338189D01*
X148554603Y-57334067D01*
X148563163Y-57192627D01*
X148587033Y-57074733D01*
X148624167Y-56976604D01*
X148673488Y-56895071D01*
X148738853Y-56824996D01*
X148813526Y-56775974D01*
X148899360Y-56746103D01*
X148999369Y-56735703D01*
X149067843Y-56740962D01*
X149128722Y-56756132D01*
X149183284Y-56780766D01*
X149232210Y-56814974D01*
X149273517Y-56857712D01*
X149307756Y-56909909D01*
X149307756Y-56316582D01*
X149496342Y-56316582D01*
X149496342Y-57911000D01*
G37*
G36*
X148032259Y-57497008D02*
G01*
X147671573Y-57497008D01*
X147671573Y-57911000D01*
X148032259Y-57911000D01*
X148032259Y-57497008D01*
G37*
G36*
X146080453Y-57852564D02*
G01*
X146157914Y-57891303D01*
X146236708Y-57918602D01*
X146317960Y-57935146D01*
X146401205Y-57940675D01*
X146508328Y-57933573D01*
X146601639Y-57913336D01*
X146683231Y-57881038D01*
X146754822Y-57837016D01*
X146817670Y-57780849D01*
X146881061Y-57697078D01*
X146927725Y-57597585D01*
X146957273Y-57479280D01*
X146967788Y-57338189D01*
X146957273Y-57197098D01*
X146927725Y-57078793D01*
X146881061Y-56979300D01*
X146817670Y-56895529D01*
X146754822Y-56839362D01*
X146683231Y-56795340D01*
X146601639Y-56763042D01*
X146508328Y-56742804D01*
X146401205Y-56735703D01*
X146319109Y-56741103D01*
X146239364Y-56757227D01*
X146161293Y-56784162D01*
X146080453Y-56823814D01*
X146080453Y-57021559D01*
X146157437Y-56962899D01*
X146230571Y-56925296D01*
X146309132Y-56903278D01*
X146401205Y-56895529D01*
X146488317Y-56903381D01*
X146561060Y-56925543D01*
X146622235Y-56961014D01*
X146673780Y-57010293D01*
X146713217Y-57069527D01*
X146742937Y-57142020D01*
X146762120Y-57230476D01*
X146769035Y-57338189D01*
X146762106Y-57445282D01*
X146742855Y-57533509D01*
X146712969Y-57606081D01*
X146673231Y-57665627D01*
X146621435Y-57715188D01*
X146560232Y-57750794D01*
X146487733Y-57772996D01*
X146401205Y-57780849D01*
X146306165Y-57772980D01*
X146224984Y-57750624D01*
X146150733Y-57712616D01*
X146080453Y-57656834D01*
X146080453Y-57852564D01*
G37*
G36*
X145390554Y-56746329D02*
G01*
X145488085Y-56776264D01*
X145569663Y-56824095D01*
X145637977Y-56890492D01*
X145689879Y-56970117D01*
X145729231Y-57068532D01*
X145754765Y-57189647D01*
X145764006Y-57338189D01*
X145754745Y-57487364D01*
X145729180Y-57608741D01*
X145689826Y-57707134D01*
X145637977Y-57786527D01*
X145569705Y-57852618D01*
X145488144Y-57900257D01*
X145390598Y-57930084D01*
X145273170Y-57940675D01*
X145155243Y-57930069D01*
X145057405Y-57900216D01*
X144975715Y-57852573D01*
X144907447Y-57786527D01*
X144855557Y-57707128D01*
X144816174Y-57608733D01*
X144790593Y-57487358D01*
X144781326Y-57338189D01*
X144981177Y-57338189D01*
X144990908Y-57482693D01*
X145016746Y-57590088D01*
X145055000Y-57668650D01*
X145096339Y-57717787D01*
X145145329Y-57752240D01*
X145203436Y-57773401D01*
X145273170Y-57780849D01*
X145342412Y-57773421D01*
X145400243Y-57752292D01*
X145449133Y-57717843D01*
X145490515Y-57668650D01*
X145528720Y-57590095D01*
X145554526Y-57482700D01*
X145564246Y-57338189D01*
X145554499Y-57192969D01*
X145528670Y-57085493D01*
X145490515Y-57007270D01*
X145449162Y-56958305D01*
X145400285Y-56923991D01*
X145342443Y-56902934D01*
X145273170Y-56895529D01*
X145203404Y-56902954D01*
X145145287Y-56924042D01*
X145096310Y-56958360D01*
X145055000Y-57007270D01*
X145016795Y-57085501D01*
X144990935Y-57192977D01*
X144981177Y-57338189D01*
X144781326Y-57338189D01*
X144790602Y-57189686D01*
X144816237Y-57068583D01*
X144855757Y-56970154D01*
X144907905Y-56890492D01*
X144976478Y-56824073D01*
X145058234Y-56776240D01*
X145155843Y-56746319D01*
X145273170Y-56735703D01*
X145390554Y-56746329D01*
G37*
G36*
X143948488Y-56880142D02*
G01*
X143907604Y-56814369D01*
X143859920Y-56771057D01*
X143801899Y-56744908D01*
X143730227Y-56735703D01*
X143663434Y-56743031D01*
X143610499Y-56763460D01*
X143568276Y-56796241D01*
X143535046Y-56842773D01*
X143507482Y-56918227D01*
X143486642Y-57045535D01*
X143478168Y-57245957D01*
X143478168Y-57911000D01*
X143650359Y-57911000D01*
X143650359Y-57254200D01*
X143654855Y-57087118D01*
X143665217Y-56995676D01*
X143677562Y-56952407D01*
X143700425Y-56919846D01*
X143732334Y-56900481D01*
X143776389Y-56893514D01*
X143827103Y-56901121D01*
X143863231Y-56922006D01*
X143888588Y-56956529D01*
X143902534Y-57002222D01*
X143913940Y-57093436D01*
X143918813Y-57254200D01*
X143918813Y-57911000D01*
X144090912Y-57911000D01*
X144090912Y-57254200D01*
X144095779Y-57084884D01*
X144106931Y-56993411D01*
X144120130Y-56950942D01*
X144144245Y-56919506D01*
X144178120Y-56900445D01*
X144225185Y-56893514D01*
X144271064Y-56900896D01*
X144304718Y-56921551D01*
X144329232Y-56956529D01*
X144342663Y-57002183D01*
X144353660Y-57093401D01*
X144358358Y-57254200D01*
X144358358Y-57911000D01*
X144529542Y-57911000D01*
X144529542Y-56763363D01*
X144358358Y-56763363D01*
X144358358Y-56861732D01*
X144319510Y-56806680D01*
X144273820Y-56768035D01*
X144220139Y-56743926D01*
X144158598Y-56735703D01*
X144085448Y-56745173D01*
X144028905Y-56771607D01*
X143984040Y-56815156D01*
X143948488Y-56880142D01*
G37*
G36*
X142467003Y-56381154D02*
G01*
X142272372Y-56381154D01*
X143077732Y-58105722D01*
X143273462Y-58105722D01*
X142467003Y-56381154D01*
G37*
G36*
X141491222Y-56740894D02*
G01*
X141551081Y-56755897D01*
X141604948Y-56780308D01*
X141653299Y-56814112D01*
X141695014Y-56856963D01*
X141730519Y-56909909D01*
X141730519Y-56763363D01*
X141920021Y-56763363D01*
X141920021Y-58347523D01*
X141730519Y-58347523D01*
X141730519Y-57766560D01*
X141696215Y-57819393D01*
X141655220Y-57862245D01*
X141607054Y-57896162D01*
X141553167Y-57920452D01*
X141492641Y-57935458D01*
X141424147Y-57940675D01*
X141324132Y-57930279D01*
X141238296Y-57900423D01*
X141163625Y-57851428D01*
X141098266Y-57781398D01*
X141048942Y-57699821D01*
X141011808Y-57601659D01*
X140987939Y-57483747D01*
X140979381Y-57342311D01*
X140979626Y-57338189D01*
X141177126Y-57338189D01*
X141186328Y-57483771D01*
X141210651Y-57591272D01*
X141246368Y-57669199D01*
X141285541Y-57718436D01*
X141331785Y-57752653D01*
X141386409Y-57773527D01*
X141451807Y-57780849D01*
X141517679Y-57773480D01*
X141572905Y-57752441D01*
X141619849Y-57717909D01*
X141659811Y-57668192D01*
X141696416Y-57589542D01*
X141721189Y-57482236D01*
X141730519Y-57338189D01*
X141721162Y-57193433D01*
X141696368Y-57086045D01*
X141659811Y-57007728D01*
X141619877Y-56958240D01*
X141572946Y-56923844D01*
X141517710Y-56902876D01*
X141451807Y-56895529D01*
X141386416Y-56902855D01*
X141331793Y-56923743D01*
X141285547Y-56957988D01*
X141246368Y-57007270D01*
X141210654Y-57085140D01*
X141186330Y-57192605D01*
X141177126Y-57338189D01*
X140979626Y-57338189D01*
X140987948Y-57198049D01*
X141011798Y-57078195D01*
X141048804Y-56978823D01*
X141097808Y-56896628D01*
X141163006Y-56825858D01*
X141237678Y-56776371D01*
X141323699Y-56746211D01*
X141424147Y-56735703D01*
X141491222Y-56740894D01*
G37*
G36*
X140304846Y-56746623D02*
G01*
X140408587Y-56777865D01*
X140498876Y-56828542D01*
X140577937Y-56899651D01*
X140640615Y-56985318D01*
X140686480Y-57085063D01*
X140715306Y-57201548D01*
X140725490Y-57338189D01*
X140714971Y-57478683D01*
X140685376Y-57596759D01*
X140638576Y-57696318D01*
X140574914Y-57780391D01*
X140511846Y-57836708D01*
X140439987Y-57880856D01*
X140358074Y-57913250D01*
X140264380Y-57933551D01*
X140156801Y-57940675D01*
X140062999Y-57935283D01*
X139963636Y-57918602D01*
X139863498Y-57891638D01*
X139756182Y-57852564D01*
X139756182Y-57665077D01*
X139867361Y-57717248D01*
X139966200Y-57752181D01*
X140064010Y-57773908D01*
X140154695Y-57780849D01*
X140243203Y-57773719D01*
X140317071Y-57753679D01*
X140378980Y-57721918D01*
X140430933Y-57678450D01*
X140469925Y-57625024D01*
X140499065Y-57554242D01*
X140516896Y-57461549D01*
X140520509Y-57341303D01*
X140520509Y-57335166D01*
X139703883Y-57335166D01*
X139703883Y-57242934D01*
X139710246Y-57187613D01*
X139892378Y-57187613D01*
X140513365Y-57188621D01*
X140499367Y-57116942D01*
X140467897Y-57049843D01*
X140417103Y-56985747D01*
X140353469Y-56935921D01*
X140279667Y-56905942D01*
X140192613Y-56895529D01*
X140103675Y-56905985D01*
X140033987Y-56935122D01*
X139979023Y-56982174D01*
X139936541Y-57043181D01*
X139907746Y-57111148D01*
X139892378Y-57187613D01*
X139710246Y-57187613D01*
X139715759Y-57139689D01*
X139742278Y-57046526D01*
X139783073Y-56961805D01*
X139838614Y-56884264D01*
X139906883Y-56819875D01*
X139985720Y-56773990D01*
X140077222Y-56745644D01*
X140184462Y-56735703D01*
X140304846Y-56746623D01*
G37*
G36*
X138511368Y-57199886D02*
G01*
X138511368Y-57911000D01*
X138700961Y-57911000D01*
X138700961Y-57199886D01*
X138708248Y-57097560D01*
X138727337Y-57024089D01*
X138755275Y-56972466D01*
X138796525Y-56933163D01*
X138851683Y-56908604D01*
X138925359Y-56899651D01*
X138989762Y-56905948D01*
X139043857Y-56923824D01*
X139089744Y-56952731D01*
X139128783Y-56993440D01*
X139166212Y-57059719D01*
X139190830Y-57147358D01*
X139199949Y-57262352D01*
X139199949Y-57911000D01*
X139388444Y-57911000D01*
X139388444Y-56763363D01*
X139199949Y-56763363D01*
X139199949Y-56935463D01*
X139161685Y-56874110D01*
X139116391Y-56824906D01*
X139063662Y-56786444D01*
X139004340Y-56758818D01*
X138936931Y-56741685D01*
X138859780Y-56735703D01*
X138773695Y-56743690D01*
X138703325Y-56766058D01*
X138645480Y-56801649D01*
X138598013Y-56851016D01*
X138563033Y-56909659D01*
X138535899Y-56984768D01*
X138517953Y-57080055D01*
X138511368Y-57199886D01*
G37*
G36*
X137695932Y-56437482D02*
G01*
X137695932Y-56763363D01*
X137267561Y-56763363D01*
X137267561Y-56909909D01*
X137695932Y-56909909D01*
X137695932Y-57532912D01*
X137689289Y-57616662D01*
X137672271Y-57673227D01*
X137647755Y-57710140D01*
X137611995Y-57735939D01*
X137558230Y-57753532D01*
X137479686Y-57760332D01*
X137267561Y-57760332D01*
X137267561Y-57911000D01*
X137498187Y-57911000D01*
X137607267Y-57904317D01*
X137690019Y-57886447D01*
X137751891Y-57859898D01*
X137797324Y-57826003D01*
X137832211Y-57781323D01*
X137859387Y-57720625D01*
X137877619Y-57639605D01*
X137884427Y-57532912D01*
X137884427Y-56909909D01*
X138190799Y-56909909D01*
X138190799Y-56763363D01*
X137884427Y-56763363D01*
X137884427Y-56437482D01*
X137695932Y-56437482D01*
G37*
G36*
X136547986Y-56746329D02*
G01*
X136645517Y-56776264D01*
X136727095Y-56824095D01*
X136795409Y-56890492D01*
X136847311Y-56970117D01*
X136886663Y-57068532D01*
X136912197Y-57189647D01*
X136921438Y-57338189D01*
X136912177Y-57487364D01*
X136886612Y-57608741D01*
X136847258Y-57707134D01*
X136795409Y-57786527D01*
X136727136Y-57852618D01*
X136645576Y-57900257D01*
X136548030Y-57930084D01*
X136430602Y-57940675D01*
X136312675Y-57930069D01*
X136214837Y-57900216D01*
X136133147Y-57852573D01*
X136064879Y-57786527D01*
X136012989Y-57707128D01*
X135973606Y-57608733D01*
X135948025Y-57487358D01*
X135938758Y-57338189D01*
X136138609Y-57338189D01*
X136148340Y-57482693D01*
X136174178Y-57590088D01*
X136212432Y-57668650D01*
X136253771Y-57717787D01*
X136302761Y-57752240D01*
X136360868Y-57773401D01*
X136430602Y-57780849D01*
X136499844Y-57773421D01*
X136557675Y-57752292D01*
X136606565Y-57717843D01*
X136647947Y-57668650D01*
X136686152Y-57590095D01*
X136711958Y-57482700D01*
X136721678Y-57338189D01*
X136711931Y-57192969D01*
X136686102Y-57085493D01*
X136647947Y-57007270D01*
X136606594Y-56958305D01*
X136557717Y-56923991D01*
X136499875Y-56902934D01*
X136430602Y-56895529D01*
X136360836Y-56902954D01*
X136302719Y-56924042D01*
X136253742Y-56958360D01*
X136212432Y-57007270D01*
X136174227Y-57085501D01*
X136148367Y-57192977D01*
X136138609Y-57338189D01*
X135938758Y-57338189D01*
X135948034Y-57189686D01*
X135973669Y-57068583D01*
X136013189Y-56970154D01*
X136065337Y-56890492D01*
X136133909Y-56824073D01*
X136215666Y-56776240D01*
X136313275Y-56746319D01*
X136430602Y-56735703D01*
X136547986Y-56746329D01*
G37*
G36*
X134919441Y-56909909D02*
G01*
X134953735Y-56857075D01*
X134994904Y-56814219D01*
X135043455Y-56780308D01*
X135097628Y-56755918D01*
X135157996Y-56740905D01*
X135225813Y-56735703D01*
X135325819Y-56746088D01*
X135411843Y-56775941D01*
X135486860Y-56824967D01*
X135552701Y-56895071D01*
X135602472Y-56976669D01*
X135639914Y-57074821D01*
X135663970Y-57192693D01*
X135672594Y-57334067D01*
X135663987Y-57477686D01*
X135639998Y-57597300D01*
X135602714Y-57696757D01*
X135553251Y-57779292D01*
X135487504Y-57850318D01*
X135412447Y-57899947D01*
X135326229Y-57930160D01*
X135225813Y-57940675D01*
X135158672Y-57935490D01*
X135098816Y-57920515D01*
X135045012Y-57896162D01*
X134996651Y-57862309D01*
X134954936Y-57819454D01*
X134919441Y-57766560D01*
X134919441Y-57911000D01*
X134730946Y-57911000D01*
X134730946Y-57338189D01*
X134919441Y-57338189D01*
X134928837Y-57482192D01*
X134953794Y-57589499D01*
X134990699Y-57668192D01*
X135030875Y-57717983D01*
X135077827Y-57752511D01*
X135132818Y-57773508D01*
X135198152Y-57780849D01*
X135263552Y-57773535D01*
X135318282Y-57752670D01*
X135364711Y-57718449D01*
X135404141Y-57669199D01*
X135440106Y-57591236D01*
X135464583Y-57483735D01*
X135473841Y-57338189D01*
X135464581Y-57192642D01*
X135440103Y-57085176D01*
X135404141Y-57007270D01*
X135364706Y-56957974D01*
X135318274Y-56923726D01*
X135263545Y-56902847D01*
X135198152Y-56895529D01*
X135132787Y-56902847D01*
X135077787Y-56923773D01*
X135030847Y-56958167D01*
X134990699Y-57007728D01*
X134953842Y-57086088D01*
X134928863Y-57193477D01*
X134919441Y-57338189D01*
X134730946Y-57338189D01*
X134730946Y-56316582D01*
X134919441Y-56316582D01*
X134919441Y-56909909D01*
G37*
G36*
X133988726Y-56746623D02*
G01*
X134092467Y-56777865D01*
X134182756Y-56828542D01*
X134261817Y-56899651D01*
X134324495Y-56985318D01*
X134370360Y-57085063D01*
X134399186Y-57201548D01*
X134409370Y-57338189D01*
X134398851Y-57478683D01*
X134369256Y-57596759D01*
X134322456Y-57696318D01*
X134258794Y-57780391D01*
X134195726Y-57836708D01*
X134123867Y-57880856D01*
X134041954Y-57913250D01*
X133948260Y-57933551D01*
X133840681Y-57940675D01*
X133746879Y-57935283D01*
X133647516Y-57918602D01*
X133547378Y-57891638D01*
X133440062Y-57852564D01*
X133440062Y-57665077D01*
X133551241Y-57717248D01*
X133650080Y-57752181D01*
X133747890Y-57773908D01*
X133838575Y-57780849D01*
X133927083Y-57773719D01*
X134000951Y-57753679D01*
X134062860Y-57721918D01*
X134114813Y-57678450D01*
X134153805Y-57625024D01*
X134182945Y-57554242D01*
X134200776Y-57461549D01*
X134204389Y-57341303D01*
X134204389Y-57335166D01*
X133387763Y-57335166D01*
X133387763Y-57242934D01*
X133394126Y-57187613D01*
X133576258Y-57187613D01*
X134197245Y-57188621D01*
X134183247Y-57116942D01*
X134151777Y-57049843D01*
X134100983Y-56985747D01*
X134037349Y-56935921D01*
X133963547Y-56905942D01*
X133876493Y-56895529D01*
X133787555Y-56905985D01*
X133717867Y-56935122D01*
X133662903Y-56982174D01*
X133620421Y-57043181D01*
X133591626Y-57111148D01*
X133576258Y-57187613D01*
X133394126Y-57187613D01*
X133399639Y-57139689D01*
X133426158Y-57046526D01*
X133466953Y-56961805D01*
X133522494Y-56884264D01*
X133590763Y-56819875D01*
X133669600Y-56773990D01*
X133761102Y-56745644D01*
X133868342Y-56735703D01*
X133988726Y-56746623D01*
G37*
G36*
X132579472Y-56880142D02*
G01*
X132538588Y-56814369D01*
X132490904Y-56771057D01*
X132432883Y-56744908D01*
X132361211Y-56735703D01*
X132294418Y-56743031D01*
X132241483Y-56763460D01*
X132199259Y-56796241D01*
X132166030Y-56842773D01*
X132138465Y-56918227D01*
X132117625Y-57045535D01*
X132109152Y-57245957D01*
X132109152Y-57911000D01*
X132281343Y-57911000D01*
X132281343Y-57254200D01*
X132285839Y-57087118D01*
X132296201Y-56995676D01*
X132308546Y-56952407D01*
X132331409Y-56919846D01*
X132363318Y-56900481D01*
X132407372Y-56893514D01*
X132458087Y-56901121D01*
X132494215Y-56922006D01*
X132519572Y-56956529D01*
X132533518Y-57002222D01*
X132544924Y-57093436D01*
X132549797Y-57254200D01*
X132549797Y-57911000D01*
X132721896Y-57911000D01*
X132721896Y-57254200D01*
X132726762Y-57084884D01*
X132737915Y-56993411D01*
X132751114Y-56950942D01*
X132775229Y-56919506D01*
X132809104Y-56900445D01*
X132856169Y-56893514D01*
X132902048Y-56900896D01*
X132935702Y-56921551D01*
X132960216Y-56956529D01*
X132973647Y-57002183D01*
X132984644Y-57093401D01*
X132989342Y-57254200D01*
X132989342Y-57911000D01*
X133160526Y-57911000D01*
X133160526Y-56763363D01*
X132989342Y-56763363D01*
X132989342Y-56861732D01*
X132950493Y-56806680D01*
X132904804Y-56768035D01*
X132851123Y-56743926D01*
X132789582Y-56735703D01*
X132716432Y-56745173D01*
X132659889Y-56771607D01*
X132615024Y-56815156D01*
X132579472Y-56880142D01*
G37*
G36*
X131492960Y-56740593D02*
G01*
X131588365Y-56755670D01*
X131684610Y-56780133D01*
X131788675Y-56815662D01*
X131788675Y-57004156D01*
X131693577Y-56957019D01*
X131597066Y-56923190D01*
X131498510Y-56902347D01*
X131402344Y-56895529D01*
X131303519Y-56903747D01*
X131232777Y-56925379D01*
X131183075Y-56957536D01*
X131146782Y-57003588D01*
X131122819Y-57067971D01*
X131113374Y-57156839D01*
X131113374Y-57186514D01*
X131366440Y-57186514D01*
X131493365Y-57193918D01*
X131595913Y-57214263D01*
X131678299Y-57245368D01*
X131744070Y-57285982D01*
X131799400Y-57340260D01*
X131839087Y-57405231D01*
X131863869Y-57483057D01*
X131872664Y-57576967D01*
X131865624Y-57658601D01*
X131845556Y-57728627D01*
X131813203Y-57789193D01*
X131768158Y-57841848D01*
X131713255Y-57884005D01*
X131649544Y-57914688D01*
X131575340Y-57933901D01*
X131488439Y-57940675D01*
X131402097Y-57934809D01*
X131328502Y-57918245D01*
X131265598Y-57892040D01*
X131208972Y-57854511D01*
X131158358Y-57804687D01*
X131113374Y-57740915D01*
X131113374Y-57911000D01*
X130923780Y-57911000D01*
X130923780Y-57376108D01*
X131113374Y-57376108D01*
X131120191Y-57471950D01*
X131138271Y-57552041D01*
X131166261Y-57618977D01*
X131203591Y-57674878D01*
X131251870Y-57721822D01*
X131307649Y-57755176D01*
X131372422Y-57775745D01*
X131448414Y-57782955D01*
X131520114Y-57775913D01*
X131576780Y-57756420D01*
X131621704Y-57725619D01*
X131655620Y-57683577D01*
X131676645Y-57630984D01*
X131684169Y-57564694D01*
X131674309Y-57492549D01*
X131646568Y-57436300D01*
X131600638Y-57392045D01*
X131541878Y-57361986D01*
X131461196Y-57341709D01*
X131352152Y-57334067D01*
X131289595Y-57334067D01*
X131113374Y-57334067D01*
X131113374Y-57376108D01*
X130923780Y-57376108D01*
X130923780Y-57256215D01*
X130928602Y-57115045D01*
X130940175Y-57030351D01*
X130962857Y-56959584D01*
X130995588Y-56903773D01*
X131041285Y-56852605D01*
X131095407Y-56810750D01*
X131158986Y-56777743D01*
X131227545Y-56755214D01*
X131307996Y-56740822D01*
X131402344Y-56735703D01*
X131492960Y-56740593D01*
G37*
G36*
X129668800Y-57199886D02*
G01*
X129668800Y-57911000D01*
X129858393Y-57911000D01*
X129858393Y-57199886D01*
X129865680Y-57097560D01*
X129884769Y-57024089D01*
X129912707Y-56972466D01*
X129953956Y-56933163D01*
X130009115Y-56908604D01*
X130082791Y-56899651D01*
X130147194Y-56905948D01*
X130201289Y-56923824D01*
X130247176Y-56952731D01*
X130286215Y-56993440D01*
X130323644Y-57059719D01*
X130348262Y-57147358D01*
X130357381Y-57262352D01*
X130357381Y-57911000D01*
X130545876Y-57911000D01*
X130545876Y-56763363D01*
X130357381Y-56763363D01*
X130357381Y-56935463D01*
X130319117Y-56874110D01*
X130273823Y-56824906D01*
X130221094Y-56786444D01*
X130161772Y-56758818D01*
X130094363Y-56741685D01*
X130017212Y-56735703D01*
X129931127Y-56743690D01*
X129860757Y-56766058D01*
X129802912Y-56801649D01*
X129755445Y-56851016D01*
X129720465Y-56909659D01*
X129693331Y-56984768D01*
X129675385Y-57080055D01*
X129668800Y-57199886D01*
G37*
G36*
X128571539Y-56381154D02*
G01*
X128376908Y-56381154D01*
X129182268Y-58105722D01*
X129377998Y-58105722D01*
X128571539Y-56381154D01*
G37*
G36*
X127130078Y-56316582D02*
G01*
X127130078Y-56473386D01*
X127344218Y-56473386D01*
X127410740Y-56479060D01*
X127455688Y-56493647D01*
X127485085Y-56514877D01*
X127505142Y-56545368D01*
X127519103Y-56592263D01*
X127524561Y-56661881D01*
X127524561Y-56763363D01*
X127130078Y-56763363D01*
X127130078Y-56909909D01*
X127524561Y-56909909D01*
X127524561Y-57911000D01*
X127713056Y-57911000D01*
X127713056Y-56909909D01*
X128019428Y-56909909D01*
X128019428Y-56763363D01*
X127713056Y-56763363D01*
X127713056Y-56683404D01*
X127706598Y-56587848D01*
X127688946Y-56512119D01*
X127661974Y-56452441D01*
X127626502Y-56405792D01*
X127580837Y-56369019D01*
X127522665Y-56341260D01*
X127449108Y-56323180D01*
X127356491Y-56316582D01*
X127130078Y-56316582D01*
G37*
G36*
X125772516Y-57000035D02*
G01*
X125834618Y-56958720D01*
X125895522Y-56931433D01*
X125960023Y-56915457D01*
X126032817Y-56909909D01*
X126119695Y-56917548D01*
X126191798Y-56939033D01*
X126251987Y-56973256D01*
X126302278Y-57020551D01*
X126340804Y-57077713D01*
X126369895Y-57148122D01*
X126388717Y-57234530D01*
X126395518Y-57340296D01*
X126395518Y-57911000D01*
X126585112Y-57911000D01*
X126585112Y-56763363D01*
X126395518Y-56763363D01*
X126395518Y-56987762D01*
X126357583Y-56911350D01*
X126309421Y-56849695D01*
X126250621Y-56800824D01*
X126182698Y-56765198D01*
X126105974Y-56743310D01*
X126018438Y-56735703D01*
X125950309Y-56740162D01*
X125888378Y-56753105D01*
X125829586Y-56775198D01*
X125772516Y-56807419D01*
X125772516Y-57000035D01*
G37*
G36*
X125146158Y-56746623D02*
G01*
X125249899Y-56777865D01*
X125340188Y-56828542D01*
X125419249Y-56899651D01*
X125481927Y-56985318D01*
X125527791Y-57085063D01*
X125556618Y-57201548D01*
X125566802Y-57338189D01*
X125556283Y-57478683D01*
X125526688Y-57596759D01*
X125479888Y-57696318D01*
X125416226Y-57780391D01*
X125353158Y-57836708D01*
X125281299Y-57880856D01*
X125199386Y-57913250D01*
X125105692Y-57933551D01*
X124998113Y-57940675D01*
X124904311Y-57935283D01*
X124804948Y-57918602D01*
X124704810Y-57891638D01*
X124597494Y-57852564D01*
X124597494Y-57665077D01*
X124708673Y-57717248D01*
X124807512Y-57752181D01*
X124905322Y-57773908D01*
X124996006Y-57780849D01*
X125084514Y-57773719D01*
X125158383Y-57753679D01*
X125220292Y-57721918D01*
X125272245Y-57678450D01*
X125311237Y-57625024D01*
X125340377Y-57554242D01*
X125358208Y-57461549D01*
X125361821Y-57341303D01*
X125361821Y-57335166D01*
X124545195Y-57335166D01*
X124545195Y-57242934D01*
X124551558Y-57187613D01*
X124733690Y-57187613D01*
X125354677Y-57188621D01*
X125340679Y-57116942D01*
X125309209Y-57049843D01*
X125258415Y-56985747D01*
X125194780Y-56935921D01*
X125120979Y-56905942D01*
X125033925Y-56895529D01*
X124944987Y-56905985D01*
X124875299Y-56935122D01*
X124820335Y-56982174D01*
X124777853Y-57043181D01*
X124749058Y-57111148D01*
X124733690Y-57187613D01*
X124551558Y-57187613D01*
X124557071Y-57139689D01*
X124583590Y-57046526D01*
X124624385Y-56961805D01*
X124679926Y-56884264D01*
X124748195Y-56819875D01*
X124827032Y-56773990D01*
X124918534Y-56745644D01*
X125025774Y-56735703D01*
X125146158Y-56746623D01*
G37*
G36*
X123882934Y-56746623D02*
G01*
X123986675Y-56777865D01*
X124076964Y-56828542D01*
X124156025Y-56899651D01*
X124218703Y-56985318D01*
X124264567Y-57085063D01*
X124293394Y-57201548D01*
X124303578Y-57338189D01*
X124293059Y-57478683D01*
X124263464Y-57596759D01*
X124216664Y-57696318D01*
X124153002Y-57780391D01*
X124089934Y-57836708D01*
X124018075Y-57880856D01*
X123936162Y-57913250D01*
X123842468Y-57933551D01*
X123734889Y-57940675D01*
X123641087Y-57935283D01*
X123541724Y-57918602D01*
X123441586Y-57891638D01*
X123334270Y-57852564D01*
X123334270Y-57665077D01*
X123445449Y-57717248D01*
X123544288Y-57752181D01*
X123642098Y-57773908D01*
X123732782Y-57780849D01*
X123821290Y-57773719D01*
X123895159Y-57753679D01*
X123957068Y-57721918D01*
X124009021Y-57678450D01*
X124048013Y-57625024D01*
X124077153Y-57554242D01*
X124094984Y-57461549D01*
X124098597Y-57341303D01*
X124098597Y-57335166D01*
X123281971Y-57335166D01*
X123281971Y-57242934D01*
X123288334Y-57187613D01*
X123470466Y-57187613D01*
X124091453Y-57188621D01*
X124077455Y-57116942D01*
X124045985Y-57049843D01*
X123995191Y-56985747D01*
X123931556Y-56935921D01*
X123857755Y-56905942D01*
X123770701Y-56895529D01*
X123681763Y-56905985D01*
X123612075Y-56935122D01*
X123557111Y-56982174D01*
X123514629Y-57043181D01*
X123485834Y-57111148D01*
X123470466Y-57187613D01*
X123288334Y-57187613D01*
X123293847Y-57139689D01*
X123320366Y-57046526D01*
X123361161Y-56961805D01*
X123416702Y-56884264D01*
X123484971Y-56819875D01*
X123563808Y-56773990D01*
X123655310Y-56745644D01*
X123762550Y-56735703D01*
X123882934Y-56746623D01*
G37*
G36*
X123129472Y-56386283D02*
G01*
X122852867Y-56386283D01*
X122588444Y-57162975D01*
X122322005Y-56386283D01*
X122044393Y-56386283D01*
X122044393Y-57911000D01*
X122236001Y-57911000D01*
X122236001Y-56563512D01*
X122508576Y-57366857D01*
X122665289Y-57366857D01*
X122938871Y-56563512D01*
X122938871Y-57911000D01*
X123129472Y-57911000D01*
X123129472Y-56386283D01*
G37*
G36*
X121387167Y-56740593D02*
G01*
X121482573Y-56755670D01*
X121578818Y-56780133D01*
X121682883Y-56815662D01*
X121682883Y-57004156D01*
X121587785Y-56957019D01*
X121491274Y-56923190D01*
X121392717Y-56902347D01*
X121296552Y-56895529D01*
X121197727Y-56903747D01*
X121126985Y-56925379D01*
X121077283Y-56957536D01*
X121040990Y-57003588D01*
X121017027Y-57067971D01*
X121007582Y-57156839D01*
X121007582Y-57186514D01*
X121260648Y-57186514D01*
X121387573Y-57193918D01*
X121490121Y-57214263D01*
X121572507Y-57245368D01*
X121638278Y-57285982D01*
X121693608Y-57340260D01*
X121733295Y-57405231D01*
X121758077Y-57483057D01*
X121766872Y-57576967D01*
X121759832Y-57658601D01*
X121739764Y-57728627D01*
X121707411Y-57789193D01*
X121662366Y-57841848D01*
X121607463Y-57884005D01*
X121543752Y-57914688D01*
X121469548Y-57933901D01*
X121382647Y-57940675D01*
X121296305Y-57934809D01*
X121222710Y-57918245D01*
X121159806Y-57892040D01*
X121103180Y-57854511D01*
X121052566Y-57804687D01*
X121007582Y-57740915D01*
X121007582Y-57911000D01*
X120817988Y-57911000D01*
X120817988Y-57376108D01*
X121007582Y-57376108D01*
X121014399Y-57471950D01*
X121032479Y-57552041D01*
X121060469Y-57618977D01*
X121097799Y-57674878D01*
X121146077Y-57721822D01*
X121201857Y-57755176D01*
X121266630Y-57775745D01*
X121342622Y-57782955D01*
X121414322Y-57775913D01*
X121470988Y-57756420D01*
X121515912Y-57725619D01*
X121549828Y-57683577D01*
X121570853Y-57630984D01*
X121578377Y-57564694D01*
X121568517Y-57492549D01*
X121540776Y-57436300D01*
X121494846Y-57392045D01*
X121436086Y-57361986D01*
X121355404Y-57341709D01*
X121246360Y-57334067D01*
X121183803Y-57334067D01*
X121007582Y-57334067D01*
X121007582Y-57376108D01*
X120817988Y-57376108D01*
X120817988Y-57256215D01*
X120822810Y-57115045D01*
X120834383Y-57030351D01*
X120857065Y-56959584D01*
X120889796Y-56903773D01*
X120935493Y-56852605D01*
X120989615Y-56810750D01*
X121053194Y-56777743D01*
X121121753Y-56755214D01*
X121202204Y-56740822D01*
X121296552Y-56735703D01*
X121387167Y-56740593D01*
G37*
G36*
X119552749Y-57852564D02*
G01*
X119630210Y-57891303D01*
X119709004Y-57918602D01*
X119790255Y-57935146D01*
X119873501Y-57940675D01*
X119980624Y-57933573D01*
X120073935Y-57913336D01*
X120155527Y-57881038D01*
X120227118Y-57837016D01*
X120289966Y-57780849D01*
X120353357Y-57697078D01*
X120400021Y-57597585D01*
X120429569Y-57479280D01*
X120440084Y-57338189D01*
X120429569Y-57197098D01*
X120400021Y-57078793D01*
X120353357Y-56979300D01*
X120289966Y-56895529D01*
X120227118Y-56839362D01*
X120155527Y-56795340D01*
X120073935Y-56763042D01*
X119980624Y-56742804D01*
X119873501Y-56735703D01*
X119791405Y-56741103D01*
X119711660Y-56757227D01*
X119633589Y-56784162D01*
X119552749Y-56823814D01*
X119552749Y-57021559D01*
X119629733Y-56962899D01*
X119702867Y-56925296D01*
X119781428Y-56903278D01*
X119873501Y-56895529D01*
X119960613Y-56903381D01*
X120033356Y-56925543D01*
X120094530Y-56961014D01*
X120146076Y-57010293D01*
X120185513Y-57069527D01*
X120215233Y-57142020D01*
X120234416Y-57230476D01*
X120241331Y-57338189D01*
X120234402Y-57445282D01*
X120215151Y-57533509D01*
X120185265Y-57606081D01*
X120145527Y-57665627D01*
X120093731Y-57715188D01*
X120032527Y-57750794D01*
X119960029Y-57772996D01*
X119873501Y-57780849D01*
X119778460Y-57772980D01*
X119697280Y-57750624D01*
X119623029Y-57712616D01*
X119552749Y-57656834D01*
X119552749Y-57852564D01*
G37*
G36*
X118193172Y-57000035D02*
G01*
X118255274Y-56958720D01*
X118316178Y-56931433D01*
X118380679Y-56915457D01*
X118453473Y-56909909D01*
X118540351Y-56917548D01*
X118612454Y-56939033D01*
X118672643Y-56973256D01*
X118722934Y-57020551D01*
X118761460Y-57077713D01*
X118790551Y-57148122D01*
X118809373Y-57234530D01*
X118816174Y-57340296D01*
X118816174Y-57911000D01*
X119005767Y-57911000D01*
X119005767Y-56763363D01*
X118816174Y-56763363D01*
X118816174Y-56987762D01*
X118778239Y-56911350D01*
X118730077Y-56849695D01*
X118671277Y-56800824D01*
X118603354Y-56765198D01*
X118526629Y-56743310D01*
X118439094Y-56735703D01*
X118370965Y-56740162D01*
X118309034Y-56753105D01*
X118250242Y-56775198D01*
X118193172Y-56807419D01*
X118193172Y-57000035D01*
G37*
G36*
X117599626Y-56746329D02*
G01*
X117697157Y-56776264D01*
X117778735Y-56824095D01*
X117847049Y-56890492D01*
X117898951Y-56970117D01*
X117938303Y-57068532D01*
X117963837Y-57189647D01*
X117973078Y-57338189D01*
X117963816Y-57487364D01*
X117938252Y-57608741D01*
X117898898Y-57707134D01*
X117847049Y-57786527D01*
X117778776Y-57852618D01*
X117697216Y-57900257D01*
X117599670Y-57930084D01*
X117482242Y-57940675D01*
X117364315Y-57930069D01*
X117266476Y-57900216D01*
X117184787Y-57852573D01*
X117116519Y-57786527D01*
X117064629Y-57707128D01*
X117025246Y-57608733D01*
X116999665Y-57487358D01*
X116990398Y-57338189D01*
X117190249Y-57338189D01*
X117199980Y-57482693D01*
X117225817Y-57590088D01*
X117264072Y-57668650D01*
X117305411Y-57717787D01*
X117354401Y-57752240D01*
X117412508Y-57773401D01*
X117482242Y-57780849D01*
X117551484Y-57773421D01*
X117609315Y-57752292D01*
X117658205Y-57717843D01*
X117699587Y-57668650D01*
X117737792Y-57590095D01*
X117763598Y-57482700D01*
X117773318Y-57338189D01*
X117763571Y-57192969D01*
X117737742Y-57085493D01*
X117699587Y-57007270D01*
X117658234Y-56958305D01*
X117609357Y-56923991D01*
X117551515Y-56902934D01*
X117482242Y-56895529D01*
X117412476Y-56902954D01*
X117354359Y-56924042D01*
X117305382Y-56958360D01*
X117264072Y-57007270D01*
X117225867Y-57085501D01*
X117200007Y-57192977D01*
X117190249Y-57338189D01*
X116990398Y-57338189D01*
X116999674Y-57189686D01*
X117025309Y-57068583D01*
X117064829Y-56970154D01*
X117116976Y-56890492D01*
X117185549Y-56824073D01*
X117267306Y-56776240D01*
X117364915Y-56746319D01*
X117482242Y-56735703D01*
X117599626Y-56746329D01*
G37*
G36*
X70896636Y-99020657D02*
G01*
X70992718Y-99023628D01*
X71082331Y-99030560D01*
X71165476Y-99041454D01*
X71242152Y-99056309D01*
X71328900Y-99080448D01*
X71405541Y-99110777D01*
X71472076Y-99147295D01*
X71507169Y-99172242D01*
X71567001Y-99229206D01*
X71613026Y-99295598D01*
X71645243Y-99371418D01*
X71663653Y-99456666D01*
X71668447Y-99534909D01*
X71666711Y-99582578D01*
X71656105Y-99656816D01*
X71630650Y-99737308D01*
X71591310Y-99808423D01*
X71538086Y-99870161D01*
X71470976Y-99922522D01*
X71432092Y-99945307D01*
X71359327Y-99978301D01*
X71276616Y-100005070D01*
X71203286Y-100022003D01*
X71123590Y-100034952D01*
X71037529Y-100043916D01*
X70945102Y-100048896D01*
X70871605Y-100050017D01*
X70846663Y-100049892D01*
X70750896Y-100046904D01*
X70661529Y-100039932D01*
X70578561Y-100028975D01*
X70501994Y-100014035D01*
X70415285Y-99989756D01*
X70338576Y-99959252D01*
X70271866Y-99922522D01*
X70236511Y-99897514D01*
X70176232Y-99840464D01*
X70129864Y-99774037D01*
X70097407Y-99698234D01*
X70078860Y-99613055D01*
X70074030Y-99534909D01*
X70238161Y-99534909D01*
X70243300Y-99591254D01*
X70270280Y-99663988D01*
X70320387Y-99722579D01*
X70384340Y-99762787D01*
X70393667Y-99767070D01*
X70469611Y-99793241D01*
X70549553Y-99810372D01*
X70626640Y-99820908D01*
X70713244Y-99828046D01*
X70789379Y-99831309D01*
X70871605Y-99832397D01*
X70892754Y-99832329D01*
X70973532Y-99830697D01*
X71048196Y-99826890D01*
X71132928Y-99819073D01*
X71208108Y-99807857D01*
X71285714Y-99789910D01*
X71358869Y-99762787D01*
X71408298Y-99733679D01*
X71463267Y-99678230D01*
X71495225Y-99608640D01*
X71504316Y-99534909D01*
X71499177Y-99478799D01*
X71472196Y-99406275D01*
X71422090Y-99347720D01*
X71358136Y-99307397D01*
X71348810Y-99303137D01*
X71272911Y-99277103D01*
X71193063Y-99260063D01*
X71116095Y-99249581D01*
X71029645Y-99242481D01*
X70953659Y-99239236D01*
X70871605Y-99238154D01*
X70850477Y-99238221D01*
X70769774Y-99239844D01*
X70695161Y-99243631D01*
X70610461Y-99251407D01*
X70535278Y-99262565D01*
X70457620Y-99280416D01*
X70384340Y-99307397D01*
X70334662Y-99336604D01*
X70279416Y-99392056D01*
X70247297Y-99461476D01*
X70238161Y-99534909D01*
X70074030Y-99534909D01*
X70075768Y-99487368D01*
X70086394Y-99413299D01*
X70111897Y-99332940D01*
X70151309Y-99261882D01*
X70204633Y-99200122D01*
X70271866Y-99147662D01*
X70310692Y-99124943D01*
X70383401Y-99092043D01*
X70466110Y-99065351D01*
X70539478Y-99048467D01*
X70619245Y-99035555D01*
X70705412Y-99026617D01*
X70797979Y-99021651D01*
X70871605Y-99020533D01*
X70896636Y-99020657D01*
G37*
G36*
X70097477Y-100182641D02*
G01*
X70097477Y-100467306D01*
X71375355Y-101068876D01*
X70097477Y-101068876D01*
X70097477Y-101290526D01*
X71645000Y-101290526D01*
X71645000Y-101006228D01*
X70388004Y-100404291D01*
X71645000Y-100404291D01*
X71645000Y-100182641D01*
X70097477Y-100182641D01*
G37*
G36*
X71222948Y-101827250D02*
G01*
X71222948Y-102189951D01*
X71645000Y-102189951D01*
X71645000Y-101827250D01*
X71222948Y-101827250D01*
G37*
G36*
X70496636Y-63720657D02*
G01*
X70592718Y-63723628D01*
X70682331Y-63730560D01*
X70765476Y-63741454D01*
X70842152Y-63756309D01*
X70928900Y-63780448D01*
X71005541Y-63810777D01*
X71072076Y-63847295D01*
X71107169Y-63872242D01*
X71167001Y-63929206D01*
X71213026Y-63995598D01*
X71245243Y-64071418D01*
X71263653Y-64156666D01*
X71268447Y-64234909D01*
X71266711Y-64282578D01*
X71256105Y-64356816D01*
X71230650Y-64437308D01*
X71191310Y-64508423D01*
X71138086Y-64570161D01*
X71070976Y-64622522D01*
X71032092Y-64645307D01*
X70959327Y-64678301D01*
X70876616Y-64705070D01*
X70803286Y-64722003D01*
X70723590Y-64734952D01*
X70637529Y-64743916D01*
X70545102Y-64748896D01*
X70471605Y-64750017D01*
X70446663Y-64749892D01*
X70350896Y-64746904D01*
X70261529Y-64739932D01*
X70178561Y-64728975D01*
X70101994Y-64714035D01*
X70015285Y-64689756D01*
X69938576Y-64659252D01*
X69871866Y-64622522D01*
X69836511Y-64597514D01*
X69776232Y-64540464D01*
X69729864Y-64474037D01*
X69697407Y-64398234D01*
X69678860Y-64313055D01*
X69674030Y-64234909D01*
X69838161Y-64234909D01*
X69843300Y-64291254D01*
X69870280Y-64363988D01*
X69920387Y-64422579D01*
X69984340Y-64462787D01*
X69993667Y-64467070D01*
X70069611Y-64493241D01*
X70149553Y-64510372D01*
X70226640Y-64520908D01*
X70313244Y-64528046D01*
X70389379Y-64531309D01*
X70471605Y-64532397D01*
X70492754Y-64532329D01*
X70573532Y-64530697D01*
X70648196Y-64526890D01*
X70732928Y-64519073D01*
X70808108Y-64507857D01*
X70885714Y-64489910D01*
X70958869Y-64462787D01*
X71008298Y-64433679D01*
X71063267Y-64378230D01*
X71095225Y-64308640D01*
X71104316Y-64234909D01*
X71099177Y-64178799D01*
X71072196Y-64106275D01*
X71022090Y-64047720D01*
X70958136Y-64007397D01*
X70948810Y-64003137D01*
X70872911Y-63977103D01*
X70793063Y-63960063D01*
X70716095Y-63949581D01*
X70629645Y-63942481D01*
X70553659Y-63939236D01*
X70471605Y-63938154D01*
X70450477Y-63938221D01*
X70369774Y-63939844D01*
X70295161Y-63943631D01*
X70210461Y-63951407D01*
X70135278Y-63962565D01*
X70057620Y-63980416D01*
X69984340Y-64007397D01*
X69934662Y-64036604D01*
X69879416Y-64092056D01*
X69847297Y-64161476D01*
X69838161Y-64234909D01*
X69674030Y-64234909D01*
X69675768Y-64187368D01*
X69686394Y-64113299D01*
X69711897Y-64032940D01*
X69751309Y-63961882D01*
X69804633Y-63900122D01*
X69871866Y-63847662D01*
X69910692Y-63824943D01*
X69983401Y-63792043D01*
X70066110Y-63765351D01*
X70139478Y-63748467D01*
X70219245Y-63735555D01*
X70305412Y-63726617D01*
X70397979Y-63721651D01*
X70471605Y-63720533D01*
X70496636Y-63720657D01*
G37*
G36*
X69697477Y-64882641D02*
G01*
X69697477Y-65167306D01*
X70975355Y-65768876D01*
X69697477Y-65768876D01*
X69697477Y-65990526D01*
X71245000Y-65990526D01*
X71245000Y-65706228D01*
X69988004Y-65104291D01*
X71245000Y-65104291D01*
X71245000Y-64882641D01*
X69697477Y-64882641D01*
G37*
G36*
X70822948Y-66527250D02*
G01*
X70822948Y-66889951D01*
X71245000Y-66889951D01*
X71245000Y-66527250D01*
X70822948Y-66527250D01*
G37*
D11*
X94642857Y-76684819D02*
X94976190Y-76208628D01*
X95214285Y-76684819D02*
X95214285Y-75684819D01*
X95214285Y-75684819D02*
X94833333Y-75684819D01*
X94833333Y-75684819D02*
X94738095Y-75732438D01*
X94738095Y-75732438D02*
X94690476Y-75780057D01*
X94690476Y-75780057D02*
X94642857Y-75875295D01*
X94642857Y-75875295D02*
X94642857Y-76018152D01*
X94642857Y-76018152D02*
X94690476Y-76113390D01*
X94690476Y-76113390D02*
X94738095Y-76161009D01*
X94738095Y-76161009D02*
X94833333Y-76208628D01*
X94833333Y-76208628D02*
X95214285Y-76208628D01*
X94261904Y-75780057D02*
X94214285Y-75732438D01*
X94214285Y-75732438D02*
X94119047Y-75684819D01*
X94119047Y-75684819D02*
X93880952Y-75684819D01*
X93880952Y-75684819D02*
X93785714Y-75732438D01*
X93785714Y-75732438D02*
X93738095Y-75780057D01*
X93738095Y-75780057D02*
X93690476Y-75875295D01*
X93690476Y-75875295D02*
X93690476Y-75970533D01*
X93690476Y-75970533D02*
X93738095Y-76113390D01*
X93738095Y-76113390D02*
X94309523Y-76684819D01*
X94309523Y-76684819D02*
X93690476Y-76684819D01*
X92738095Y-76684819D02*
X93309523Y-76684819D01*
X93023809Y-76684819D02*
X93023809Y-75684819D01*
X93023809Y-75684819D02*
X93119047Y-75827676D01*
X93119047Y-75827676D02*
X93214285Y-75922914D01*
X93214285Y-75922914D02*
X93309523Y-75970533D01*
X113942857Y-76684819D02*
X114276190Y-76208628D01*
X114514285Y-76684819D02*
X114514285Y-75684819D01*
X114514285Y-75684819D02*
X114133333Y-75684819D01*
X114133333Y-75684819D02*
X114038095Y-75732438D01*
X114038095Y-75732438D02*
X113990476Y-75780057D01*
X113990476Y-75780057D02*
X113942857Y-75875295D01*
X113942857Y-75875295D02*
X113942857Y-76018152D01*
X113942857Y-76018152D02*
X113990476Y-76113390D01*
X113990476Y-76113390D02*
X114038095Y-76161009D01*
X114038095Y-76161009D02*
X114133333Y-76208628D01*
X114133333Y-76208628D02*
X114514285Y-76208628D01*
X113561904Y-75780057D02*
X113514285Y-75732438D01*
X113514285Y-75732438D02*
X113419047Y-75684819D01*
X113419047Y-75684819D02*
X113180952Y-75684819D01*
X113180952Y-75684819D02*
X113085714Y-75732438D01*
X113085714Y-75732438D02*
X113038095Y-75780057D01*
X113038095Y-75780057D02*
X112990476Y-75875295D01*
X112990476Y-75875295D02*
X112990476Y-75970533D01*
X112990476Y-75970533D02*
X113038095Y-76113390D01*
X113038095Y-76113390D02*
X113609523Y-76684819D01*
X113609523Y-76684819D02*
X112990476Y-76684819D01*
X112133333Y-76018152D02*
X112133333Y-76684819D01*
X112371428Y-75637200D02*
X112609523Y-76351485D01*
X112609523Y-76351485D02*
X111990476Y-76351485D01*
X152455357Y-76684819D02*
X152788690Y-76208628D01*
X153026785Y-76684819D02*
X153026785Y-75684819D01*
X153026785Y-75684819D02*
X152645833Y-75684819D01*
X152645833Y-75684819D02*
X152550595Y-75732438D01*
X152550595Y-75732438D02*
X152502976Y-75780057D01*
X152502976Y-75780057D02*
X152455357Y-75875295D01*
X152455357Y-75875295D02*
X152455357Y-76018152D01*
X152455357Y-76018152D02*
X152502976Y-76113390D01*
X152502976Y-76113390D02*
X152550595Y-76161009D01*
X152550595Y-76161009D02*
X152645833Y-76208628D01*
X152645833Y-76208628D02*
X153026785Y-76208628D01*
X152122023Y-75684819D02*
X151502976Y-75684819D01*
X151502976Y-75684819D02*
X151836309Y-76065771D01*
X151836309Y-76065771D02*
X151693452Y-76065771D01*
X151693452Y-76065771D02*
X151598214Y-76113390D01*
X151598214Y-76113390D02*
X151550595Y-76161009D01*
X151550595Y-76161009D02*
X151502976Y-76256247D01*
X151502976Y-76256247D02*
X151502976Y-76494342D01*
X151502976Y-76494342D02*
X151550595Y-76589580D01*
X151550595Y-76589580D02*
X151598214Y-76637200D01*
X151598214Y-76637200D02*
X151693452Y-76684819D01*
X151693452Y-76684819D02*
X151979166Y-76684819D01*
X151979166Y-76684819D02*
X152074404Y-76637200D01*
X152074404Y-76637200D02*
X152122023Y-76589580D01*
X150883928Y-75684819D02*
X150788690Y-75684819D01*
X150788690Y-75684819D02*
X150693452Y-75732438D01*
X150693452Y-75732438D02*
X150645833Y-75780057D01*
X150645833Y-75780057D02*
X150598214Y-75875295D01*
X150598214Y-75875295D02*
X150550595Y-76065771D01*
X150550595Y-76065771D02*
X150550595Y-76303866D01*
X150550595Y-76303866D02*
X150598214Y-76494342D01*
X150598214Y-76494342D02*
X150645833Y-76589580D01*
X150645833Y-76589580D02*
X150693452Y-76637200D01*
X150693452Y-76637200D02*
X150788690Y-76684819D01*
X150788690Y-76684819D02*
X150883928Y-76684819D01*
X150883928Y-76684819D02*
X150979166Y-76637200D01*
X150979166Y-76637200D02*
X151026785Y-76589580D01*
X151026785Y-76589580D02*
X151074404Y-76494342D01*
X151074404Y-76494342D02*
X151122023Y-76303866D01*
X151122023Y-76303866D02*
X151122023Y-76065771D01*
X151122023Y-76065771D02*
X151074404Y-75875295D01*
X151074404Y-75875295D02*
X151026785Y-75780057D01*
X151026785Y-75780057D02*
X150979166Y-75732438D01*
X150979166Y-75732438D02*
X150883928Y-75684819D01*
X113942857Y-134484819D02*
X114276190Y-134008628D01*
X114514285Y-134484819D02*
X114514285Y-133484819D01*
X114514285Y-133484819D02*
X114133333Y-133484819D01*
X114133333Y-133484819D02*
X114038095Y-133532438D01*
X114038095Y-133532438D02*
X113990476Y-133580057D01*
X113990476Y-133580057D02*
X113942857Y-133675295D01*
X113942857Y-133675295D02*
X113942857Y-133818152D01*
X113942857Y-133818152D02*
X113990476Y-133913390D01*
X113990476Y-133913390D02*
X114038095Y-133961009D01*
X114038095Y-133961009D02*
X114133333Y-134008628D01*
X114133333Y-134008628D02*
X114514285Y-134008628D01*
X113038095Y-133484819D02*
X113514285Y-133484819D01*
X113514285Y-133484819D02*
X113561904Y-133961009D01*
X113561904Y-133961009D02*
X113514285Y-133913390D01*
X113514285Y-133913390D02*
X113419047Y-133865771D01*
X113419047Y-133865771D02*
X113180952Y-133865771D01*
X113180952Y-133865771D02*
X113085714Y-133913390D01*
X113085714Y-133913390D02*
X113038095Y-133961009D01*
X113038095Y-133961009D02*
X112990476Y-134056247D01*
X112990476Y-134056247D02*
X112990476Y-134294342D01*
X112990476Y-134294342D02*
X113038095Y-134389580D01*
X113038095Y-134389580D02*
X113085714Y-134437200D01*
X113085714Y-134437200D02*
X113180952Y-134484819D01*
X113180952Y-134484819D02*
X113419047Y-134484819D01*
X113419047Y-134484819D02*
X113514285Y-134437200D01*
X113514285Y-134437200D02*
X113561904Y-134389580D01*
X112133333Y-133818152D02*
X112133333Y-134484819D01*
X112371428Y-133437200D02*
X112609523Y-134151485D01*
X112609523Y-134151485D02*
X111990476Y-134151485D01*
X133142857Y-76684819D02*
X133476190Y-76208628D01*
X133714285Y-76684819D02*
X133714285Y-75684819D01*
X133714285Y-75684819D02*
X133333333Y-75684819D01*
X133333333Y-75684819D02*
X133238095Y-75732438D01*
X133238095Y-75732438D02*
X133190476Y-75780057D01*
X133190476Y-75780057D02*
X133142857Y-75875295D01*
X133142857Y-75875295D02*
X133142857Y-76018152D01*
X133142857Y-76018152D02*
X133190476Y-76113390D01*
X133190476Y-76113390D02*
X133238095Y-76161009D01*
X133238095Y-76161009D02*
X133333333Y-76208628D01*
X133333333Y-76208628D02*
X133714285Y-76208628D01*
X132761904Y-75780057D02*
X132714285Y-75732438D01*
X132714285Y-75732438D02*
X132619047Y-75684819D01*
X132619047Y-75684819D02*
X132380952Y-75684819D01*
X132380952Y-75684819D02*
X132285714Y-75732438D01*
X132285714Y-75732438D02*
X132238095Y-75780057D01*
X132238095Y-75780057D02*
X132190476Y-75875295D01*
X132190476Y-75875295D02*
X132190476Y-75970533D01*
X132190476Y-75970533D02*
X132238095Y-76113390D01*
X132238095Y-76113390D02*
X132809523Y-76684819D01*
X132809523Y-76684819D02*
X132190476Y-76684819D01*
X131857142Y-75684819D02*
X131190476Y-75684819D01*
X131190476Y-75684819D02*
X131619047Y-76684819D01*
X152455357Y-115184819D02*
X152788690Y-114708628D01*
X153026785Y-115184819D02*
X153026785Y-114184819D01*
X153026785Y-114184819D02*
X152645833Y-114184819D01*
X152645833Y-114184819D02*
X152550595Y-114232438D01*
X152550595Y-114232438D02*
X152502976Y-114280057D01*
X152502976Y-114280057D02*
X152455357Y-114375295D01*
X152455357Y-114375295D02*
X152455357Y-114518152D01*
X152455357Y-114518152D02*
X152502976Y-114613390D01*
X152502976Y-114613390D02*
X152550595Y-114661009D01*
X152550595Y-114661009D02*
X152645833Y-114708628D01*
X152645833Y-114708628D02*
X153026785Y-114708628D01*
X151598214Y-114184819D02*
X151788690Y-114184819D01*
X151788690Y-114184819D02*
X151883928Y-114232438D01*
X151883928Y-114232438D02*
X151931547Y-114280057D01*
X151931547Y-114280057D02*
X152026785Y-114422914D01*
X152026785Y-114422914D02*
X152074404Y-114613390D01*
X152074404Y-114613390D02*
X152074404Y-114994342D01*
X152074404Y-114994342D02*
X152026785Y-115089580D01*
X152026785Y-115089580D02*
X151979166Y-115137200D01*
X151979166Y-115137200D02*
X151883928Y-115184819D01*
X151883928Y-115184819D02*
X151693452Y-115184819D01*
X151693452Y-115184819D02*
X151598214Y-115137200D01*
X151598214Y-115137200D02*
X151550595Y-115089580D01*
X151550595Y-115089580D02*
X151502976Y-114994342D01*
X151502976Y-114994342D02*
X151502976Y-114756247D01*
X151502976Y-114756247D02*
X151550595Y-114661009D01*
X151550595Y-114661009D02*
X151598214Y-114613390D01*
X151598214Y-114613390D02*
X151693452Y-114565771D01*
X151693452Y-114565771D02*
X151883928Y-114565771D01*
X151883928Y-114565771D02*
X151979166Y-114613390D01*
X151979166Y-114613390D02*
X152026785Y-114661009D01*
X152026785Y-114661009D02*
X152074404Y-114756247D01*
X150598214Y-114184819D02*
X151074404Y-114184819D01*
X151074404Y-114184819D02*
X151122023Y-114661009D01*
X151122023Y-114661009D02*
X151074404Y-114613390D01*
X151074404Y-114613390D02*
X150979166Y-114565771D01*
X150979166Y-114565771D02*
X150741071Y-114565771D01*
X150741071Y-114565771D02*
X150645833Y-114613390D01*
X150645833Y-114613390D02*
X150598214Y-114661009D01*
X150598214Y-114661009D02*
X150550595Y-114756247D01*
X150550595Y-114756247D02*
X150550595Y-114994342D01*
X150550595Y-114994342D02*
X150598214Y-115089580D01*
X150598214Y-115089580D02*
X150645833Y-115137200D01*
X150645833Y-115137200D02*
X150741071Y-115184819D01*
X150741071Y-115184819D02*
X150979166Y-115184819D01*
X150979166Y-115184819D02*
X151074404Y-115137200D01*
X151074404Y-115137200D02*
X151122023Y-115089580D01*
X113942857Y-95984819D02*
X114276190Y-95508628D01*
X114514285Y-95984819D02*
X114514285Y-94984819D01*
X114514285Y-94984819D02*
X114133333Y-94984819D01*
X114133333Y-94984819D02*
X114038095Y-95032438D01*
X114038095Y-95032438D02*
X113990476Y-95080057D01*
X113990476Y-95080057D02*
X113942857Y-95175295D01*
X113942857Y-95175295D02*
X113942857Y-95318152D01*
X113942857Y-95318152D02*
X113990476Y-95413390D01*
X113990476Y-95413390D02*
X114038095Y-95461009D01*
X114038095Y-95461009D02*
X114133333Y-95508628D01*
X114133333Y-95508628D02*
X114514285Y-95508628D01*
X113609523Y-94984819D02*
X112990476Y-94984819D01*
X112990476Y-94984819D02*
X113323809Y-95365771D01*
X113323809Y-95365771D02*
X113180952Y-95365771D01*
X113180952Y-95365771D02*
X113085714Y-95413390D01*
X113085714Y-95413390D02*
X113038095Y-95461009D01*
X113038095Y-95461009D02*
X112990476Y-95556247D01*
X112990476Y-95556247D02*
X112990476Y-95794342D01*
X112990476Y-95794342D02*
X113038095Y-95889580D01*
X113038095Y-95889580D02*
X113085714Y-95937200D01*
X113085714Y-95937200D02*
X113180952Y-95984819D01*
X113180952Y-95984819D02*
X113466666Y-95984819D01*
X113466666Y-95984819D02*
X113561904Y-95937200D01*
X113561904Y-95937200D02*
X113609523Y-95889580D01*
X112133333Y-94984819D02*
X112323809Y-94984819D01*
X112323809Y-94984819D02*
X112419047Y-95032438D01*
X112419047Y-95032438D02*
X112466666Y-95080057D01*
X112466666Y-95080057D02*
X112561904Y-95222914D01*
X112561904Y-95222914D02*
X112609523Y-95413390D01*
X112609523Y-95413390D02*
X112609523Y-95794342D01*
X112609523Y-95794342D02*
X112561904Y-95889580D01*
X112561904Y-95889580D02*
X112514285Y-95937200D01*
X112514285Y-95937200D02*
X112419047Y-95984819D01*
X112419047Y-95984819D02*
X112228571Y-95984819D01*
X112228571Y-95984819D02*
X112133333Y-95937200D01*
X112133333Y-95937200D02*
X112085714Y-95889580D01*
X112085714Y-95889580D02*
X112038095Y-95794342D01*
X112038095Y-95794342D02*
X112038095Y-95556247D01*
X112038095Y-95556247D02*
X112085714Y-95461009D01*
X112085714Y-95461009D02*
X112133333Y-95413390D01*
X112133333Y-95413390D02*
X112228571Y-95365771D01*
X112228571Y-95365771D02*
X112419047Y-95365771D01*
X112419047Y-95365771D02*
X112514285Y-95413390D01*
X112514285Y-95413390D02*
X112561904Y-95461009D01*
X112561904Y-95461009D02*
X112609523Y-95556247D01*
X133055357Y-95984819D02*
X133388690Y-95508628D01*
X133626785Y-95984819D02*
X133626785Y-94984819D01*
X133626785Y-94984819D02*
X133245833Y-94984819D01*
X133245833Y-94984819D02*
X133150595Y-95032438D01*
X133150595Y-95032438D02*
X133102976Y-95080057D01*
X133102976Y-95080057D02*
X133055357Y-95175295D01*
X133055357Y-95175295D02*
X133055357Y-95318152D01*
X133055357Y-95318152D02*
X133102976Y-95413390D01*
X133102976Y-95413390D02*
X133150595Y-95461009D01*
X133150595Y-95461009D02*
X133245833Y-95508628D01*
X133245833Y-95508628D02*
X133626785Y-95508628D01*
X132722023Y-94984819D02*
X132102976Y-94984819D01*
X132102976Y-94984819D02*
X132436309Y-95365771D01*
X132436309Y-95365771D02*
X132293452Y-95365771D01*
X132293452Y-95365771D02*
X132198214Y-95413390D01*
X132198214Y-95413390D02*
X132150595Y-95461009D01*
X132150595Y-95461009D02*
X132102976Y-95556247D01*
X132102976Y-95556247D02*
X132102976Y-95794342D01*
X132102976Y-95794342D02*
X132150595Y-95889580D01*
X132150595Y-95889580D02*
X132198214Y-95937200D01*
X132198214Y-95937200D02*
X132293452Y-95984819D01*
X132293452Y-95984819D02*
X132579166Y-95984819D01*
X132579166Y-95984819D02*
X132674404Y-95937200D01*
X132674404Y-95937200D02*
X132722023Y-95889580D01*
X131626785Y-95984819D02*
X131436309Y-95984819D01*
X131436309Y-95984819D02*
X131341071Y-95937200D01*
X131341071Y-95937200D02*
X131293452Y-95889580D01*
X131293452Y-95889580D02*
X131198214Y-95746723D01*
X131198214Y-95746723D02*
X131150595Y-95556247D01*
X131150595Y-95556247D02*
X131150595Y-95175295D01*
X131150595Y-95175295D02*
X131198214Y-95080057D01*
X131198214Y-95080057D02*
X131245833Y-95032438D01*
X131245833Y-95032438D02*
X131341071Y-94984819D01*
X131341071Y-94984819D02*
X131531547Y-94984819D01*
X131531547Y-94984819D02*
X131626785Y-95032438D01*
X131626785Y-95032438D02*
X131674404Y-95080057D01*
X131674404Y-95080057D02*
X131722023Y-95175295D01*
X131722023Y-95175295D02*
X131722023Y-95413390D01*
X131722023Y-95413390D02*
X131674404Y-95508628D01*
X131674404Y-95508628D02*
X131626785Y-95556247D01*
X131626785Y-95556247D02*
X131531547Y-95603866D01*
X131531547Y-95603866D02*
X131341071Y-95603866D01*
X131341071Y-95603866D02*
X131245833Y-95556247D01*
X131245833Y-95556247D02*
X131198214Y-95508628D01*
X131198214Y-95508628D02*
X131150595Y-95413390D01*
X152455357Y-95984819D02*
X152788690Y-95508628D01*
X153026785Y-95984819D02*
X153026785Y-94984819D01*
X153026785Y-94984819D02*
X152645833Y-94984819D01*
X152645833Y-94984819D02*
X152550595Y-95032438D01*
X152550595Y-95032438D02*
X152502976Y-95080057D01*
X152502976Y-95080057D02*
X152455357Y-95175295D01*
X152455357Y-95175295D02*
X152455357Y-95318152D01*
X152455357Y-95318152D02*
X152502976Y-95413390D01*
X152502976Y-95413390D02*
X152550595Y-95461009D01*
X152550595Y-95461009D02*
X152645833Y-95508628D01*
X152645833Y-95508628D02*
X153026785Y-95508628D01*
X151598214Y-95318152D02*
X151598214Y-95984819D01*
X151836309Y-94937200D02*
X152074404Y-95651485D01*
X152074404Y-95651485D02*
X151455357Y-95651485D01*
X151122023Y-95080057D02*
X151074404Y-95032438D01*
X151074404Y-95032438D02*
X150979166Y-94984819D01*
X150979166Y-94984819D02*
X150741071Y-94984819D01*
X150741071Y-94984819D02*
X150645833Y-95032438D01*
X150645833Y-95032438D02*
X150598214Y-95080057D01*
X150598214Y-95080057D02*
X150550595Y-95175295D01*
X150550595Y-95175295D02*
X150550595Y-95270533D01*
X150550595Y-95270533D02*
X150598214Y-95413390D01*
X150598214Y-95413390D02*
X151169642Y-95984819D01*
X151169642Y-95984819D02*
X150550595Y-95984819D01*
X71742857Y-97054819D02*
X72076190Y-96578628D01*
X72314285Y-97054819D02*
X72314285Y-96054819D01*
X72314285Y-96054819D02*
X71933333Y-96054819D01*
X71933333Y-96054819D02*
X71838095Y-96102438D01*
X71838095Y-96102438D02*
X71790476Y-96150057D01*
X71790476Y-96150057D02*
X71742857Y-96245295D01*
X71742857Y-96245295D02*
X71742857Y-96388152D01*
X71742857Y-96388152D02*
X71790476Y-96483390D01*
X71790476Y-96483390D02*
X71838095Y-96531009D01*
X71838095Y-96531009D02*
X71933333Y-96578628D01*
X71933333Y-96578628D02*
X72314285Y-96578628D01*
X70790476Y-97054819D02*
X71361904Y-97054819D01*
X71076190Y-97054819D02*
X71076190Y-96054819D01*
X71076190Y-96054819D02*
X71171428Y-96197676D01*
X71171428Y-96197676D02*
X71266666Y-96292914D01*
X71266666Y-96292914D02*
X71361904Y-96340533D01*
X70457142Y-96054819D02*
X69790476Y-96054819D01*
X69790476Y-96054819D02*
X70219047Y-97054819D01*
X74583333Y-62679819D02*
X74583333Y-63394104D01*
X74583333Y-63394104D02*
X74630952Y-63536961D01*
X74630952Y-63536961D02*
X74726190Y-63632200D01*
X74726190Y-63632200D02*
X74869047Y-63679819D01*
X74869047Y-63679819D02*
X74964285Y-63679819D01*
X74107142Y-63679819D02*
X74107142Y-62679819D01*
X74107142Y-62679819D02*
X73726190Y-62679819D01*
X73726190Y-62679819D02*
X73630952Y-62727438D01*
X73630952Y-62727438D02*
X73583333Y-62775057D01*
X73583333Y-62775057D02*
X73535714Y-62870295D01*
X73535714Y-62870295D02*
X73535714Y-63013152D01*
X73535714Y-63013152D02*
X73583333Y-63108390D01*
X73583333Y-63108390D02*
X73630952Y-63156009D01*
X73630952Y-63156009D02*
X73726190Y-63203628D01*
X73726190Y-63203628D02*
X74107142Y-63203628D01*
X73154761Y-62775057D02*
X73107142Y-62727438D01*
X73107142Y-62727438D02*
X73011904Y-62679819D01*
X73011904Y-62679819D02*
X72773809Y-62679819D01*
X72773809Y-62679819D02*
X72678571Y-62727438D01*
X72678571Y-62727438D02*
X72630952Y-62775057D01*
X72630952Y-62775057D02*
X72583333Y-62870295D01*
X72583333Y-62870295D02*
X72583333Y-62965533D01*
X72583333Y-62965533D02*
X72630952Y-63108390D01*
X72630952Y-63108390D02*
X73202380Y-63679819D01*
X73202380Y-63679819D02*
X72583333Y-63679819D01*
X79930357Y-64024819D02*
X80263690Y-63548628D01*
X80501785Y-64024819D02*
X80501785Y-63024819D01*
X80501785Y-63024819D02*
X80120833Y-63024819D01*
X80120833Y-63024819D02*
X80025595Y-63072438D01*
X80025595Y-63072438D02*
X79977976Y-63120057D01*
X79977976Y-63120057D02*
X79930357Y-63215295D01*
X79930357Y-63215295D02*
X79930357Y-63358152D01*
X79930357Y-63358152D02*
X79977976Y-63453390D01*
X79977976Y-63453390D02*
X80025595Y-63501009D01*
X80025595Y-63501009D02*
X80120833Y-63548628D01*
X80120833Y-63548628D02*
X80501785Y-63548628D01*
X78977976Y-64024819D02*
X79549404Y-64024819D01*
X79263690Y-64024819D02*
X79263690Y-63024819D01*
X79263690Y-63024819D02*
X79358928Y-63167676D01*
X79358928Y-63167676D02*
X79454166Y-63262914D01*
X79454166Y-63262914D02*
X79549404Y-63310533D01*
X78406547Y-63453390D02*
X78501785Y-63405771D01*
X78501785Y-63405771D02*
X78549404Y-63358152D01*
X78549404Y-63358152D02*
X78597023Y-63262914D01*
X78597023Y-63262914D02*
X78597023Y-63215295D01*
X78597023Y-63215295D02*
X78549404Y-63120057D01*
X78549404Y-63120057D02*
X78501785Y-63072438D01*
X78501785Y-63072438D02*
X78406547Y-63024819D01*
X78406547Y-63024819D02*
X78216071Y-63024819D01*
X78216071Y-63024819D02*
X78120833Y-63072438D01*
X78120833Y-63072438D02*
X78073214Y-63120057D01*
X78073214Y-63120057D02*
X78025595Y-63215295D01*
X78025595Y-63215295D02*
X78025595Y-63262914D01*
X78025595Y-63262914D02*
X78073214Y-63358152D01*
X78073214Y-63358152D02*
X78120833Y-63405771D01*
X78120833Y-63405771D02*
X78216071Y-63453390D01*
X78216071Y-63453390D02*
X78406547Y-63453390D01*
X78406547Y-63453390D02*
X78501785Y-63501009D01*
X78501785Y-63501009D02*
X78549404Y-63548628D01*
X78549404Y-63548628D02*
X78597023Y-63643866D01*
X78597023Y-63643866D02*
X78597023Y-63834342D01*
X78597023Y-63834342D02*
X78549404Y-63929580D01*
X78549404Y-63929580D02*
X78501785Y-63977200D01*
X78501785Y-63977200D02*
X78406547Y-64024819D01*
X78406547Y-64024819D02*
X78216071Y-64024819D01*
X78216071Y-64024819D02*
X78120833Y-63977200D01*
X78120833Y-63977200D02*
X78073214Y-63929580D01*
X78073214Y-63929580D02*
X78025595Y-63834342D01*
X78025595Y-63834342D02*
X78025595Y-63643866D01*
X78025595Y-63643866D02*
X78073214Y-63548628D01*
X78073214Y-63548628D02*
X78120833Y-63501009D01*
X78120833Y-63501009D02*
X78216071Y-63453390D01*
X75108333Y-97979819D02*
X75108333Y-98694104D01*
X75108333Y-98694104D02*
X75155952Y-98836961D01*
X75155952Y-98836961D02*
X75251190Y-98932200D01*
X75251190Y-98932200D02*
X75394047Y-98979819D01*
X75394047Y-98979819D02*
X75489285Y-98979819D01*
X74632142Y-98979819D02*
X74632142Y-97979819D01*
X74632142Y-97979819D02*
X74251190Y-97979819D01*
X74251190Y-97979819D02*
X74155952Y-98027438D01*
X74155952Y-98027438D02*
X74108333Y-98075057D01*
X74108333Y-98075057D02*
X74060714Y-98170295D01*
X74060714Y-98170295D02*
X74060714Y-98313152D01*
X74060714Y-98313152D02*
X74108333Y-98408390D01*
X74108333Y-98408390D02*
X74155952Y-98456009D01*
X74155952Y-98456009D02*
X74251190Y-98503628D01*
X74251190Y-98503628D02*
X74632142Y-98503628D01*
X73108333Y-98979819D02*
X73679761Y-98979819D01*
X73394047Y-98979819D02*
X73394047Y-97979819D01*
X73394047Y-97979819D02*
X73489285Y-98122676D01*
X73489285Y-98122676D02*
X73584523Y-98217914D01*
X73584523Y-98217914D02*
X73679761Y-98265533D01*
X113955357Y-115184819D02*
X114288690Y-114708628D01*
X114526785Y-115184819D02*
X114526785Y-114184819D01*
X114526785Y-114184819D02*
X114145833Y-114184819D01*
X114145833Y-114184819D02*
X114050595Y-114232438D01*
X114050595Y-114232438D02*
X114002976Y-114280057D01*
X114002976Y-114280057D02*
X113955357Y-114375295D01*
X113955357Y-114375295D02*
X113955357Y-114518152D01*
X113955357Y-114518152D02*
X114002976Y-114613390D01*
X114002976Y-114613390D02*
X114050595Y-114661009D01*
X114050595Y-114661009D02*
X114145833Y-114708628D01*
X114145833Y-114708628D02*
X114526785Y-114708628D01*
X113050595Y-114184819D02*
X113526785Y-114184819D01*
X113526785Y-114184819D02*
X113574404Y-114661009D01*
X113574404Y-114661009D02*
X113526785Y-114613390D01*
X113526785Y-114613390D02*
X113431547Y-114565771D01*
X113431547Y-114565771D02*
X113193452Y-114565771D01*
X113193452Y-114565771D02*
X113098214Y-114613390D01*
X113098214Y-114613390D02*
X113050595Y-114661009D01*
X113050595Y-114661009D02*
X113002976Y-114756247D01*
X113002976Y-114756247D02*
X113002976Y-114994342D01*
X113002976Y-114994342D02*
X113050595Y-115089580D01*
X113050595Y-115089580D02*
X113098214Y-115137200D01*
X113098214Y-115137200D02*
X113193452Y-115184819D01*
X113193452Y-115184819D02*
X113431547Y-115184819D01*
X113431547Y-115184819D02*
X113526785Y-115137200D01*
X113526785Y-115137200D02*
X113574404Y-115089580D01*
X112669642Y-114184819D02*
X112050595Y-114184819D01*
X112050595Y-114184819D02*
X112383928Y-114565771D01*
X112383928Y-114565771D02*
X112241071Y-114565771D01*
X112241071Y-114565771D02*
X112145833Y-114613390D01*
X112145833Y-114613390D02*
X112098214Y-114661009D01*
X112098214Y-114661009D02*
X112050595Y-114756247D01*
X112050595Y-114756247D02*
X112050595Y-114994342D01*
X112050595Y-114994342D02*
X112098214Y-115089580D01*
X112098214Y-115089580D02*
X112145833Y-115137200D01*
X112145833Y-115137200D02*
X112241071Y-115184819D01*
X112241071Y-115184819D02*
X112526785Y-115184819D01*
X112526785Y-115184819D02*
X112622023Y-115137200D01*
X112622023Y-115137200D02*
X112669642Y-115089580D01*
X94742857Y-134484819D02*
X95076190Y-134008628D01*
X95314285Y-134484819D02*
X95314285Y-133484819D01*
X95314285Y-133484819D02*
X94933333Y-133484819D01*
X94933333Y-133484819D02*
X94838095Y-133532438D01*
X94838095Y-133532438D02*
X94790476Y-133580057D01*
X94790476Y-133580057D02*
X94742857Y-133675295D01*
X94742857Y-133675295D02*
X94742857Y-133818152D01*
X94742857Y-133818152D02*
X94790476Y-133913390D01*
X94790476Y-133913390D02*
X94838095Y-133961009D01*
X94838095Y-133961009D02*
X94933333Y-134008628D01*
X94933333Y-134008628D02*
X95314285Y-134008628D01*
X93885714Y-133818152D02*
X93885714Y-134484819D01*
X94123809Y-133437200D02*
X94361904Y-134151485D01*
X94361904Y-134151485D02*
X93742857Y-134151485D01*
X93219047Y-133913390D02*
X93314285Y-133865771D01*
X93314285Y-133865771D02*
X93361904Y-133818152D01*
X93361904Y-133818152D02*
X93409523Y-133722914D01*
X93409523Y-133722914D02*
X93409523Y-133675295D01*
X93409523Y-133675295D02*
X93361904Y-133580057D01*
X93361904Y-133580057D02*
X93314285Y-133532438D01*
X93314285Y-133532438D02*
X93219047Y-133484819D01*
X93219047Y-133484819D02*
X93028571Y-133484819D01*
X93028571Y-133484819D02*
X92933333Y-133532438D01*
X92933333Y-133532438D02*
X92885714Y-133580057D01*
X92885714Y-133580057D02*
X92838095Y-133675295D01*
X92838095Y-133675295D02*
X92838095Y-133722914D01*
X92838095Y-133722914D02*
X92885714Y-133818152D01*
X92885714Y-133818152D02*
X92933333Y-133865771D01*
X92933333Y-133865771D02*
X93028571Y-133913390D01*
X93028571Y-133913390D02*
X93219047Y-133913390D01*
X93219047Y-133913390D02*
X93314285Y-133961009D01*
X93314285Y-133961009D02*
X93361904Y-134008628D01*
X93361904Y-134008628D02*
X93409523Y-134103866D01*
X93409523Y-134103866D02*
X93409523Y-134294342D01*
X93409523Y-134294342D02*
X93361904Y-134389580D01*
X93361904Y-134389580D02*
X93314285Y-134437200D01*
X93314285Y-134437200D02*
X93219047Y-134484819D01*
X93219047Y-134484819D02*
X93028571Y-134484819D01*
X93028571Y-134484819D02*
X92933333Y-134437200D01*
X92933333Y-134437200D02*
X92885714Y-134389580D01*
X92885714Y-134389580D02*
X92838095Y-134294342D01*
X92838095Y-134294342D02*
X92838095Y-134103866D01*
X92838095Y-134103866D02*
X92885714Y-134008628D01*
X92885714Y-134008628D02*
X92933333Y-133961009D01*
X92933333Y-133961009D02*
X93028571Y-133913390D01*
X133242857Y-115184819D02*
X133576190Y-114708628D01*
X133814285Y-115184819D02*
X133814285Y-114184819D01*
X133814285Y-114184819D02*
X133433333Y-114184819D01*
X133433333Y-114184819D02*
X133338095Y-114232438D01*
X133338095Y-114232438D02*
X133290476Y-114280057D01*
X133290476Y-114280057D02*
X133242857Y-114375295D01*
X133242857Y-114375295D02*
X133242857Y-114518152D01*
X133242857Y-114518152D02*
X133290476Y-114613390D01*
X133290476Y-114613390D02*
X133338095Y-114661009D01*
X133338095Y-114661009D02*
X133433333Y-114708628D01*
X133433333Y-114708628D02*
X133814285Y-114708628D01*
X132338095Y-114184819D02*
X132814285Y-114184819D01*
X132814285Y-114184819D02*
X132861904Y-114661009D01*
X132861904Y-114661009D02*
X132814285Y-114613390D01*
X132814285Y-114613390D02*
X132719047Y-114565771D01*
X132719047Y-114565771D02*
X132480952Y-114565771D01*
X132480952Y-114565771D02*
X132385714Y-114613390D01*
X132385714Y-114613390D02*
X132338095Y-114661009D01*
X132338095Y-114661009D02*
X132290476Y-114756247D01*
X132290476Y-114756247D02*
X132290476Y-114994342D01*
X132290476Y-114994342D02*
X132338095Y-115089580D01*
X132338095Y-115089580D02*
X132385714Y-115137200D01*
X132385714Y-115137200D02*
X132480952Y-115184819D01*
X132480952Y-115184819D02*
X132719047Y-115184819D01*
X132719047Y-115184819D02*
X132814285Y-115137200D01*
X132814285Y-115137200D02*
X132861904Y-115089580D01*
X131814285Y-115184819D02*
X131623809Y-115184819D01*
X131623809Y-115184819D02*
X131528571Y-115137200D01*
X131528571Y-115137200D02*
X131480952Y-115089580D01*
X131480952Y-115089580D02*
X131385714Y-114946723D01*
X131385714Y-114946723D02*
X131338095Y-114756247D01*
X131338095Y-114756247D02*
X131338095Y-114375295D01*
X131338095Y-114375295D02*
X131385714Y-114280057D01*
X131385714Y-114280057D02*
X131433333Y-114232438D01*
X131433333Y-114232438D02*
X131528571Y-114184819D01*
X131528571Y-114184819D02*
X131719047Y-114184819D01*
X131719047Y-114184819D02*
X131814285Y-114232438D01*
X131814285Y-114232438D02*
X131861904Y-114280057D01*
X131861904Y-114280057D02*
X131909523Y-114375295D01*
X131909523Y-114375295D02*
X131909523Y-114613390D01*
X131909523Y-114613390D02*
X131861904Y-114708628D01*
X131861904Y-114708628D02*
X131814285Y-114756247D01*
X131814285Y-114756247D02*
X131719047Y-114803866D01*
X131719047Y-114803866D02*
X131528571Y-114803866D01*
X131528571Y-114803866D02*
X131433333Y-114756247D01*
X131433333Y-114756247D02*
X131385714Y-114708628D01*
X131385714Y-114708628D02*
X131338095Y-114613390D01*
X152455357Y-134484819D02*
X152788690Y-134008628D01*
X153026785Y-134484819D02*
X153026785Y-133484819D01*
X153026785Y-133484819D02*
X152645833Y-133484819D01*
X152645833Y-133484819D02*
X152550595Y-133532438D01*
X152550595Y-133532438D02*
X152502976Y-133580057D01*
X152502976Y-133580057D02*
X152455357Y-133675295D01*
X152455357Y-133675295D02*
X152455357Y-133818152D01*
X152455357Y-133818152D02*
X152502976Y-133913390D01*
X152502976Y-133913390D02*
X152550595Y-133961009D01*
X152550595Y-133961009D02*
X152645833Y-134008628D01*
X152645833Y-134008628D02*
X153026785Y-134008628D01*
X151598214Y-133484819D02*
X151788690Y-133484819D01*
X151788690Y-133484819D02*
X151883928Y-133532438D01*
X151883928Y-133532438D02*
X151931547Y-133580057D01*
X151931547Y-133580057D02*
X152026785Y-133722914D01*
X152026785Y-133722914D02*
X152074404Y-133913390D01*
X152074404Y-133913390D02*
X152074404Y-134294342D01*
X152074404Y-134294342D02*
X152026785Y-134389580D01*
X152026785Y-134389580D02*
X151979166Y-134437200D01*
X151979166Y-134437200D02*
X151883928Y-134484819D01*
X151883928Y-134484819D02*
X151693452Y-134484819D01*
X151693452Y-134484819D02*
X151598214Y-134437200D01*
X151598214Y-134437200D02*
X151550595Y-134389580D01*
X151550595Y-134389580D02*
X151502976Y-134294342D01*
X151502976Y-134294342D02*
X151502976Y-134056247D01*
X151502976Y-134056247D02*
X151550595Y-133961009D01*
X151550595Y-133961009D02*
X151598214Y-133913390D01*
X151598214Y-133913390D02*
X151693452Y-133865771D01*
X151693452Y-133865771D02*
X151883928Y-133865771D01*
X151883928Y-133865771D02*
X151979166Y-133913390D01*
X151979166Y-133913390D02*
X152026785Y-133961009D01*
X152026785Y-133961009D02*
X152074404Y-134056247D01*
X150645833Y-133484819D02*
X150836309Y-133484819D01*
X150836309Y-133484819D02*
X150931547Y-133532438D01*
X150931547Y-133532438D02*
X150979166Y-133580057D01*
X150979166Y-133580057D02*
X151074404Y-133722914D01*
X151074404Y-133722914D02*
X151122023Y-133913390D01*
X151122023Y-133913390D02*
X151122023Y-134294342D01*
X151122023Y-134294342D02*
X151074404Y-134389580D01*
X151074404Y-134389580D02*
X151026785Y-134437200D01*
X151026785Y-134437200D02*
X150931547Y-134484819D01*
X150931547Y-134484819D02*
X150741071Y-134484819D01*
X150741071Y-134484819D02*
X150645833Y-134437200D01*
X150645833Y-134437200D02*
X150598214Y-134389580D01*
X150598214Y-134389580D02*
X150550595Y-134294342D01*
X150550595Y-134294342D02*
X150550595Y-134056247D01*
X150550595Y-134056247D02*
X150598214Y-133961009D01*
X150598214Y-133961009D02*
X150645833Y-133913390D01*
X150645833Y-133913390D02*
X150741071Y-133865771D01*
X150741071Y-133865771D02*
X150931547Y-133865771D01*
X150931547Y-133865771D02*
X151026785Y-133913390D01*
X151026785Y-133913390D02*
X151074404Y-133961009D01*
X151074404Y-133961009D02*
X151122023Y-134056247D01*
X94655357Y-115184819D02*
X94988690Y-114708628D01*
X95226785Y-115184819D02*
X95226785Y-114184819D01*
X95226785Y-114184819D02*
X94845833Y-114184819D01*
X94845833Y-114184819D02*
X94750595Y-114232438D01*
X94750595Y-114232438D02*
X94702976Y-114280057D01*
X94702976Y-114280057D02*
X94655357Y-114375295D01*
X94655357Y-114375295D02*
X94655357Y-114518152D01*
X94655357Y-114518152D02*
X94702976Y-114613390D01*
X94702976Y-114613390D02*
X94750595Y-114661009D01*
X94750595Y-114661009D02*
X94845833Y-114708628D01*
X94845833Y-114708628D02*
X95226785Y-114708628D01*
X93798214Y-114518152D02*
X93798214Y-115184819D01*
X94036309Y-114137200D02*
X94274404Y-114851485D01*
X94274404Y-114851485D02*
X93655357Y-114851485D01*
X93369642Y-114184819D02*
X92702976Y-114184819D01*
X92702976Y-114184819D02*
X93131547Y-115184819D01*
X132755357Y-134484819D02*
X133088690Y-134008628D01*
X133326785Y-134484819D02*
X133326785Y-133484819D01*
X133326785Y-133484819D02*
X132945833Y-133484819D01*
X132945833Y-133484819D02*
X132850595Y-133532438D01*
X132850595Y-133532438D02*
X132802976Y-133580057D01*
X132802976Y-133580057D02*
X132755357Y-133675295D01*
X132755357Y-133675295D02*
X132755357Y-133818152D01*
X132755357Y-133818152D02*
X132802976Y-133913390D01*
X132802976Y-133913390D02*
X132850595Y-133961009D01*
X132850595Y-133961009D02*
X132945833Y-134008628D01*
X132945833Y-134008628D02*
X133326785Y-134008628D01*
X131898214Y-133484819D02*
X132088690Y-133484819D01*
X132088690Y-133484819D02*
X132183928Y-133532438D01*
X132183928Y-133532438D02*
X132231547Y-133580057D01*
X132231547Y-133580057D02*
X132326785Y-133722914D01*
X132326785Y-133722914D02*
X132374404Y-133913390D01*
X132374404Y-133913390D02*
X132374404Y-134294342D01*
X132374404Y-134294342D02*
X132326785Y-134389580D01*
X132326785Y-134389580D02*
X132279166Y-134437200D01*
X132279166Y-134437200D02*
X132183928Y-134484819D01*
X132183928Y-134484819D02*
X131993452Y-134484819D01*
X131993452Y-134484819D02*
X131898214Y-134437200D01*
X131898214Y-134437200D02*
X131850595Y-134389580D01*
X131850595Y-134389580D02*
X131802976Y-134294342D01*
X131802976Y-134294342D02*
X131802976Y-134056247D01*
X131802976Y-134056247D02*
X131850595Y-133961009D01*
X131850595Y-133961009D02*
X131898214Y-133913390D01*
X131898214Y-133913390D02*
X131993452Y-133865771D01*
X131993452Y-133865771D02*
X132183928Y-133865771D01*
X132183928Y-133865771D02*
X132279166Y-133913390D01*
X132279166Y-133913390D02*
X132326785Y-133961009D01*
X132326785Y-133961009D02*
X132374404Y-134056247D01*
X131183928Y-133484819D02*
X131088690Y-133484819D01*
X131088690Y-133484819D02*
X130993452Y-133532438D01*
X130993452Y-133532438D02*
X130945833Y-133580057D01*
X130945833Y-133580057D02*
X130898214Y-133675295D01*
X130898214Y-133675295D02*
X130850595Y-133865771D01*
X130850595Y-133865771D02*
X130850595Y-134103866D01*
X130850595Y-134103866D02*
X130898214Y-134294342D01*
X130898214Y-134294342D02*
X130945833Y-134389580D01*
X130945833Y-134389580D02*
X130993452Y-134437200D01*
X130993452Y-134437200D02*
X131088690Y-134484819D01*
X131088690Y-134484819D02*
X131183928Y-134484819D01*
X131183928Y-134484819D02*
X131279166Y-134437200D01*
X131279166Y-134437200D02*
X131326785Y-134389580D01*
X131326785Y-134389580D02*
X131374404Y-134294342D01*
X131374404Y-134294342D02*
X131422023Y-134103866D01*
X131422023Y-134103866D02*
X131422023Y-133865771D01*
X131422023Y-133865771D02*
X131374404Y-133675295D01*
X131374404Y-133675295D02*
X131326785Y-133580057D01*
X131326785Y-133580057D02*
X131279166Y-133532438D01*
X131279166Y-133532438D02*
X131183928Y-133484819D01*
X94655357Y-95984819D02*
X94988690Y-95508628D01*
X95226785Y-95984819D02*
X95226785Y-94984819D01*
X95226785Y-94984819D02*
X94845833Y-94984819D01*
X94845833Y-94984819D02*
X94750595Y-95032438D01*
X94750595Y-95032438D02*
X94702976Y-95080057D01*
X94702976Y-95080057D02*
X94655357Y-95175295D01*
X94655357Y-95175295D02*
X94655357Y-95318152D01*
X94655357Y-95318152D02*
X94702976Y-95413390D01*
X94702976Y-95413390D02*
X94750595Y-95461009D01*
X94750595Y-95461009D02*
X94845833Y-95508628D01*
X94845833Y-95508628D02*
X95226785Y-95508628D01*
X94322023Y-94984819D02*
X93702976Y-94984819D01*
X93702976Y-94984819D02*
X94036309Y-95365771D01*
X94036309Y-95365771D02*
X93893452Y-95365771D01*
X93893452Y-95365771D02*
X93798214Y-95413390D01*
X93798214Y-95413390D02*
X93750595Y-95461009D01*
X93750595Y-95461009D02*
X93702976Y-95556247D01*
X93702976Y-95556247D02*
X93702976Y-95794342D01*
X93702976Y-95794342D02*
X93750595Y-95889580D01*
X93750595Y-95889580D02*
X93798214Y-95937200D01*
X93798214Y-95937200D02*
X93893452Y-95984819D01*
X93893452Y-95984819D02*
X94179166Y-95984819D01*
X94179166Y-95984819D02*
X94274404Y-95937200D01*
X94274404Y-95937200D02*
X94322023Y-95889580D01*
X93369642Y-94984819D02*
X92750595Y-94984819D01*
X92750595Y-94984819D02*
X93083928Y-95365771D01*
X93083928Y-95365771D02*
X92941071Y-95365771D01*
X92941071Y-95365771D02*
X92845833Y-95413390D01*
X92845833Y-95413390D02*
X92798214Y-95461009D01*
X92798214Y-95461009D02*
X92750595Y-95556247D01*
X92750595Y-95556247D02*
X92750595Y-95794342D01*
X92750595Y-95794342D02*
X92798214Y-95889580D01*
X92798214Y-95889580D02*
X92845833Y-95937200D01*
X92845833Y-95937200D02*
X92941071Y-95984819D01*
X92941071Y-95984819D02*
X93226785Y-95984819D01*
X93226785Y-95984819D02*
X93322023Y-95937200D01*
X93322023Y-95937200D02*
X93369642Y-95889580D01*
D12*
X94254724Y-74277500D02*
X93745276Y-74277500D01*
X94254724Y-75322500D02*
X93745276Y-75322500D01*
X113554724Y-74277500D02*
X113045276Y-74277500D01*
X113554724Y-75322500D02*
X113045276Y-75322500D01*
X152067224Y-74277500D02*
X151557776Y-74277500D01*
X152067224Y-75322500D02*
X151557776Y-75322500D01*
X113554724Y-132077500D02*
X113045276Y-132077500D01*
X113554724Y-133122500D02*
X113045276Y-133122500D01*
X132754724Y-74277500D02*
X132245276Y-74277500D01*
X132754724Y-75322500D02*
X132245276Y-75322500D01*
D13*
X84173257Y-131891842D02*
X84343871Y-131947768D01*
X84465849Y-132012387D01*
X84659375Y-132156243D01*
X84812111Y-132326785D01*
X84924043Y-132517742D01*
X84995156Y-132722844D01*
X85025435Y-132935821D01*
X85014866Y-133150400D01*
X84963434Y-133360313D01*
X84871124Y-133559287D01*
X84737920Y-133741052D01*
X84563810Y-133899338D01*
X84348777Y-134027873D01*
X84273026Y-134062333D01*
X84196247Y-134090250D01*
X84119491Y-134105914D01*
X84024552Y-134112780D01*
X83893226Y-134114302D01*
X83783920Y-134113382D01*
X83683465Y-134107839D01*
X83605090Y-134094249D01*
X83530795Y-134069217D01*
X83442581Y-134029352D01*
X83419073Y-134017820D01*
X83203817Y-133881515D01*
X83026710Y-133710081D01*
X82891909Y-133508385D01*
X82803570Y-133281291D01*
X82778918Y-133164767D01*
X82767383Y-132928375D01*
X82804708Y-132699414D01*
X82887067Y-132484598D01*
X83010633Y-132290642D01*
X83171578Y-132124258D01*
X83366076Y-131992162D01*
X83590301Y-131901067D01*
X83773795Y-131867738D01*
X83976289Y-131864735D01*
X84173257Y-131891842D01*
G36*
X84173257Y-131891842D02*
G01*
X84343871Y-131947768D01*
X84465849Y-132012387D01*
X84659375Y-132156243D01*
X84812111Y-132326785D01*
X84924043Y-132517742D01*
X84995156Y-132722844D01*
X85025435Y-132935821D01*
X85014866Y-133150400D01*
X84963434Y-133360313D01*
X84871124Y-133559287D01*
X84737920Y-133741052D01*
X84563810Y-133899338D01*
X84348777Y-134027873D01*
X84273026Y-134062333D01*
X84196247Y-134090250D01*
X84119491Y-134105914D01*
X84024552Y-134112780D01*
X83893226Y-134114302D01*
X83783920Y-134113382D01*
X83683465Y-134107839D01*
X83605090Y-134094249D01*
X83530795Y-134069217D01*
X83442581Y-134029352D01*
X83419073Y-134017820D01*
X83203817Y-133881515D01*
X83026710Y-133710081D01*
X82891909Y-133508385D01*
X82803570Y-133281291D01*
X82778918Y-133164767D01*
X82767383Y-132928375D01*
X82804708Y-132699414D01*
X82887067Y-132484598D01*
X83010633Y-132290642D01*
X83171578Y-132124258D01*
X83366076Y-131992162D01*
X83590301Y-131901067D01*
X83773795Y-131867738D01*
X83976289Y-131864735D01*
X84173257Y-131891842D01*
G37*
X75726104Y-124646967D02*
X75822735Y-124705814D01*
X75996200Y-124811538D01*
X76151279Y-124906167D01*
X76282315Y-124986243D01*
X76383652Y-125048308D01*
X76449633Y-125088903D01*
X76474602Y-125104570D01*
X76473856Y-125108928D01*
X76449421Y-125144030D01*
X76398709Y-125205699D01*
X76329588Y-125284191D01*
X76210163Y-125423980D01*
X76033564Y-125673534D01*
X75910453Y-125915660D01*
X75848974Y-126090627D01*
X75786143Y-126386571D01*
X75775006Y-126677344D01*
X75814805Y-126958730D01*
X75904780Y-127226512D01*
X76044172Y-127476475D01*
X76232225Y-127704400D01*
X76370732Y-127831226D01*
X76626922Y-128009897D01*
X76924217Y-128156505D01*
X77264140Y-128271749D01*
X77648214Y-128356333D01*
X77672057Y-128360170D01*
X77826598Y-128377899D01*
X78018611Y-128391097D01*
X78234978Y-128399657D01*
X78462578Y-128403473D01*
X78688291Y-128402437D01*
X78898996Y-128396444D01*
X79081574Y-128385386D01*
X79222903Y-128369155D01*
X79543045Y-128306946D01*
X79917013Y-128202271D01*
X80244416Y-128070625D01*
X80525001Y-127912184D01*
X80758515Y-127727124D01*
X80944704Y-127515622D01*
X81083315Y-127277853D01*
X81174095Y-127013993D01*
X81185362Y-126955452D01*
X81200074Y-126808744D01*
X81204876Y-126637293D01*
X81200033Y-126460307D01*
X81185807Y-126296993D01*
X81162463Y-126166560D01*
X81088132Y-125949274D01*
X80952432Y-125697118D01*
X80773853Y-125472594D01*
X80736235Y-125432966D01*
X80669680Y-125361161D01*
X80624883Y-125310412D01*
X80609982Y-125289795D01*
X80617109Y-125284719D01*
X80662110Y-125253475D01*
X80743822Y-125197031D01*
X80856832Y-125119117D01*
X80995730Y-125023461D01*
X81155105Y-124913794D01*
X81329547Y-124793845D01*
X82043286Y-124303226D01*
X82076124Y-124412827D01*
X82079845Y-124424264D01*
X82109401Y-124498713D01*
X82157061Y-124606049D01*
X82217090Y-124733676D01*
X82283757Y-124868999D01*
X82313233Y-124927966D01*
X82465407Y-125255404D01*
X82583083Y-125557200D01*
X82669271Y-125844961D01*
X82726981Y-126130294D01*
X82759223Y-126424807D01*
X82769008Y-126740108D01*
X82764040Y-126959535D01*
X82730347Y-127326552D01*
X82662397Y-127667511D01*
X82557330Y-127995096D01*
X82412286Y-128321987D01*
X82227096Y-128645574D01*
X81974634Y-128992846D01*
X81682740Y-129314885D01*
X81358640Y-129604598D01*
X81009560Y-129854894D01*
X80642725Y-130058683D01*
X80603482Y-130077181D01*
X80224696Y-130232097D01*
X79831095Y-130349811D01*
X79415158Y-130431844D01*
X78969366Y-130479717D01*
X78486201Y-130494951D01*
X77986733Y-130476428D01*
X77494854Y-130417636D01*
X77034400Y-130317662D01*
X76602105Y-130175611D01*
X76194702Y-129990589D01*
X75808925Y-129761701D01*
X75514195Y-129546700D01*
X75182576Y-129249828D01*
X74898534Y-128926252D01*
X74662161Y-128576112D01*
X74473551Y-128199551D01*
X74332795Y-127796709D01*
X74239988Y-127367730D01*
X74239265Y-127362834D01*
X74232016Y-127280223D01*
X74226640Y-127155557D01*
X74223386Y-127000367D01*
X74222506Y-126826177D01*
X74224251Y-126644517D01*
X74226808Y-126517199D01*
X74232730Y-126328297D01*
X74241209Y-126176927D01*
X74253149Y-126052168D01*
X74269454Y-125943105D01*
X74291031Y-125838818D01*
X74318914Y-125721487D01*
X74350667Y-125599074D01*
X74383977Y-125488364D01*
X74422747Y-125379309D01*
X74470878Y-125261861D01*
X74532271Y-125125973D01*
X74610828Y-124961596D01*
X74710451Y-124758683D01*
X74987799Y-124197474D01*
X75726104Y-124646967D01*
G36*
X75726104Y-124646967D02*
G01*
X75822735Y-124705814D01*
X75996200Y-124811538D01*
X76151279Y-124906167D01*
X76282315Y-124986243D01*
X76383652Y-125048308D01*
X76449633Y-125088903D01*
X76474602Y-125104570D01*
X76473856Y-125108928D01*
X76449421Y-125144030D01*
X76398709Y-125205699D01*
X76329588Y-125284191D01*
X76210163Y-125423980D01*
X76033564Y-125673534D01*
X75910453Y-125915660D01*
X75848974Y-126090627D01*
X75786143Y-126386571D01*
X75775006Y-126677344D01*
X75814805Y-126958730D01*
X75904780Y-127226512D01*
X76044172Y-127476475D01*
X76232225Y-127704400D01*
X76370732Y-127831226D01*
X76626922Y-128009897D01*
X76924217Y-128156505D01*
X77264140Y-128271749D01*
X77648214Y-128356333D01*
X77672057Y-128360170D01*
X77826598Y-128377899D01*
X78018611Y-128391097D01*
X78234978Y-128399657D01*
X78462578Y-128403473D01*
X78688291Y-128402437D01*
X78898996Y-128396444D01*
X79081574Y-128385386D01*
X79222903Y-128369155D01*
X79543045Y-128306946D01*
X79917013Y-128202271D01*
X80244416Y-128070625D01*
X80525001Y-127912184D01*
X80758515Y-127727124D01*
X80944704Y-127515622D01*
X81083315Y-127277853D01*
X81174095Y-127013993D01*
X81185362Y-126955452D01*
X81200074Y-126808744D01*
X81204876Y-126637293D01*
X81200033Y-126460307D01*
X81185807Y-126296993D01*
X81162463Y-126166560D01*
X81088132Y-125949274D01*
X80952432Y-125697118D01*
X80773853Y-125472594D01*
X80736235Y-125432966D01*
X80669680Y-125361161D01*
X80624883Y-125310412D01*
X80609982Y-125289795D01*
X80617109Y-125284719D01*
X80662110Y-125253475D01*
X80743822Y-125197031D01*
X80856832Y-125119117D01*
X80995730Y-125023461D01*
X81155105Y-124913794D01*
X81329547Y-124793845D01*
X82043286Y-124303226D01*
X82076124Y-124412827D01*
X82079845Y-124424264D01*
X82109401Y-124498713D01*
X82157061Y-124606049D01*
X82217090Y-124733676D01*
X82283757Y-124868999D01*
X82313233Y-124927966D01*
X82465407Y-125255404D01*
X82583083Y-125557200D01*
X82669271Y-125844961D01*
X82726981Y-126130294D01*
X82759223Y-126424807D01*
X82769008Y-126740108D01*
X82764040Y-126959535D01*
X82730347Y-127326552D01*
X82662397Y-127667511D01*
X82557330Y-127995096D01*
X82412286Y-128321987D01*
X82227096Y-128645574D01*
X81974634Y-128992846D01*
X81682740Y-129314885D01*
X81358640Y-129604598D01*
X81009560Y-129854894D01*
X80642725Y-130058683D01*
X80603482Y-130077181D01*
X80224696Y-130232097D01*
X79831095Y-130349811D01*
X79415158Y-130431844D01*
X78969366Y-130479717D01*
X78486201Y-130494951D01*
X77986733Y-130476428D01*
X77494854Y-130417636D01*
X77034400Y-130317662D01*
X76602105Y-130175611D01*
X76194702Y-129990589D01*
X75808925Y-129761701D01*
X75514195Y-129546700D01*
X75182576Y-129249828D01*
X74898534Y-128926252D01*
X74662161Y-128576112D01*
X74473551Y-128199551D01*
X74332795Y-127796709D01*
X74239988Y-127367730D01*
X74239265Y-127362834D01*
X74232016Y-127280223D01*
X74226640Y-127155557D01*
X74223386Y-127000367D01*
X74222506Y-126826177D01*
X74224251Y-126644517D01*
X74226808Y-126517199D01*
X74232730Y-126328297D01*
X74241209Y-126176927D01*
X74253149Y-126052168D01*
X74269454Y-125943105D01*
X74291031Y-125838818D01*
X74318914Y-125721487D01*
X74350667Y-125599074D01*
X74383977Y-125488364D01*
X74422747Y-125379309D01*
X74470878Y-125261861D01*
X74532271Y-125125973D01*
X74610828Y-124961596D01*
X74710451Y-124758683D01*
X74987799Y-124197474D01*
X75726104Y-124646967D01*
G37*
X74443280Y-112102381D02*
X74450582Y-112106695D01*
X74484859Y-112127742D01*
X74515396Y-112146835D01*
X74544844Y-112164077D01*
X74575857Y-112179572D01*
X74611088Y-112193421D01*
X74653189Y-112205728D01*
X74704813Y-112216595D01*
X74768614Y-112226125D01*
X74847244Y-112234420D01*
X74943356Y-112241584D01*
X75059602Y-112247720D01*
X75198637Y-112252929D01*
X75363113Y-112257315D01*
X75555682Y-112260980D01*
X75778998Y-112264028D01*
X76035714Y-112266560D01*
X76328481Y-112268680D01*
X76659955Y-112270491D01*
X77032786Y-112272094D01*
X77449629Y-112273594D01*
X77913136Y-112275092D01*
X78425959Y-112276692D01*
X78990753Y-112278495D01*
X83155807Y-112292151D01*
X83162948Y-113377796D01*
X83163429Y-113456746D01*
X83164382Y-113689033D01*
X83164576Y-113901494D01*
X83164049Y-114088331D01*
X83162842Y-114243743D01*
X83160994Y-114361931D01*
X83158545Y-114437097D01*
X83155534Y-114463441D01*
X83145992Y-114460071D01*
X83100755Y-114434929D01*
X83034969Y-114393287D01*
X83028679Y-114389133D01*
X82977885Y-114356846D01*
X82928464Y-114329775D01*
X82875326Y-114307461D01*
X82813380Y-114289445D01*
X82737535Y-114275267D01*
X82642701Y-114264469D01*
X82523788Y-114256591D01*
X82375704Y-114251175D01*
X82193359Y-114247762D01*
X81971663Y-114245892D01*
X81705524Y-114245106D01*
X81389853Y-114244947D01*
X81143393Y-114245233D01*
X80901426Y-114246109D01*
X80682027Y-114247512D01*
X80490538Y-114249379D01*
X80332302Y-114251645D01*
X80212661Y-114254247D01*
X80136959Y-114257121D01*
X80110538Y-114260204D01*
X80114639Y-114270147D01*
X80143516Y-114313856D01*
X80190942Y-114376279D01*
X80254720Y-114466776D01*
X80348693Y-114636805D01*
X80432518Y-114831143D01*
X80497705Y-115031648D01*
X80530945Y-115200108D01*
X80552134Y-115409916D01*
X80559475Y-115636986D01*
X80552959Y-115863795D01*
X80532578Y-116072822D01*
X80498322Y-116246541D01*
X80440618Y-116423426D01*
X80300732Y-116718513D01*
X80114763Y-116991741D01*
X79886993Y-117238070D01*
X79621704Y-117452460D01*
X79323178Y-117629869D01*
X79231637Y-117673913D01*
X78922863Y-117797339D01*
X78587743Y-117893836D01*
X78220372Y-117964622D01*
X77814842Y-118010918D01*
X77365244Y-118033942D01*
X77279338Y-118035011D01*
X77072955Y-118037577D01*
X76820209Y-118031782D01*
X76597310Y-118015211D01*
X76392133Y-117986582D01*
X76192555Y-117944611D01*
X75986452Y-117888016D01*
X75740096Y-117802194D01*
X75407528Y-117644570D01*
X75109649Y-117451222D01*
X74849274Y-117225108D01*
X74629220Y-116969186D01*
X74452300Y-116686413D01*
X74321331Y-116379747D01*
X74239127Y-116052147D01*
X74238468Y-116048205D01*
X74215431Y-115808789D01*
X74218506Y-115545734D01*
X74245796Y-115277793D01*
X74262205Y-115193758D01*
X75717085Y-115193758D01*
X75717923Y-115288573D01*
X75727393Y-115359153D01*
X75748091Y-115422460D01*
X75782615Y-115495454D01*
X75875094Y-115635734D01*
X76005914Y-115757262D01*
X76174498Y-115854542D01*
X76383490Y-115928497D01*
X76635533Y-115980054D01*
X76933268Y-116010138D01*
X77279338Y-116019675D01*
X77358016Y-116019211D01*
X77722559Y-116005500D01*
X78039761Y-115972207D01*
X78312969Y-115918523D01*
X78545529Y-115843636D01*
X78740789Y-115746738D01*
X78902094Y-115627019D01*
X78951324Y-115577351D01*
X79053887Y-115423423D01*
X79116299Y-115242727D01*
X79138204Y-115043091D01*
X79119249Y-114832342D01*
X79059077Y-114618308D01*
X78957335Y-114408818D01*
X78867294Y-114258603D01*
X76028195Y-114258603D01*
X75938624Y-114395162D01*
X75906357Y-114447677D01*
X75841898Y-114567925D01*
X75790567Y-114681936D01*
X75773187Y-114731866D01*
X75738490Y-114890739D01*
X75720772Y-115091613D01*
X75717085Y-115193758D01*
X74262205Y-115193758D01*
X74295405Y-115023726D01*
X74365439Y-114802287D01*
X74408057Y-114707769D01*
X74472833Y-114584669D01*
X74546920Y-114458175D01*
X74622163Y-114341487D01*
X74690409Y-114247803D01*
X74743502Y-114190323D01*
X74758078Y-114177128D01*
X74763173Y-114161397D01*
X74737878Y-114150883D01*
X74674127Y-114143135D01*
X74563858Y-114135699D01*
X74334086Y-114122044D01*
X74326932Y-113076024D01*
X74319779Y-112030004D01*
X74443280Y-112102381D01*
G36*
X74443280Y-112102381D02*
G01*
X74450582Y-112106695D01*
X74484859Y-112127742D01*
X74515396Y-112146835D01*
X74544844Y-112164077D01*
X74575857Y-112179572D01*
X74611088Y-112193421D01*
X74653189Y-112205728D01*
X74704813Y-112216595D01*
X74768614Y-112226125D01*
X74847244Y-112234420D01*
X74943356Y-112241584D01*
X75059602Y-112247720D01*
X75198637Y-112252929D01*
X75363113Y-112257315D01*
X75555682Y-112260980D01*
X75778998Y-112264028D01*
X76035714Y-112266560D01*
X76328481Y-112268680D01*
X76659955Y-112270491D01*
X77032786Y-112272094D01*
X77449629Y-112273594D01*
X77913136Y-112275092D01*
X78425959Y-112276692D01*
X78990753Y-112278495D01*
X83155807Y-112292151D01*
X83162948Y-113377796D01*
X83163429Y-113456746D01*
X83164382Y-113689033D01*
X83164576Y-113901494D01*
X83164049Y-114088331D01*
X83162842Y-114243743D01*
X83160994Y-114361931D01*
X83158545Y-114437097D01*
X83155534Y-114463441D01*
X83145992Y-114460071D01*
X83100755Y-114434929D01*
X83034969Y-114393287D01*
X83028679Y-114389133D01*
X82977885Y-114356846D01*
X82928464Y-114329775D01*
X82875326Y-114307461D01*
X82813380Y-114289445D01*
X82737535Y-114275267D01*
X82642701Y-114264469D01*
X82523788Y-114256591D01*
X82375704Y-114251175D01*
X82193359Y-114247762D01*
X81971663Y-114245892D01*
X81705524Y-114245106D01*
X81389853Y-114244947D01*
X81143393Y-114245233D01*
X80901426Y-114246109D01*
X80682027Y-114247512D01*
X80490538Y-114249379D01*
X80332302Y-114251645D01*
X80212661Y-114254247D01*
X80136959Y-114257121D01*
X80110538Y-114260204D01*
X80114639Y-114270147D01*
X80143516Y-114313856D01*
X80190942Y-114376279D01*
X80254720Y-114466776D01*
X80348693Y-114636805D01*
X80432518Y-114831143D01*
X80497705Y-115031648D01*
X80530945Y-115200108D01*
X80552134Y-115409916D01*
X80559475Y-115636986D01*
X80552959Y-115863795D01*
X80532578Y-116072822D01*
X80498322Y-116246541D01*
X80440618Y-116423426D01*
X80300732Y-116718513D01*
X80114763Y-116991741D01*
X79886993Y-117238070D01*
X79621704Y-117452460D01*
X79323178Y-117629869D01*
X79231637Y-117673913D01*
X78922863Y-117797339D01*
X78587743Y-117893836D01*
X78220372Y-117964622D01*
X77814842Y-118010918D01*
X77365244Y-118033942D01*
X77279338Y-118035011D01*
X77072955Y-118037577D01*
X76820209Y-118031782D01*
X76597310Y-118015211D01*
X76392133Y-117986582D01*
X76192555Y-117944611D01*
X75986452Y-117888016D01*
X75740096Y-117802194D01*
X75407528Y-117644570D01*
X75109649Y-117451222D01*
X74849274Y-117225108D01*
X74629220Y-116969186D01*
X74452300Y-116686413D01*
X74321331Y-116379747D01*
X74239127Y-116052147D01*
X74238468Y-116048205D01*
X74215431Y-115808789D01*
X74218506Y-115545734D01*
X74245796Y-115277793D01*
X74262205Y-115193758D01*
X75717085Y-115193758D01*
X75717923Y-115288573D01*
X75727393Y-115359153D01*
X75748091Y-115422460D01*
X75782615Y-115495454D01*
X75875094Y-115635734D01*
X76005914Y-115757262D01*
X76174498Y-115854542D01*
X76383490Y-115928497D01*
X76635533Y-115980054D01*
X76933268Y-116010138D01*
X77279338Y-116019675D01*
X77358016Y-116019211D01*
X77722559Y-116005500D01*
X78039761Y-115972207D01*
X78312969Y-115918523D01*
X78545529Y-115843636D01*
X78740789Y-115746738D01*
X78902094Y-115627019D01*
X78951324Y-115577351D01*
X79053887Y-115423423D01*
X79116299Y-115242727D01*
X79138204Y-115043091D01*
X79119249Y-114832342D01*
X79059077Y-114618308D01*
X78957335Y-114408818D01*
X78867294Y-114258603D01*
X76028195Y-114258603D01*
X75938624Y-114395162D01*
X75906357Y-114447677D01*
X75841898Y-114567925D01*
X75790567Y-114681936D01*
X75773187Y-114731866D01*
X75738490Y-114890739D01*
X75720772Y-115091613D01*
X75717085Y-115193758D01*
X74262205Y-115193758D01*
X74295405Y-115023726D01*
X74365439Y-114802287D01*
X74408057Y-114707769D01*
X74472833Y-114584669D01*
X74546920Y-114458175D01*
X74622163Y-114341487D01*
X74690409Y-114247803D01*
X74743502Y-114190323D01*
X74758078Y-114177128D01*
X74763173Y-114161397D01*
X74737878Y-114150883D01*
X74674127Y-114143135D01*
X74563858Y-114135699D01*
X74334086Y-114122044D01*
X74326932Y-113076024D01*
X74319779Y-112030004D01*
X74443280Y-112102381D01*
G37*
X74335646Y-118533517D02*
X74372552Y-118550734D01*
X74441889Y-118586825D01*
X74531157Y-118635323D01*
X74716452Y-118737742D01*
X76641936Y-118753549D01*
X76922382Y-118755898D01*
X77280053Y-118759185D01*
X77590563Y-118762635D01*
X77858302Y-118766527D01*
X78087664Y-118771139D01*
X78283038Y-118776752D01*
X78448817Y-118783642D01*
X78589391Y-118792089D01*
X78709153Y-118802373D01*
X78812492Y-118814770D01*
X78903801Y-118829561D01*
X78987471Y-118847023D01*
X79067893Y-118867436D01*
X79149459Y-118891079D01*
X79236559Y-118918229D01*
X79509616Y-119025189D01*
X79761978Y-119171666D01*
X79978038Y-119354084D01*
X80158928Y-119574112D01*
X80305778Y-119833420D01*
X80419717Y-120133679D01*
X80501878Y-120476558D01*
X80553389Y-120863728D01*
X80563632Y-120999049D01*
X80571122Y-121226951D01*
X80564377Y-121452838D01*
X80542262Y-121687285D01*
X80503638Y-121940868D01*
X80447369Y-122224162D01*
X80372317Y-122547742D01*
X80354158Y-122622537D01*
X80309472Y-122810367D01*
X80268327Y-122988392D01*
X80233153Y-123145817D01*
X80206381Y-123271846D01*
X80190441Y-123355681D01*
X80158672Y-123549103D01*
X79499605Y-123277176D01*
X79335051Y-123209158D01*
X79173810Y-123142243D01*
X79036145Y-123084830D01*
X78928790Y-123039738D01*
X78858482Y-123009785D01*
X78831957Y-122997789D01*
X78831577Y-122995903D01*
X78843420Y-122961142D01*
X78873769Y-122892789D01*
X78917222Y-122803176D01*
X79001845Y-122616918D01*
X79094371Y-122360615D01*
X79165228Y-122098290D01*
X79212637Y-121840200D01*
X79234817Y-121596606D01*
X79229990Y-121377765D01*
X79196376Y-121193936D01*
X79143040Y-121065636D01*
X79033738Y-120919927D01*
X78885457Y-120807759D01*
X78702757Y-120732343D01*
X78490202Y-120696891D01*
X78294301Y-120684406D01*
X78292517Y-121336128D01*
X78290674Y-121555913D01*
X78284129Y-121799011D01*
X78271776Y-122006683D01*
X78252415Y-122189671D01*
X78224845Y-122358718D01*
X78187864Y-122524566D01*
X78140273Y-122697957D01*
X78049686Y-122957393D01*
X77900508Y-123262543D01*
X77717779Y-123530352D01*
X77504068Y-123758177D01*
X77261946Y-123943377D01*
X76993983Y-124083310D01*
X76702748Y-124175336D01*
X76624311Y-124189748D01*
X76430166Y-124208224D01*
X76245580Y-124210550D01*
X76213536Y-124210953D01*
X75993322Y-124198687D01*
X75788424Y-124172177D01*
X75617742Y-124132175D01*
X75442136Y-124068347D01*
X75152739Y-123920394D01*
X74898124Y-123731279D01*
X74680026Y-123502961D01*
X74500181Y-123237397D01*
X74360324Y-122936546D01*
X74262189Y-122602366D01*
X74240055Y-122466096D01*
X74224673Y-122271368D01*
X74221213Y-122059296D01*
X74229398Y-121847603D01*
X74248949Y-121654009D01*
X74274350Y-121523202D01*
X75585407Y-121523202D01*
X75587691Y-121710887D01*
X75618706Y-121889115D01*
X75682779Y-122037880D01*
X75782797Y-122166589D01*
X75819792Y-122202796D01*
X75945958Y-122297065D01*
X76081947Y-122348070D01*
X76245580Y-122363388D01*
X76332028Y-122359238D01*
X76509990Y-122318199D01*
X76662738Y-122231986D01*
X76791990Y-122099027D01*
X76899465Y-121917754D01*
X76986882Y-121686598D01*
X77009823Y-121593409D01*
X77025531Y-121480593D01*
X77034254Y-121338614D01*
X77037187Y-121154839D01*
X77037185Y-121124986D01*
X77035507Y-120987500D01*
X77031450Y-120869400D01*
X77025547Y-120782430D01*
X77018330Y-120738334D01*
X77015987Y-120733260D01*
X77001274Y-120716854D01*
X76971708Y-120705235D01*
X76919334Y-120697598D01*
X76836201Y-120693140D01*
X76714356Y-120691054D01*
X76545845Y-120690538D01*
X76401308Y-120691300D01*
X76249440Y-120694991D01*
X76139667Y-120702222D01*
X76064843Y-120713519D01*
X76017819Y-120729409D01*
X75984240Y-120749849D01*
X75892705Y-120826825D01*
X75797411Y-120929963D01*
X75712504Y-121043005D01*
X75652131Y-121149694D01*
X75629979Y-121208888D01*
X75600486Y-121345186D01*
X75585407Y-121523202D01*
X74274350Y-121523202D01*
X74279586Y-121496237D01*
X74303707Y-121416957D01*
X74374294Y-121236900D01*
X74463911Y-121053867D01*
X74562840Y-120886743D01*
X74661362Y-120754411D01*
X74662784Y-120752785D01*
X74724269Y-120680269D01*
X74768050Y-120624477D01*
X74784731Y-120597368D01*
X74780749Y-120594404D01*
X74737729Y-120587698D01*
X74657493Y-120583037D01*
X74552581Y-120581291D01*
X74320430Y-120581291D01*
X74320430Y-119557097D01*
X74320435Y-119529833D01*
X74320835Y-119301168D01*
X74321830Y-119091300D01*
X74323347Y-118906200D01*
X74325311Y-118751839D01*
X74327649Y-118634189D01*
X74330285Y-118559220D01*
X74333146Y-118532904D01*
X74335646Y-118533517D01*
G36*
X74335646Y-118533517D02*
G01*
X74372552Y-118550734D01*
X74441889Y-118586825D01*
X74531157Y-118635323D01*
X74716452Y-118737742D01*
X76641936Y-118753549D01*
X76922382Y-118755898D01*
X77280053Y-118759185D01*
X77590563Y-118762635D01*
X77858302Y-118766527D01*
X78087664Y-118771139D01*
X78283038Y-118776752D01*
X78448817Y-118783642D01*
X78589391Y-118792089D01*
X78709153Y-118802373D01*
X78812492Y-118814770D01*
X78903801Y-118829561D01*
X78987471Y-118847023D01*
X79067893Y-118867436D01*
X79149459Y-118891079D01*
X79236559Y-118918229D01*
X79509616Y-119025189D01*
X79761978Y-119171666D01*
X79978038Y-119354084D01*
X80158928Y-119574112D01*
X80305778Y-119833420D01*
X80419717Y-120133679D01*
X80501878Y-120476558D01*
X80553389Y-120863728D01*
X80563632Y-120999049D01*
X80571122Y-121226951D01*
X80564377Y-121452838D01*
X80542262Y-121687285D01*
X80503638Y-121940868D01*
X80447369Y-122224162D01*
X80372317Y-122547742D01*
X80354158Y-122622537D01*
X80309472Y-122810367D01*
X80268327Y-122988392D01*
X80233153Y-123145817D01*
X80206381Y-123271846D01*
X80190441Y-123355681D01*
X80158672Y-123549103D01*
X79499605Y-123277176D01*
X79335051Y-123209158D01*
X79173810Y-123142243D01*
X79036145Y-123084830D01*
X78928790Y-123039738D01*
X78858482Y-123009785D01*
X78831957Y-122997789D01*
X78831577Y-122995903D01*
X78843420Y-122961142D01*
X78873769Y-122892789D01*
X78917222Y-122803176D01*
X79001845Y-122616918D01*
X79094371Y-122360615D01*
X79165228Y-122098290D01*
X79212637Y-121840200D01*
X79234817Y-121596606D01*
X79229990Y-121377765D01*
X79196376Y-121193936D01*
X79143040Y-121065636D01*
X79033738Y-120919927D01*
X78885457Y-120807759D01*
X78702757Y-120732343D01*
X78490202Y-120696891D01*
X78294301Y-120684406D01*
X78292517Y-121336128D01*
X78290674Y-121555913D01*
X78284129Y-121799011D01*
X78271776Y-122006683D01*
X78252415Y-122189671D01*
X78224845Y-122358718D01*
X78187864Y-122524566D01*
X78140273Y-122697957D01*
X78049686Y-122957393D01*
X77900508Y-123262543D01*
X77717779Y-123530352D01*
X77504068Y-123758177D01*
X77261946Y-123943377D01*
X76993983Y-124083310D01*
X76702748Y-124175336D01*
X76624311Y-124189748D01*
X76430166Y-124208224D01*
X76245580Y-124210550D01*
X76213536Y-124210953D01*
X75993322Y-124198687D01*
X75788424Y-124172177D01*
X75617742Y-124132175D01*
X75442136Y-124068347D01*
X75152739Y-123920394D01*
X74898124Y-123731279D01*
X74680026Y-123502961D01*
X74500181Y-123237397D01*
X74360324Y-122936546D01*
X74262189Y-122602366D01*
X74240055Y-122466096D01*
X74224673Y-122271368D01*
X74221213Y-122059296D01*
X74229398Y-121847603D01*
X74248949Y-121654009D01*
X74274350Y-121523202D01*
X75585407Y-121523202D01*
X75587691Y-121710887D01*
X75618706Y-121889115D01*
X75682779Y-122037880D01*
X75782797Y-122166589D01*
X75819792Y-122202796D01*
X75945958Y-122297065D01*
X76081947Y-122348070D01*
X76245580Y-122363388D01*
X76332028Y-122359238D01*
X76509990Y-122318199D01*
X76662738Y-122231986D01*
X76791990Y-122099027D01*
X76899465Y-121917754D01*
X76986882Y-121686598D01*
X77009823Y-121593409D01*
X77025531Y-121480593D01*
X77034254Y-121338614D01*
X77037187Y-121154839D01*
X77037185Y-121124986D01*
X77035507Y-120987500D01*
X77031450Y-120869400D01*
X77025547Y-120782430D01*
X77018330Y-120738334D01*
X77015987Y-120733260D01*
X77001274Y-120716854D01*
X76971708Y-120705235D01*
X76919334Y-120697598D01*
X76836201Y-120693140D01*
X76714356Y-120691054D01*
X76545845Y-120690538D01*
X76401308Y-120691300D01*
X76249440Y-120694991D01*
X76139667Y-120702222D01*
X76064843Y-120713519D01*
X76017819Y-120729409D01*
X75984240Y-120749849D01*
X75892705Y-120826825D01*
X75797411Y-120929963D01*
X75712504Y-121043005D01*
X75652131Y-121149694D01*
X75629979Y-121208888D01*
X75600486Y-121345186D01*
X75585407Y-121523202D01*
X74274350Y-121523202D01*
X74279586Y-121496237D01*
X74303707Y-121416957D01*
X74374294Y-121236900D01*
X74463911Y-121053867D01*
X74562840Y-120886743D01*
X74661362Y-120754411D01*
X74662784Y-120752785D01*
X74724269Y-120680269D01*
X74768050Y-120624477D01*
X74784731Y-120597368D01*
X74780749Y-120594404D01*
X74737729Y-120587698D01*
X74657493Y-120583037D01*
X74552581Y-120581291D01*
X74320430Y-120581291D01*
X74320430Y-119557097D01*
X74320435Y-119529833D01*
X74320835Y-119301168D01*
X74321830Y-119091300D01*
X74323347Y-118906200D01*
X74325311Y-118751839D01*
X74327649Y-118634189D01*
X74330285Y-118559220D01*
X74333146Y-118532904D01*
X74335646Y-118533517D01*
G37*
X82074025Y-131072232D02*
X82390473Y-131072947D01*
X82670663Y-131074147D01*
X82916856Y-131075897D01*
X83131316Y-131078260D01*
X83316304Y-131081302D01*
X83474084Y-131085084D01*
X83606918Y-131089671D01*
X83717070Y-131095127D01*
X83806801Y-131101516D01*
X83878374Y-131108901D01*
X83934053Y-131117346D01*
X83976099Y-131126915D01*
X84006775Y-131137672D01*
X84028345Y-131149681D01*
X84043070Y-131163005D01*
X84053213Y-131177708D01*
X84061038Y-131193855D01*
X84068806Y-131211508D01*
X84078781Y-131230731D01*
X84081960Y-131236356D01*
X84112727Y-131321470D01*
X84125372Y-131414645D01*
X84125368Y-131519678D01*
X83886394Y-131521428D01*
X83858894Y-131521872D01*
X83579357Y-131555256D01*
X83316339Y-131640284D01*
X83072624Y-131775773D01*
X82850999Y-131960543D01*
X82760607Y-132059696D01*
X82610783Y-132280469D01*
X82506303Y-132521353D01*
X82447224Y-132775333D01*
X82433601Y-133035393D01*
X82465490Y-133294517D01*
X82542948Y-133545690D01*
X82666029Y-133781895D01*
X82834790Y-133996118D01*
X82894286Y-134055670D01*
X83114576Y-134231686D01*
X83353641Y-134356584D01*
X83613024Y-134431032D01*
X83894266Y-134455699D01*
X84125377Y-134455699D01*
X84125377Y-138376303D01*
X84125387Y-138621244D01*
X84125459Y-139147446D01*
X84125510Y-139622794D01*
X84125439Y-140049918D01*
X84125140Y-140431445D01*
X84124509Y-140770004D01*
X84123444Y-141068224D01*
X84121839Y-141328733D01*
X84119591Y-141554161D01*
X84116596Y-141747135D01*
X84112750Y-141910284D01*
X84107950Y-142046238D01*
X84102090Y-142157624D01*
X84095068Y-142247071D01*
X84086779Y-142317208D01*
X84077120Y-142370663D01*
X84065986Y-142410065D01*
X84053274Y-142438043D01*
X84038879Y-142457226D01*
X84022699Y-142470241D01*
X84004628Y-142479718D01*
X83984563Y-142488285D01*
X83962400Y-142498570D01*
X83962038Y-142498755D01*
X83947530Y-142503749D01*
X83923236Y-142508330D01*
X83886916Y-142512515D01*
X83836326Y-142516321D01*
X83769225Y-142519767D01*
X83683371Y-142522869D01*
X83576522Y-142525645D01*
X83446436Y-142528113D01*
X83290872Y-142530288D01*
X83107587Y-142532190D01*
X82894339Y-142533836D01*
X82648887Y-142535242D01*
X82368988Y-142536426D01*
X82052401Y-142537406D01*
X81696884Y-142538198D01*
X81300195Y-142538822D01*
X80860091Y-142539292D01*
X80374332Y-142539628D01*
X79840675Y-142539847D01*
X79256878Y-142539965D01*
X78620699Y-142540000D01*
X78495721Y-142540002D01*
X77866172Y-142540062D01*
X77288562Y-142540156D01*
X76760632Y-142540211D01*
X76280123Y-142540156D01*
X75844777Y-142539922D01*
X75452336Y-142539435D01*
X75100541Y-142538625D01*
X74787133Y-142537421D01*
X74509855Y-142535752D01*
X74347742Y-142534283D01*
X74266447Y-142533547D01*
X74054652Y-142530735D01*
X73872211Y-142527245D01*
X73716865Y-142523005D01*
X73586356Y-142517945D01*
X73478426Y-142511994D01*
X73390815Y-142505080D01*
X73321267Y-142497133D01*
X73267521Y-142488080D01*
X73227321Y-142477852D01*
X73198406Y-142466377D01*
X73178520Y-142453584D01*
X73165403Y-142439402D01*
X73156797Y-142423760D01*
X73150443Y-142406587D01*
X73144084Y-142387812D01*
X73135460Y-142367363D01*
X73131138Y-142355857D01*
X73126419Y-142334752D01*
X73122095Y-142303391D01*
X73118149Y-142259558D01*
X73114564Y-142201034D01*
X73111322Y-142125600D01*
X73108406Y-142031037D01*
X73105799Y-141915127D01*
X73103484Y-141775652D01*
X73101443Y-141610394D01*
X73099659Y-141417133D01*
X73098114Y-141193652D01*
X73096791Y-140937732D01*
X73095673Y-140647154D01*
X73094742Y-140319700D01*
X73093982Y-139953151D01*
X73093374Y-139545290D01*
X73092902Y-139093897D01*
X73092547Y-138596755D01*
X73092294Y-138051644D01*
X73092137Y-137500968D01*
X74347628Y-137500968D01*
X74518726Y-137492097D01*
X74527323Y-137491667D01*
X74595723Y-137489983D01*
X74661258Y-137493175D01*
X74727520Y-137503378D01*
X74798097Y-137522728D01*
X74876580Y-137553359D01*
X74966559Y-137597407D01*
X75071622Y-137657007D01*
X75195360Y-137734295D01*
X75341363Y-137831405D01*
X75513220Y-137950473D01*
X75714522Y-138093635D01*
X75948857Y-138263025D01*
X76219817Y-138460779D01*
X76530990Y-138689033D01*
X77627877Y-139494732D01*
X76356068Y-139501830D01*
X76237434Y-139502459D01*
X75917888Y-139503569D01*
X75646093Y-139503064D01*
X75416905Y-139500352D01*
X75225180Y-139494837D01*
X75065775Y-139485926D01*
X74933547Y-139473025D01*
X74823352Y-139455540D01*
X74730047Y-139432877D01*
X74648488Y-139404441D01*
X74573531Y-139369640D01*
X74500032Y-139327878D01*
X74422850Y-139278561D01*
X74347742Y-139228987D01*
X74347742Y-141805361D01*
X74436506Y-141738811D01*
X74450548Y-141728389D01*
X74579250Y-141645064D01*
X74709353Y-141587624D01*
X74858432Y-141549905D01*
X75044059Y-141525745D01*
X75052151Y-141525082D01*
X75128717Y-141521576D01*
X75256465Y-141518410D01*
X75432473Y-141515599D01*
X75653823Y-141513156D01*
X75917596Y-141511094D01*
X76220873Y-141509429D01*
X76560735Y-141508172D01*
X76934262Y-141507338D01*
X77338536Y-141506941D01*
X77770638Y-141506994D01*
X78227647Y-141507512D01*
X78706646Y-141508508D01*
X79136309Y-141509562D01*
X79604006Y-141510690D01*
X80022457Y-141511801D01*
X80394591Y-141513033D01*
X80723342Y-141514527D01*
X81011641Y-141516422D01*
X81262419Y-141518857D01*
X81478607Y-141521971D01*
X81663139Y-141525904D01*
X81818945Y-141530796D01*
X81948957Y-141536786D01*
X82056106Y-141544013D01*
X82143325Y-141552616D01*
X82213545Y-141562736D01*
X82269697Y-141574511D01*
X82314714Y-141588081D01*
X82351526Y-141603586D01*
X82383067Y-141621164D01*
X82412266Y-141640955D01*
X82442056Y-141663099D01*
X82475369Y-141687735D01*
X82508752Y-141711564D01*
X82574757Y-141757620D01*
X82616398Y-141785208D01*
X82618142Y-141785874D01*
X82626017Y-141776241D01*
X82632587Y-141742248D01*
X82637955Y-141680111D01*
X82642220Y-141586048D01*
X82645483Y-141456276D01*
X82647846Y-141287014D01*
X82649409Y-141074477D01*
X82650272Y-140814885D01*
X82650538Y-140504453D01*
X82650538Y-139203102D01*
X82569028Y-139271687D01*
X82513046Y-139311437D01*
X82381050Y-139377602D01*
X82216883Y-139435584D01*
X82034780Y-139479838D01*
X82017492Y-139482659D01*
X81926356Y-139491051D01*
X81785507Y-139497407D01*
X81593970Y-139501742D01*
X81350770Y-139504074D01*
X81054931Y-139504420D01*
X80705478Y-139502796D01*
X79538805Y-139494732D01*
X80592217Y-138661721D01*
X80622391Y-138637862D01*
X80889815Y-138426618D01*
X81118840Y-138246273D01*
X81313358Y-138093955D01*
X81477265Y-137966796D01*
X81614453Y-137861923D01*
X81728819Y-137776469D01*
X81824254Y-137707561D01*
X81904655Y-137652331D01*
X81973914Y-137607909D01*
X82035926Y-137571423D01*
X82094584Y-137540004D01*
X82153784Y-137510782D01*
X82258574Y-137465828D01*
X82369117Y-137436788D01*
X82488354Y-137429064D01*
X82650538Y-137429840D01*
X82650538Y-134665998D01*
X82564079Y-134786171D01*
X82482820Y-134887805D01*
X82350280Y-135031016D01*
X82184170Y-135193452D01*
X81990820Y-135368963D01*
X81776559Y-135551398D01*
X81719262Y-135598379D01*
X81620990Y-135678366D01*
X81492061Y-135782921D01*
X81336779Y-135908579D01*
X81159446Y-136051877D01*
X80964367Y-136209350D01*
X80755843Y-136377536D01*
X80538179Y-136552969D01*
X80438280Y-136633435D01*
X80315677Y-136732187D01*
X80092641Y-136911726D01*
X79873373Y-137088121D01*
X79662178Y-137257909D01*
X79463357Y-137417626D01*
X79281216Y-137563808D01*
X79120055Y-137692992D01*
X78984180Y-137801713D01*
X78877892Y-137886508D01*
X78805496Y-137943913D01*
X78771294Y-137970464D01*
X78758441Y-137972655D01*
X78733996Y-137965366D01*
X78695537Y-137946477D01*
X78640338Y-137914103D01*
X78565669Y-137866357D01*
X78468804Y-137801355D01*
X78347014Y-137717212D01*
X78197570Y-137612041D01*
X78017746Y-137483957D01*
X77804813Y-137331075D01*
X77556043Y-137151508D01*
X77268708Y-136943372D01*
X76940080Y-136704782D01*
X76678496Y-136514675D01*
X76359603Y-136282740D01*
X76079554Y-136078722D01*
X75835240Y-135900251D01*
X75623554Y-135744952D01*
X75441386Y-135610454D01*
X75285630Y-135494383D01*
X75153177Y-135394367D01*
X75040919Y-135308034D01*
X74945749Y-135233011D01*
X74864557Y-135166925D01*
X74794236Y-135107404D01*
X74731678Y-135052076D01*
X74673775Y-134998566D01*
X74617418Y-134944504D01*
X74559500Y-134887516D01*
X74347742Y-134677505D01*
X74347685Y-136089236D01*
X74347628Y-137500968D01*
X73092137Y-137500968D01*
X73092124Y-137456347D01*
X73092020Y-136808644D01*
X73092000Y-136603389D01*
X73091987Y-135969743D01*
X73092066Y-135387856D01*
X73092255Y-134855535D01*
X73092568Y-134370588D01*
X73093021Y-133930822D01*
X73093631Y-133534047D01*
X73094413Y-133178068D01*
X73095030Y-132976111D01*
X74347742Y-132976111D01*
X74347742Y-134181548D01*
X74716452Y-133977742D01*
X80069570Y-133977742D01*
X80438280Y-134181548D01*
X80438280Y-132026871D01*
X77604678Y-132019081D01*
X74771075Y-132011291D01*
X74607945Y-131934908D01*
X74527090Y-131894637D01*
X74446093Y-131849036D01*
X74396279Y-131814599D01*
X74396183Y-131814513D01*
X74384609Y-131806153D01*
X74375039Y-131806943D01*
X74367283Y-131821430D01*
X74361151Y-131854162D01*
X74356454Y-131909685D01*
X74353000Y-131992548D01*
X74350600Y-132107298D01*
X74349065Y-132258482D01*
X74348203Y-132450647D01*
X74347826Y-132688341D01*
X74347742Y-132976111D01*
X73095030Y-132976111D01*
X73095383Y-132860694D01*
X73096557Y-132579734D01*
X73097951Y-132332993D01*
X73099581Y-132118281D01*
X73101463Y-131933406D01*
X73103613Y-131776174D01*
X73106046Y-131644394D01*
X73108779Y-131535873D01*
X73111827Y-131448420D01*
X73115207Y-131379842D01*
X73118934Y-131327946D01*
X73123024Y-131290541D01*
X73127494Y-131265434D01*
X73132358Y-131250434D01*
X73134523Y-131245661D01*
X73141634Y-131226123D01*
X73146827Y-131208206D01*
X73152364Y-131191837D01*
X73160507Y-131176943D01*
X73173516Y-131163453D01*
X73193654Y-131151293D01*
X73223182Y-131140390D01*
X73264362Y-131130673D01*
X73319456Y-131122068D01*
X73390725Y-131114502D01*
X73480431Y-131107904D01*
X73590836Y-131102200D01*
X73724200Y-131097318D01*
X73882787Y-131093185D01*
X74068857Y-131089729D01*
X74284672Y-131086876D01*
X74532494Y-131084555D01*
X74814585Y-131082693D01*
X75133205Y-131081216D01*
X75490618Y-131080053D01*
X75889083Y-131079131D01*
X76330864Y-131078376D01*
X76818222Y-131077717D01*
X77353418Y-131077081D01*
X77938713Y-131076395D01*
X78576371Y-131075587D01*
X78653567Y-131075482D01*
X79287183Y-131074581D01*
X79868702Y-131073719D01*
X80400386Y-131072960D01*
X80884498Y-131072368D01*
X81323300Y-131072007D01*
X81719054Y-131071940D01*
X82074025Y-131072232D01*
G36*
X82074025Y-131072232D02*
G01*
X82390473Y-131072947D01*
X82670663Y-131074147D01*
X82916856Y-131075897D01*
X83131316Y-131078260D01*
X83316304Y-131081302D01*
X83474084Y-131085084D01*
X83606918Y-131089671D01*
X83717070Y-131095127D01*
X83806801Y-131101516D01*
X83878374Y-131108901D01*
X83934053Y-131117346D01*
X83976099Y-131126915D01*
X84006775Y-131137672D01*
X84028345Y-131149681D01*
X84043070Y-131163005D01*
X84053213Y-131177708D01*
X84061038Y-131193855D01*
X84068806Y-131211508D01*
X84078781Y-131230731D01*
X84081960Y-131236356D01*
X84112727Y-131321470D01*
X84125372Y-131414645D01*
X84125368Y-131519678D01*
X83886394Y-131521428D01*
X83858894Y-131521872D01*
X83579357Y-131555256D01*
X83316339Y-131640284D01*
X83072624Y-131775773D01*
X82850999Y-131960543D01*
X82760607Y-132059696D01*
X82610783Y-132280469D01*
X82506303Y-132521353D01*
X82447224Y-132775333D01*
X82433601Y-133035393D01*
X82465490Y-133294517D01*
X82542948Y-133545690D01*
X82666029Y-133781895D01*
X82834790Y-133996118D01*
X82894286Y-134055670D01*
X83114576Y-134231686D01*
X83353641Y-134356584D01*
X83613024Y-134431032D01*
X83894266Y-134455699D01*
X84125377Y-134455699D01*
X84125377Y-138376303D01*
X84125387Y-138621244D01*
X84125459Y-139147446D01*
X84125510Y-139622794D01*
X84125439Y-140049918D01*
X84125140Y-140431445D01*
X84124509Y-140770004D01*
X84123444Y-141068224D01*
X84121839Y-141328733D01*
X84119591Y-141554161D01*
X84116596Y-141747135D01*
X84112750Y-141910284D01*
X84107950Y-142046238D01*
X84102090Y-142157624D01*
X84095068Y-142247071D01*
X84086779Y-142317208D01*
X84077120Y-142370663D01*
X84065986Y-142410065D01*
X84053274Y-142438043D01*
X84038879Y-142457226D01*
X84022699Y-142470241D01*
X84004628Y-142479718D01*
X83984563Y-142488285D01*
X83962400Y-142498570D01*
X83962038Y-142498755D01*
X83947530Y-142503749D01*
X83923236Y-142508330D01*
X83886916Y-142512515D01*
X83836326Y-142516321D01*
X83769225Y-142519767D01*
X83683371Y-142522869D01*
X83576522Y-142525645D01*
X83446436Y-142528113D01*
X83290872Y-142530288D01*
X83107587Y-142532190D01*
X82894339Y-142533836D01*
X82648887Y-142535242D01*
X82368988Y-142536426D01*
X82052401Y-142537406D01*
X81696884Y-142538198D01*
X81300195Y-142538822D01*
X80860091Y-142539292D01*
X80374332Y-142539628D01*
X79840675Y-142539847D01*
X79256878Y-142539965D01*
X78620699Y-142540000D01*
X78495721Y-142540002D01*
X77866172Y-142540062D01*
X77288562Y-142540156D01*
X76760632Y-142540211D01*
X76280123Y-142540156D01*
X75844777Y-142539922D01*
X75452336Y-142539435D01*
X75100541Y-142538625D01*
X74787133Y-142537421D01*
X74509855Y-142535752D01*
X74347742Y-142534283D01*
X74266447Y-142533547D01*
X74054652Y-142530735D01*
X73872211Y-142527245D01*
X73716865Y-142523005D01*
X73586356Y-142517945D01*
X73478426Y-142511994D01*
X73390815Y-142505080D01*
X73321267Y-142497133D01*
X73267521Y-142488080D01*
X73227321Y-142477852D01*
X73198406Y-142466377D01*
X73178520Y-142453584D01*
X73165403Y-142439402D01*
X73156797Y-142423760D01*
X73150443Y-142406587D01*
X73144084Y-142387812D01*
X73135460Y-142367363D01*
X73131138Y-142355857D01*
X73126419Y-142334752D01*
X73122095Y-142303391D01*
X73118149Y-142259558D01*
X73114564Y-142201034D01*
X73111322Y-142125600D01*
X73108406Y-142031037D01*
X73105799Y-141915127D01*
X73103484Y-141775652D01*
X73101443Y-141610394D01*
X73099659Y-141417133D01*
X73098114Y-141193652D01*
X73096791Y-140937732D01*
X73095673Y-140647154D01*
X73094742Y-140319700D01*
X73093982Y-139953151D01*
X73093374Y-139545290D01*
X73092902Y-139093897D01*
X73092547Y-138596755D01*
X73092294Y-138051644D01*
X73092137Y-137500968D01*
X74347628Y-137500968D01*
X74518726Y-137492097D01*
X74527323Y-137491667D01*
X74595723Y-137489983D01*
X74661258Y-137493175D01*
X74727520Y-137503378D01*
X74798097Y-137522728D01*
X74876580Y-137553359D01*
X74966559Y-137597407D01*
X75071622Y-137657007D01*
X75195360Y-137734295D01*
X75341363Y-137831405D01*
X75513220Y-137950473D01*
X75714522Y-138093635D01*
X75948857Y-138263025D01*
X76219817Y-138460779D01*
X76530990Y-138689033D01*
X77627877Y-139494732D01*
X76356068Y-139501830D01*
X76237434Y-139502459D01*
X75917888Y-139503569D01*
X75646093Y-139503064D01*
X75416905Y-139500352D01*
X75225180Y-139494837D01*
X75065775Y-139485926D01*
X74933547Y-139473025D01*
X74823352Y-139455540D01*
X74730047Y-139432877D01*
X74648488Y-139404441D01*
X74573531Y-139369640D01*
X74500032Y-139327878D01*
X74422850Y-139278561D01*
X74347742Y-139228987D01*
X74347742Y-141805361D01*
X74436506Y-141738811D01*
X74450548Y-141728389D01*
X74579250Y-141645064D01*
X74709353Y-141587624D01*
X74858432Y-141549905D01*
X75044059Y-141525745D01*
X75052151Y-141525082D01*
X75128717Y-141521576D01*
X75256465Y-141518410D01*
X75432473Y-141515599D01*
X75653823Y-141513156D01*
X75917596Y-141511094D01*
X76220873Y-141509429D01*
X76560735Y-141508172D01*
X76934262Y-141507338D01*
X77338536Y-141506941D01*
X77770638Y-141506994D01*
X78227647Y-141507512D01*
X78706646Y-141508508D01*
X79136309Y-141509562D01*
X79604006Y-141510690D01*
X80022457Y-141511801D01*
X80394591Y-141513033D01*
X80723342Y-141514527D01*
X81011641Y-141516422D01*
X81262419Y-141518857D01*
X81478607Y-141521971D01*
X81663139Y-141525904D01*
X81818945Y-141530796D01*
X81948957Y-141536786D01*
X82056106Y-141544013D01*
X82143325Y-141552616D01*
X82213545Y-141562736D01*
X82269697Y-141574511D01*
X82314714Y-141588081D01*
X82351526Y-141603586D01*
X82383067Y-141621164D01*
X82412266Y-141640955D01*
X82442056Y-141663099D01*
X82475369Y-141687735D01*
X82508752Y-141711564D01*
X82574757Y-141757620D01*
X82616398Y-141785208D01*
X82618142Y-141785874D01*
X82626017Y-141776241D01*
X82632587Y-141742248D01*
X82637955Y-141680111D01*
X82642220Y-141586048D01*
X82645483Y-141456276D01*
X82647846Y-141287014D01*
X82649409Y-141074477D01*
X82650272Y-140814885D01*
X82650538Y-140504453D01*
X82650538Y-139203102D01*
X82569028Y-139271687D01*
X82513046Y-139311437D01*
X82381050Y-139377602D01*
X82216883Y-139435584D01*
X82034780Y-139479838D01*
X82017492Y-139482659D01*
X81926356Y-139491051D01*
X81785507Y-139497407D01*
X81593970Y-139501742D01*
X81350770Y-139504074D01*
X81054931Y-139504420D01*
X80705478Y-139502796D01*
X79538805Y-139494732D01*
X80592217Y-138661721D01*
X80622391Y-138637862D01*
X80889815Y-138426618D01*
X81118840Y-138246273D01*
X81313358Y-138093955D01*
X81477265Y-137966796D01*
X81614453Y-137861923D01*
X81728819Y-137776469D01*
X81824254Y-137707561D01*
X81904655Y-137652331D01*
X81973914Y-137607909D01*
X82035926Y-137571423D01*
X82094584Y-137540004D01*
X82153784Y-137510782D01*
X82258574Y-137465828D01*
X82369117Y-137436788D01*
X82488354Y-137429064D01*
X82650538Y-137429840D01*
X82650538Y-134665998D01*
X82564079Y-134786171D01*
X82482820Y-134887805D01*
X82350280Y-135031016D01*
X82184170Y-135193452D01*
X81990820Y-135368963D01*
X81776559Y-135551398D01*
X81719262Y-135598379D01*
X81620990Y-135678366D01*
X81492061Y-135782921D01*
X81336779Y-135908579D01*
X81159446Y-136051877D01*
X80964367Y-136209350D01*
X80755843Y-136377536D01*
X80538179Y-136552969D01*
X80438280Y-136633435D01*
X80315677Y-136732187D01*
X80092641Y-136911726D01*
X79873373Y-137088121D01*
X79662178Y-137257909D01*
X79463357Y-137417626D01*
X79281216Y-137563808D01*
X79120055Y-137692992D01*
X78984180Y-137801713D01*
X78877892Y-137886508D01*
X78805496Y-137943913D01*
X78771294Y-137970464D01*
X78758441Y-137972655D01*
X78733996Y-137965366D01*
X78695537Y-137946477D01*
X78640338Y-137914103D01*
X78565669Y-137866357D01*
X78468804Y-137801355D01*
X78347014Y-137717212D01*
X78197570Y-137612041D01*
X78017746Y-137483957D01*
X77804813Y-137331075D01*
X77556043Y-137151508D01*
X77268708Y-136943372D01*
X76940080Y-136704782D01*
X76678496Y-136514675D01*
X76359603Y-136282740D01*
X76079554Y-136078722D01*
X75835240Y-135900251D01*
X75623554Y-135744952D01*
X75441386Y-135610454D01*
X75285630Y-135494383D01*
X75153177Y-135394367D01*
X75040919Y-135308034D01*
X74945749Y-135233011D01*
X74864557Y-135166925D01*
X74794236Y-135107404D01*
X74731678Y-135052076D01*
X74673775Y-134998566D01*
X74617418Y-134944504D01*
X74559500Y-134887516D01*
X74347742Y-134677505D01*
X74347685Y-136089236D01*
X74347628Y-137500968D01*
X73092137Y-137500968D01*
X73092124Y-137456347D01*
X73092020Y-136808644D01*
X73092000Y-136603389D01*
X73091987Y-135969743D01*
X73092066Y-135387856D01*
X73092255Y-134855535D01*
X73092568Y-134370588D01*
X73093021Y-133930822D01*
X73093631Y-133534047D01*
X73094413Y-133178068D01*
X73095030Y-132976111D01*
X74347742Y-132976111D01*
X74347742Y-134181548D01*
X74716452Y-133977742D01*
X80069570Y-133977742D01*
X80438280Y-134181548D01*
X80438280Y-132026871D01*
X77604678Y-132019081D01*
X74771075Y-132011291D01*
X74607945Y-131934908D01*
X74527090Y-131894637D01*
X74446093Y-131849036D01*
X74396279Y-131814599D01*
X74396183Y-131814513D01*
X74384609Y-131806153D01*
X74375039Y-131806943D01*
X74367283Y-131821430D01*
X74361151Y-131854162D01*
X74356454Y-131909685D01*
X74353000Y-131992548D01*
X74350600Y-132107298D01*
X74349065Y-132258482D01*
X74348203Y-132450647D01*
X74347826Y-132688341D01*
X74347742Y-132976111D01*
X73095030Y-132976111D01*
X73095383Y-132860694D01*
X73096557Y-132579734D01*
X73097951Y-132332993D01*
X73099581Y-132118281D01*
X73101463Y-131933406D01*
X73103613Y-131776174D01*
X73106046Y-131644394D01*
X73108779Y-131535873D01*
X73111827Y-131448420D01*
X73115207Y-131379842D01*
X73118934Y-131327946D01*
X73123024Y-131290541D01*
X73127494Y-131265434D01*
X73132358Y-131250434D01*
X73134523Y-131245661D01*
X73141634Y-131226123D01*
X73146827Y-131208206D01*
X73152364Y-131191837D01*
X73160507Y-131176943D01*
X73173516Y-131163453D01*
X73193654Y-131151293D01*
X73223182Y-131140390D01*
X73264362Y-131130673D01*
X73319456Y-131122068D01*
X73390725Y-131114502D01*
X73480431Y-131107904D01*
X73590836Y-131102200D01*
X73724200Y-131097318D01*
X73882787Y-131093185D01*
X74068857Y-131089729D01*
X74284672Y-131086876D01*
X74532494Y-131084555D01*
X74814585Y-131082693D01*
X75133205Y-131081216D01*
X75490618Y-131080053D01*
X75889083Y-131079131D01*
X76330864Y-131078376D01*
X76818222Y-131077717D01*
X77353418Y-131077081D01*
X77938713Y-131076395D01*
X78576371Y-131075587D01*
X78653567Y-131075482D01*
X79287183Y-131074581D01*
X79868702Y-131073719D01*
X80400386Y-131072960D01*
X80884498Y-131072368D01*
X81323300Y-131072007D01*
X81719054Y-131071940D01*
X82074025Y-131072232D01*
G37*
D12*
X152067224Y-112777500D02*
X151557776Y-112777500D01*
X152067224Y-113822500D02*
X151557776Y-113822500D01*
X113554724Y-93577500D02*
X113045276Y-93577500D01*
X113554724Y-94622500D02*
X113045276Y-94622500D01*
X132667224Y-93577500D02*
X132157776Y-93577500D01*
X132667224Y-94622500D02*
X132157776Y-94622500D01*
X152067224Y-93577500D02*
X151557776Y-93577500D01*
X152067224Y-94622500D02*
X151557776Y-94622500D01*
X74454724Y-95977500D02*
X73945276Y-95977500D01*
X74454724Y-97022500D02*
X73945276Y-97022500D01*
X71725000Y-64000000D02*
X77225000Y-64000000D01*
X71725000Y-65950000D02*
X71725000Y-64000000D01*
X75575000Y-66500000D02*
X76175000Y-66500000D01*
X75875000Y-66200000D02*
X75575000Y-66500000D01*
X76175000Y-66500000D02*
X75875000Y-66200000D01*
X77225000Y-64000000D02*
X77225000Y-65950000D01*
X77225000Y-65950000D02*
X71725000Y-65950000D01*
X79032776Y-64477500D02*
X79542224Y-64477500D01*
X79032776Y-65522500D02*
X79542224Y-65522500D01*
X72250000Y-99300000D02*
X77750000Y-99300000D01*
X72250000Y-101250000D02*
X72250000Y-99300000D01*
X76100000Y-101800000D02*
X76700000Y-101800000D01*
X76400000Y-101500000D02*
X76100000Y-101800000D01*
X76700000Y-101800000D02*
X76400000Y-101500000D01*
X77750000Y-99300000D02*
X77750000Y-101250000D01*
X77750000Y-101250000D02*
X72250000Y-101250000D01*
X113567224Y-112777500D02*
X113057776Y-112777500D01*
X113567224Y-113822500D02*
X113057776Y-113822500D01*
X94354724Y-132077500D02*
X93845276Y-132077500D01*
X94354724Y-133122500D02*
X93845276Y-133122500D01*
X132854724Y-112777500D02*
X132345276Y-112777500D01*
X132854724Y-113822500D02*
X132345276Y-113822500D01*
X152067224Y-132077500D02*
X151557776Y-132077500D01*
X152067224Y-133122500D02*
X151557776Y-133122500D01*
X94267224Y-112777500D02*
X93757776Y-112777500D01*
X94267224Y-113822500D02*
X93757776Y-113822500D01*
X132367224Y-132077500D02*
X131857776Y-132077500D01*
X132367224Y-133122500D02*
X131857776Y-133122500D01*
X94267224Y-93577500D02*
X93757776Y-93577500D01*
X94267224Y-94622500D02*
X93757776Y-94622500D01*
%LPC*%
D14*
X98250000Y-70000000D03*
D15*
X100790000Y-64920000D03*
X94440000Y-67460000D03*
D14*
X136750000Y-70000000D03*
D15*
X139290000Y-64920000D03*
X132940000Y-67460000D03*
D16*
X157300000Y-74800000D03*
D17*
X154760000Y-74800000D03*
D14*
X156000000Y-70000000D03*
D15*
X158540000Y-64920000D03*
X152190000Y-67460000D03*
D16*
X138000000Y-74800000D03*
D17*
X135460000Y-74800000D03*
D14*
X136750000Y-89250000D03*
D15*
X139290000Y-84170000D03*
X132940000Y-86710000D03*
D14*
X98260000Y-127730000D03*
D15*
X100800000Y-122650000D03*
X94450000Y-125190000D03*
D18*
X86240000Y-140540000D03*
D19*
X86240000Y-138000000D03*
X86240000Y-135460000D03*
X86240000Y-132920000D03*
X86240000Y-130380000D03*
X86240000Y-127840000D03*
X86240000Y-125300000D03*
X86240000Y-122760000D03*
X86240000Y-120220000D03*
X86240000Y-117680000D03*
X86240000Y-115140000D03*
X86240000Y-112600000D03*
X71000000Y-112600000D03*
X71000000Y-115140000D03*
X71000000Y-117680000D03*
X71000000Y-120220000D03*
X71000000Y-122760000D03*
X71000000Y-125300000D03*
X71000000Y-127840000D03*
X71000000Y-130380000D03*
X71000000Y-132920000D03*
X71000000Y-135460000D03*
X71000000Y-138000000D03*
X71000000Y-140540000D03*
D16*
X99500000Y-113300000D03*
D17*
X96960000Y-113300000D03*
D16*
X157300000Y-132600000D03*
D17*
X154760000Y-132600000D03*
D14*
X98250000Y-108500000D03*
D15*
X100790000Y-103420000D03*
X94440000Y-105960000D03*
D16*
X157300000Y-94100000D03*
D17*
X154760000Y-94100000D03*
D14*
X98250000Y-89250000D03*
D15*
X100790000Y-84170000D03*
X94440000Y-86710000D03*
D14*
X117500000Y-70000000D03*
D15*
X120040000Y-64920000D03*
X113690000Y-67460000D03*
D14*
X156000000Y-89250000D03*
D15*
X158540000Y-84170000D03*
X152190000Y-86710000D03*
D16*
X99500000Y-94100000D03*
D17*
X96960000Y-94100000D03*
D16*
X99500000Y-74800000D03*
D17*
X96960000Y-74800000D03*
D16*
X137900000Y-94100000D03*
D17*
X135360000Y-94100000D03*
D14*
X117510000Y-108490000D03*
D15*
X120050000Y-103410000D03*
X113700000Y-105950000D03*
D14*
X156010000Y-108480000D03*
D15*
X158550000Y-103400000D03*
X152200000Y-105940000D03*
D14*
X117510000Y-127740000D03*
D15*
X120050000Y-122660000D03*
X113700000Y-125200000D03*
D16*
X118775000Y-113300000D03*
D17*
X116235000Y-113300000D03*
D14*
X117500000Y-89250000D03*
D15*
X120040000Y-84170000D03*
X113690000Y-86710000D03*
D14*
X136750000Y-108490000D03*
D15*
X139290000Y-103410000D03*
X132940000Y-105950000D03*
D16*
X118775000Y-94100000D03*
D17*
X116235000Y-94100000D03*
D16*
X99575000Y-132600000D03*
D17*
X97035000Y-132600000D03*
D16*
X138075000Y-113300000D03*
D17*
X135535000Y-113300000D03*
D16*
X157275000Y-113300000D03*
D17*
X154735000Y-113300000D03*
D16*
X118740000Y-132600000D03*
D17*
X116200000Y-132600000D03*
D16*
X137575000Y-132600000D03*
D17*
X135035000Y-132600000D03*
D14*
X136760000Y-127740000D03*
D15*
X139300000Y-122660000D03*
X132950000Y-125200000D03*
D16*
X118775000Y-74800000D03*
D17*
X116235000Y-74800000D03*
D14*
X156000000Y-127750000D03*
D15*
X158540000Y-122670000D03*
X152190000Y-125210000D03*
D20*
X93087500Y-74800000D03*
X94912500Y-74800000D03*
X112387500Y-74800000D03*
X114212500Y-74800000D03*
X150900000Y-74800000D03*
X152725000Y-74800000D03*
X112387500Y-132600000D03*
X114212500Y-132600000D03*
X131587500Y-74800000D03*
X133412500Y-74800000D03*
X150900000Y-113300000D03*
X152725000Y-113300000D03*
X112387500Y-94100000D03*
X114212500Y-94100000D03*
X131500000Y-94100000D03*
X133325000Y-94100000D03*
X150900000Y-94100000D03*
X152725000Y-94100000D03*
X73287500Y-96500000D03*
X75112500Y-96500000D03*
D21*
X75675000Y-65000000D03*
X73275000Y-65000000D03*
D22*
X76475000Y-65000000D03*
D23*
X72475000Y-65000000D03*
D24*
X80200000Y-65000000D03*
X78375000Y-65000000D03*
D21*
X76200000Y-100300000D03*
X73800000Y-100300000D03*
D22*
X77000000Y-100300000D03*
D23*
X73000000Y-100300000D03*
D20*
X112400000Y-113300000D03*
X114225000Y-113300000D03*
X93187500Y-132600000D03*
X95012500Y-132600000D03*
X131687500Y-113300000D03*
X133512500Y-113300000D03*
X150900000Y-132600000D03*
X152725000Y-132600000D03*
X93100000Y-113300000D03*
X94925000Y-113300000D03*
X131200000Y-132600000D03*
X133025000Y-132600000D03*
X93100000Y-94100000D03*
X94925000Y-94100000D03*
%LPD*%
M02*
