G04 #@! TF.GenerationSoftware,KiCad,Pcbnew,9.0.0*
G04 #@! TF.CreationDate,2025-03-25T02:12:26-05:00*
G04 #@! TF.ProjectId,freeMacro_rev_1,66726565-4d61-4637-926f-5f7265765f31,rev?*
G04 #@! TF.SameCoordinates,Original*
G04 #@! TF.FileFunction,Soldermask,Bot*
G04 #@! TF.FilePolarity,Negative*
%FSLAX46Y46*%
G04 Gerber Fmt 4.6, Leading zero omitted, Abs format (unit mm)*
G04 Created by KiCad (PCBNEW 9.0.0) date 2025-03-25 02:12:26*
%MOMM*%
%LPD*%
G01*
G04 APERTURE LIST*
G04 Aperture macros list*
%AMRoundRect*
0 Rectangle with rounded corners*
0 $1 Rounding radius*
0 $2 $3 $4 $5 $6 $7 $8 $9 X,Y pos of 4 corners*
0 Add a 4 corners polygon primitive as box body*
4,1,4,$2,$3,$4,$5,$6,$7,$8,$9,$2,$3,0*
0 Add four circle primitives for the rounded corners*
1,1,$1+$1,$2,$3*
1,1,$1+$1,$4,$5*
1,1,$1+$1,$6,$7*
1,1,$1+$1,$8,$9*
0 Add four rect primitives between the rounded corners*
20,1,$1+$1,$2,$3,$4,$5,0*
20,1,$1+$1,$4,$5,$6,$7,0*
20,1,$1+$1,$6,$7,$8,$9,0*
20,1,$1+$1,$8,$9,$2,$3,0*%
%AMFreePoly0*
4,1,6,1.000000,0.000000,0.500000,-0.750000,-0.500000,-0.750000,-0.500000,0.750000,0.500000,0.750000,1.000000,0.000000,1.000000,0.000000,$1*%
G04 Aperture macros list end*
%ADD10C,4.000000*%
%ADD11C,2.200000*%
%ADD12R,1.800000X1.800000*%
%ADD13C,1.800000*%
%ADD14R,1.600000X1.600000*%
%ADD15O,1.600000X1.600000*%
%ADD16RoundRect,0.237500X-0.250000X-0.237500X0.250000X-0.237500X0.250000X0.237500X-0.250000X0.237500X0*%
%ADD17R,1.500000X1.500000*%
%ADD18FreePoly0,180.000000*%
%ADD19FreePoly0,0.000000*%
%ADD20RoundRect,0.237500X0.250000X0.237500X-0.250000X0.237500X-0.250000X-0.237500X0.250000X-0.237500X0*%
G04 APERTURE END LIST*
D10*
X98250000Y-70000000D03*
D11*
X100790000Y-64920000D03*
X94440000Y-67460000D03*
D10*
X136750000Y-70000000D03*
D11*
X139290000Y-64920000D03*
X132940000Y-67460000D03*
D12*
X157300000Y-74800000D03*
D13*
X154760000Y-74800000D03*
D10*
X156000000Y-70000000D03*
D11*
X158540000Y-64920000D03*
X152190000Y-67460000D03*
D12*
X138000000Y-74800000D03*
D13*
X135460000Y-74800000D03*
D10*
X136750000Y-89250000D03*
D11*
X139290000Y-84170000D03*
X132940000Y-86710000D03*
D10*
X98260000Y-127730000D03*
D11*
X100800000Y-122650000D03*
X94450000Y-125190000D03*
D14*
X86240000Y-140540000D03*
D15*
X86240000Y-138000000D03*
X86240000Y-135460000D03*
X86240000Y-132920000D03*
X86240000Y-130380000D03*
X86240000Y-127840000D03*
X86240000Y-125300000D03*
X86240000Y-122760000D03*
X86240000Y-120220000D03*
X86240000Y-117680000D03*
X86240000Y-115140000D03*
X86240000Y-112600000D03*
X71000000Y-112600000D03*
X71000000Y-115140000D03*
X71000000Y-117680000D03*
X71000000Y-120220000D03*
X71000000Y-122760000D03*
X71000000Y-125300000D03*
X71000000Y-127840000D03*
X71000000Y-130380000D03*
X71000000Y-132920000D03*
X71000000Y-135460000D03*
X71000000Y-138000000D03*
X71000000Y-140540000D03*
D12*
X99500000Y-113300000D03*
D13*
X96960000Y-113300000D03*
D12*
X157300000Y-132600000D03*
D13*
X154760000Y-132600000D03*
D10*
X98250000Y-108500000D03*
D11*
X100790000Y-103420000D03*
X94440000Y-105960000D03*
D12*
X157300000Y-94100000D03*
D13*
X154760000Y-94100000D03*
D10*
X98250000Y-89250000D03*
D11*
X100790000Y-84170000D03*
X94440000Y-86710000D03*
D10*
X117500000Y-70000000D03*
D11*
X120040000Y-64920000D03*
X113690000Y-67460000D03*
D10*
X156000000Y-89250000D03*
D11*
X158540000Y-84170000D03*
X152190000Y-86710000D03*
D12*
X99500000Y-94100000D03*
D13*
X96960000Y-94100000D03*
D12*
X99500000Y-74800000D03*
D13*
X96960000Y-74800000D03*
D12*
X137900000Y-94100000D03*
D13*
X135360000Y-94100000D03*
D10*
X117510000Y-108490000D03*
D11*
X120050000Y-103410000D03*
X113700000Y-105950000D03*
D10*
X156010000Y-108480000D03*
D11*
X158550000Y-103400000D03*
X152200000Y-105940000D03*
D10*
X117510000Y-127740000D03*
D11*
X120050000Y-122660000D03*
X113700000Y-125200000D03*
D12*
X118775000Y-113300000D03*
D13*
X116235000Y-113300000D03*
D10*
X117500000Y-89250000D03*
D11*
X120040000Y-84170000D03*
X113690000Y-86710000D03*
D10*
X136750000Y-108490000D03*
D11*
X139290000Y-103410000D03*
X132940000Y-105950000D03*
D12*
X118775000Y-94100000D03*
D13*
X116235000Y-94100000D03*
D12*
X99575000Y-132600000D03*
D13*
X97035000Y-132600000D03*
D12*
X138075000Y-113300000D03*
D13*
X135535000Y-113300000D03*
D12*
X157275000Y-113300000D03*
D13*
X154735000Y-113300000D03*
D12*
X118740000Y-132600000D03*
D13*
X116200000Y-132600000D03*
D12*
X137575000Y-132600000D03*
D13*
X135035000Y-132600000D03*
D10*
X136760000Y-127740000D03*
D11*
X139300000Y-122660000D03*
X132950000Y-125200000D03*
D12*
X118775000Y-74800000D03*
D13*
X116235000Y-74800000D03*
D10*
X156000000Y-127750000D03*
D11*
X158540000Y-122670000D03*
X152190000Y-125210000D03*
D16*
X93087500Y-74800000D03*
X94912500Y-74800000D03*
X112387500Y-74800000D03*
X114212500Y-74800000D03*
X150900000Y-74800000D03*
X152725000Y-74800000D03*
X112387500Y-132600000D03*
X114212500Y-132600000D03*
X131587500Y-74800000D03*
X133412500Y-74800000D03*
X150900000Y-113300000D03*
X152725000Y-113300000D03*
X112387500Y-94100000D03*
X114212500Y-94100000D03*
X131500000Y-94100000D03*
X133325000Y-94100000D03*
X150900000Y-94100000D03*
X152725000Y-94100000D03*
X73287500Y-96500000D03*
X75112500Y-96500000D03*
D17*
X75675000Y-65000000D03*
X73275000Y-65000000D03*
D18*
X76475000Y-65000000D03*
D19*
X72475000Y-65000000D03*
D20*
X80200000Y-65000000D03*
X78375000Y-65000000D03*
D17*
X76200000Y-100300000D03*
X73800000Y-100300000D03*
D18*
X77000000Y-100300000D03*
D19*
X73000000Y-100300000D03*
D16*
X112400000Y-113300000D03*
X114225000Y-113300000D03*
X93187500Y-132600000D03*
X95012500Y-132600000D03*
X131687500Y-113300000D03*
X133512500Y-113300000D03*
X150900000Y-132600000D03*
X152725000Y-132600000D03*
X93100000Y-113300000D03*
X94925000Y-113300000D03*
X131200000Y-132600000D03*
X133025000Y-132600000D03*
X93100000Y-94100000D03*
X94925000Y-94100000D03*
M02*
